<svg xmlns="http://www.w3.org/2000/svg" width="20" height="20" viewBox="0 0 20 20">
    <g fill="none" fill-rule="evenodd">
        <g>
            <g>
                <path fill="#FFF" d="M0 0H20V20H0z" opacity=".007" transform="translate(-367 -384) translate(367 384)"/>
                <path fill="#444" fill-rule="nonzero" d="M19 20H1c-.6 0-1-.4-1-1V1c0-.6.4-1 1-1h18c.6 0 1 .4 1 1v18c0 .6-.4 1-1 1zM2 18h16V2H2v16z" transform="translate(-367 -384) translate(367 384)"/>
                <path fill="#B99515" fill-rule="nonzero" d="M4 4H9V9H4zM11 4H16V9H11zM4 11H9V16H4zM11 11H16V16H11z" transform="translate(-367 -384) translate(367 384)"/>
            </g>
        </g>
    </g>
</svg>
