<svg xmlns="http://www.w3.org/2000/svg" width="20" height="20" viewBox="0 0 20 20">
    <g fill="none" fill-rule="evenodd">
        <g>
            <g>
                <path fill="#FFF" d="M0 0H20V20H0z" opacity=".007" transform="translate(-617 -384) translate(617 384)"/>
                <path fill="#B99515" fill-rule="nonzero" d="M5 11H15V20H5z" transform="translate(-617 -384) translate(617 384)"/>
                <path fill="#444" fill-rule="nonzero" d="M19 4h-2V1c0-.6-.4-1-1-1H4c-.6 0-1 .4-1 1v3H1c-.6 0-1 .4-1 1v10c0 .6.4 1 1 1h3v-2H2V6h16v8h-2v2h3c.6 0 1-.4 1-1V5c0-.6-.4-1-1-1zM5 2h10v2H5V2z" transform="translate(-617 -384) translate(617 384)"/>
            </g>
        </g>
    </g>
</svg>
