<svg xmlns="http://www.w3.org/2000/svg" width="20" height="20" viewBox="0 0 20 20">
    <g fill="none" fill-rule="evenodd">
        <g>
            <g>
                <path fill="#FFF" d="M0 0H20V20H0z" opacity=".007" transform="translate(-417 -184) translate(417 184)"/>
                <path fill="#444" fill-rule="nonzero" d="M17 20H3c-.6 0-1-.4-1-1v-5c0-.6.4-1 1-1s1 .4 1 1v4h12v-4c0-.6.4-1 1-1s1 .4 1 1v5c0 .6-.4 1-1 1z" transform="translate(-417 -184) translate(417 184)"/>
                <path fill="#B99515" fill-rule="nonzero" d="M20 7c0-.2-.1-.4-.2-.6l-4-6c-.2-.3-.5-.4-.8-.4H5c-.3 0-.6.2-.8.4l-4 6c-.1.2-.2.4-.2.6v1.5C0 9.9 1.1 11 2.5 11 4.4 11 5 9 5 9c.2 1.1 1.3 2 2.5 2C9.4 11 10 9 10 9c.2 1.1 1.3 2 2.5 2 1.9 0 2.5-2 2.5-2 .2 1.1 1.3 2 2.5 2 1.4 0 2.5-1.1 2.5-2.5V7z" transform="translate(-417 -184) translate(417 184)"/>
            </g>
        </g>
    </g>
</svg>
