<svg xmlns="http://www.w3.org/2000/svg" width="20" height="20" viewBox="0 0 20 20">
    <g fill="none" fill-rule="evenodd">
        <g>
            <g>
                <path fill="#FFF" d="M0 0H20V20H0z" opacity=".007" transform="translate(-667 -234) translate(667 234)"/>
                <path fill="#444" fill-rule="nonzero" d="M13 14v-2c2.8 0 5-2.2 5-5s-2.2-5-5-5c-2.3 0-4.3 1.6-4.9 3.9-.1.3-.3.6-.6.7-.3.1-.6.1-.9-.1-.5-.3-1-.5-1.6-.5-1.7 0-3 1.3-3 3s1.3 3 3 3h2v2H5c-2.8 0-5-2.2-5-5s2.2-5 5-5c.5 0 1.1.1 1.6.3C7.7 1.7 10.2 0 13 0c3.9 0 7 3.1 7 7s-3.1 7-7 7z" transform="translate(-667 -234) translate(667 234)"/>
                <path fill="#B99515" fill-rule="nonzero" d="M13.7 15.3c-.4-.4-1-.4-1.4 0L11 16.6V10c0-.6-.4-1-1-1s-1 .4-1 1v6.6l-1.3-1.3c-.4-.4-1-.4-1.4 0-.4.4-.4 1 0 1.4l3 3c.2.2.5.3.7.3.2 0 .5-.1.7-.3l3-3c.4-.4.4-1 0-1.4z" transform="translate(-667 -234) translate(667 234)"/>
            </g>
        </g>
    </g>
</svg>
