<svg xmlns="http://www.w3.org/2000/svg" width="20" height="20" viewBox="0 0 20 20">
    <g fill="none" fill-rule="evenodd">
        <g>
            <g>
                <path fill="#FFF" d="M0 0H20V20H0z" opacity=".007" transform="translate(-767 -184) translate(767 184)"/>
                <path fill="#444" fill-rule="nonzero" d="M9.7 19.925l-9-3.006c-.4-.1-.7-.5-.7-.901V.99C0 .289.7-.212 1.3.089L10 2.994 18.7.09c.6-.2 1.3.3 1.3.902v15.027c0 .4-.3.801-.7.901l-9 3.006c-.2.1-.4.1-.6 0zM2 15.317l8 2.704 8-2.704V2.393l-7.7 2.605c-.2.1-.4.1-.6 0L2 2.393v12.924z" transform="translate(-767 -184) translate(767 184)"/>
                <path fill="#B99515" fill-rule="nonzero" d="M10 16c-.6 0-1-.4-1-1V8c0-.6.4-1 1-1s1 .4 1 1v7c0 .6-.4 1-1 1z" transform="translate(-767 -184) translate(767 184)"/>
            </g>
        </g>
    </g>
</svg>
