<svg xmlns="http://www.w3.org/2000/svg" width="20" height="20" viewBox="0 0 20 20">
    <g fill="none" fill-rule="evenodd">
        <g>
            <g transform="translate(-617 -234) translate(617 234)">
                <path fill="#FFF" d="M0 0H20V20H0z" opacity=".007"/>
                <path fill="#444" fill-rule="nonzero" d="M19 20H1c-.6 0-1-.4-1-1V1c0-.6.4-1 1-1h18c.6 0 1 .4 1 1v18c0 .6-.4 1-1 1zM2 18h16V2H2v16z"/>
                <path fill="#B99515" fill-rule="nonzero" d="M3.3 15.7c-.4-.4-.4-1 0-1.4l4-4c.4-.4.9-.4 1.3-.1l3.3 2.5 3.4-3.4c.4-.4 1-.4 1.4 0 .4.4.4 1 0 1.4l-4 4c-.4.4-.9.4-1.3.1l-3.3-2.5-3.4 3.4c-.4.4-1 .4-1.4 0z"/>
                <circle cx="11" cy="6" r="2" fill="#B99515" fill-rule="nonzero"/>
            </g>
        </g>
    </g>
</svg>
