<svg xmlns="http://www.w3.org/2000/svg" width="20" height="20" viewBox="0 0 20 20">
    <g fill="none" fill-rule="evenodd">
        <g>
            <g>
                <path fill="#FFF" d="M0 0H20V20H0z" opacity=".007" transform="translate(-467 -334) translate(467 334)"/>
                <path fill="#B99515" fill-rule="nonzero" d="M19.4 4.085l-9-4.01c-.3-.1-.6-.1-.8 0l-9 4.01c-.4.2-.6.501-.6.902s.2.802.6.903l9 4.01c.1.1.3.1.4.1.1 0 .3 0 .4-.1l9-4.01c.4-.2.6-.502.6-.903 0-.4-.2-.802-.6-.902z" transform="translate(-467 -334) translate(467 334)"/>
                <path fill="#444" fill-rule="nonzero" d="M10 15c-.1 0-.3 0-.4-.1L.577 10.884c-.501-.2-.702-.803-.501-1.305.2-.502.802-.703 1.303-.502L10 12.892l8.62-3.815c.501-.2 1.103 0 1.303.502.2.502 0 1.104-.501 1.305L10.401 14.9c-.1.1-.3.1-.401.1z" transform="translate(-467 -334) translate(467 334)"/>
                <path fill="#444" fill-rule="nonzero" d="M10 20c-.1 0-.3 0-.4-.1L.577 15.884c-.501-.2-.702-.803-.501-1.305.2-.502.802-.703 1.303-.502L10 17.892l8.62-3.815c.501-.2 1.103 0 1.303.502.2.502 0 1.104-.501 1.305L10.401 19.9c-.1.1-.3.1-.401.1z" transform="translate(-467 -334) translate(467 334)"/>
            </g>
        </g>
    </g>
</svg>
