<svg xmlns="http://www.w3.org/2000/svg" width="20" height="20" viewBox="0 0 20 20">
    <g fill="none" fill-rule="evenodd">
        <g>
            <g>
                <path fill="#FFF" d="M0 0H20V20H0z" opacity=".007" transform="translate(-467 -284) translate(467 284)"/>
                <path fill="#444" fill-rule="nonzero" d="M19 17H1c-.6 0-1-.4-1-1V4c0-.6.4-1 1-1h18c.6 0 1 .4 1 1v12c0 .6-.4 1-1 1zM2 15h16V5H2v10z" transform="translate(-467 -284) translate(467 284)"/>
                <path fill="#B99515" fill-rule="nonzero" d="M4 7H16V9H4z" transform="translate(-467 -284) translate(467 284)"/>
            </g>
        </g>
    </g>
</svg>
