<svg xmlns="http://www.w3.org/2000/svg" width="20" height="20" viewBox="0 0 20 20">
    <g fill="none" fill-rule="evenodd">
        <g>
            <g>
                <path fill="#FFF" d="M0 0H20V20H0z" opacity=".007" transform="translate(-767 -334) translate(767 334)"/>
                <path fill="#B99515" fill-rule="nonzero" d="M13 8H7c-.6 0-1-.4-1-1s.4-1 1-1h6c.6 0 1 .4 1 1s-.4 1-1 1z" transform="translate(-767 -334) translate(767 334)"/>
                <path fill="#444" fill-rule="nonzero" d="M20 11.7l-3-10c-.1-.4-.5-.7-1-.7H4c-.4 0-.8.3-1 .7l-3 10V18c0 .6.4 1 1 1h18c.6 0 1-.4 1-1v-6-.3zM4.7 3h10.5l2.4 8H13c-.6 0-1 .4-1 1v1H8v-1c0-.6-.4-1-1-1H2.3l2.4-8zM18 17H2v-4h4v1c0 .6.4 1 1 1h6c.6 0 1-.4 1-1v-1h4v4z" transform="translate(-767 -334) translate(767 334)"/>
            </g>
        </g>
    </g>
</svg>
