<svg xmlns="http://www.w3.org/2000/svg" width="20" height="20" viewBox="0 0 20 20">
    <g fill="none" fill-rule="evenodd">
        <g>
            <g>
                <path fill="#FFF" d="M0 0H20V20H0z" opacity=".007" transform="translate(-517 -384) translate(517 384)"/>
                <path fill="#444" fill-rule="nonzero" d="M19 20H1c-.6 0-1-.4-1-1V1c0-.6.4-1 1-1h18c.6 0 1 .4 1 1v18c0 .6-.4 1-1 1zM2 18h16V2H2v16z" transform="translate(-517 -384) translate(517 384)"/>
                <path fill="#B99515" fill-rule="nonzero" d="M14 9L11 9 11 6 9 6 9 9 6 9 6 11 9 11 9 14 11 14 11 11 14 11z" transform="translate(-517 -384) translate(517 384)"/>
            </g>
        </g>
    </g>
</svg>
