<svg xmlns="http://www.w3.org/2000/svg" width="20" height="20" viewBox="0 0 20 20">
    <g fill="none" fill-rule="evenodd">
        <g>
            <g>
                <path fill="#FFF" d="M0 0H20V20H0z" opacity=".007" transform="translate(-717 -234) translate(717 234)"/>
                <path fill="#444" fill-rule="nonzero" d="M13 19H5c-2.8 0-5-2.2-5-5s2.2-5 5-5c.5 0 1.1.1 1.6.3C7.7 6.7 10.2 5 13 5c3.9 0 7 3.1 7 7s-3.1 7-7 7zm-8-8c-1.7 0-3 1.3-3 3s1.3 3 3 3h8c2.8 0 5-2.2 5-5s-2.2-5-5-5c-2.3 0-4.3 1.6-4.9 3.9-.1.3-.3.6-.6.7-.3.1-.6.1-.9-.1-.5-.3-1-.5-1.6-.5z" transform="translate(-717 -234) translate(717 234)"/>
                <path fill="#B99515" fill-rule="nonzero" d="M2.003 8C1.4 8 1 7.6 1 7c0-3.3 2.707-6 6.015-6 1.304 0 2.607.4 3.61 1.2.4.3.5 1 .2 1.4-.3.4-1.002.5-1.403.2C8.72 3.3 7.918 3 7.015 3c-2.205 0-4.01 1.8-4.01 4 0 .6-.4 1-1.002 1z" transform="translate(-717 -234) translate(717 234)"/>
            </g>
        </g>
    </g>
</svg>
