<svg xmlns="http://www.w3.org/2000/svg" width="20" height="20" viewBox="0 0 20 20">
    <g fill="none" fill-rule="evenodd">
        <g>
            <g>
                <path fill="#FFF" d="M0 0H20V20H0z" opacity=".007" transform="translate(-517 -184) translate(517 184)"/>
                <path fill="#444" fill-rule="nonzero" d="M19 20H1c-.6 0-1-.4-1-1V5c0-.6.4-1 1-1h18c.6 0 1 .4 1 1v14c0 .6-.4 1-1 1zM2 18h16V6H2v12z" transform="translate(-517 -184) translate(517 184)"/>
                <path fill="#B99515" fill-rule="nonzero" d="M16 2H4c-.6 0-1-.4-1-1s.4-1 1-1h12c.6 0 1 .4 1 1s-.4 1-1 1z" transform="translate(-517 -184) translate(517 184)"/>
            </g>
        </g>
    </g>
</svg>
