<svg xmlns="http://www.w3.org/2000/svg" width="20" height="20" viewBox="0 0 20 20">
    <g fill="none" fill-rule="evenodd">
        <g>
            <g>
                <path fill="#FFF" d="M0 0H20V20H0z" opacity=".007" transform="translate(-667 -334) translate(667 334)"/>
                <path fill="#B99515" fill-rule="nonzero" d="M10 12c-2.2 0-4-1.8-4-4V4c0-2.2 1.8-4 4-4s4 1.8 4 4v4c0 2.2-1.8 4-4 4z" transform="translate(-667 -334) translate(667 334)"/>
                <path fill="#444" fill-rule="nonzero" d="M17.51 10.14c-.5-.298-1.101-.1-1.401.399-1.201 2.19-3.603 3.485-6.106 3.485-2.502 0-4.804-1.294-6.105-3.485-.3-.498-.9-.598-1.401-.399-.5.3-.6.897-.4 1.395 1.4 2.49 4.003 4.083 6.806 4.382v2.091H5.9c-.6 0-1 .399-1 .996 0 .598.4.996 1 .996h8.007c.6 0 1-.398 1-.996 0-.597-.4-.996-1-.996h-3.003v-2.091c2.803-.3 5.405-1.893 6.806-4.382.5-.498.3-1.096-.2-1.395z" transform="translate(-667 -334) translate(667 334)"/>
            </g>
        </g>
    </g>
</svg>
