<svg xmlns="http://www.w3.org/2000/svg" width="20" height="20" viewBox="0 0 20 20">
    <g fill="none" fill-rule="evenodd">
        <g>
            <g>
                <path fill="#FFF" d="M0 0H20V20H0z" opacity=".007" transform="translate(-367 -184) translate(367 184)"/>
                <path fill="#B99515" fill-rule="nonzero" d="M19 0h-6c-.6 0-1 .4-1 1s.4 1 1 1h3.6l-4.3 4.3c-.4.4-.4 1 0 1.4.4.4 1 .4 1.4 0L18 3.4V7c0 .6.4 1 1 1s1-.4 1-1V1c0-.6-.4-1-1-1z" transform="translate(-367 -184) translate(367 184)"/>
                <path fill="#444" fill-rule="nonzero" d="M8 1c0-.6-.4-1-1-1H1C.5 0 0 .5 0 1v6c0 .6.4 1 1 1s1-.4 1-1V3.4l4.3 4.3c.2.2.5.3.7.3.2 0 .5-.1.7-.3.4-.4.4-1 0-1.4L3.4 2H7c.6 0 1-.4 1-1zM20 13c0-.6-.4-1-1-1s-1 .4-1 1v3.6l-4.3-4.3c-.4-.4-1-.4-1.4 0-.4.4-.4 1 0 1.4l4.3 4.3H13c-.6 0-1 .4-1 1s.4 1 1 1h6c.5 0 1-.5 1-1v-6z" transform="translate(-367 -184) translate(367 184)"/>
                <path fill="#B99515" fill-rule="nonzero" d="M7 18H3.4l4.3-4.3c.4-.4.4-1 0-1.4-.4-.4-1-.4-1.4 0L2 16.6V13c0-.6-.4-1-1-1s-1 .4-1 1v6c0 .6.4 1 1 1h6c.6 0 1-.4 1-1s-.4-1-1-1z" transform="translate(-367 -184) translate(367 184)"/>
            </g>
        </g>
    </g>
</svg>
