<svg xmlns="http://www.w3.org/2000/svg" width="20" height="20" viewBox="0 0 20 20">
    <g fill="none" fill-rule="evenodd">
        <g>
            <g transform="translate(-717 -384) translate(717 384)">
                <path fill="#FFF" d="M0 0H20V20H0z" opacity=".007"/>
                <path fill="#444" fill-rule="nonzero" d="M19 4h-3V1c0-.6-.4-1-1-1H3C1.3 0 0 1.3 0 3v14c0 1.7 1.3 3 3 3h16c.6 0 1-.4 1-1V5c0-.6-.4-1-1-1zM2 3c0-.6.4-1 1-1h11v2H2V3zm16 15H3c-.6 0-1-.4-1-1V6h16v12z"/>
                <circle cx="14" cy="12" r="2" fill="#B99515" fill-rule="nonzero"/>
            </g>
        </g>
    </g>
</svg>
