<svg xmlns="http://www.w3.org/2000/svg" width="20" height="20" viewBox="0 0 20 20">
    <g fill="none" fill-rule="evenodd">
        <g>
            <g>
                <path fill="#FFF" d="M0 0H20V20H0z" opacity=".007" transform="translate(-417 -334) translate(417 334)"/>
                <path fill="#B99515" fill-rule="nonzero" d="M10 0C5.2 0 0 1.3 0 4s5.2 4 10 4 10-1.3 10-4-5.2-4-10-4z" transform="translate(-417 -334) translate(417 334)"/>
                <path fill="#444" fill-rule="nonzero" d="M19 8c-.6 0-1 .4-1 1v1c0 .5-2.8 2-8 2s-8-1.5-8-2V9c0-.6-.4-1-1-1s-1 .4-1 1v7c0 2.7 5.2 4 10 4s10-1.3 10-4V9c0-.6-.4-1-1-1zm-9 10c-5.2 0-8-1.5-8-2v-3.5c1.9 1 5 1.5 8 1.5s6.1-.5 8-1.5V16c0 .5-2.8 2-8 2z" transform="translate(-417 -334) translate(417 334)"/>
            </g>
        </g>
    </g>
</svg>
