<svg xmlns="http://www.w3.org/2000/svg" width="20" height="20" viewBox="0 0 20 20">
    <g fill="none" fill-rule="evenodd">
        <g>
            <g>
                <path fill="#FFF" d="M0 0H20V20H0z" opacity=".007" transform="translate(-767 -134) translate(767 134)"/>
                <path fill="#444" fill-rule="nonzero" d="M19 19H1c-.6 0-1-.4-1-1v-5h2v4h16v-4h2v5c0 .6-.4 1-1 1z" transform="translate(-767 -134) translate(767 134)"/>
                <path fill="#B99515" fill-rule="nonzero" d="M15.7 6.3l-5-5c-.4-.4-1-.4-1.4 0l-5 5c-.4.4-.4 1 0 1.4.4.4 1 .4 1.4 0L9 4.4V13c0 .6.4 1 1 1s1-.4 1-1V4.4l3.3 3.3c.2.2.5.3.7.3.2 0 .5-.1.7-.3.4-.4.4-1 0-1.4z" transform="translate(-767 -134) translate(767 134)"/>
            </g>
        </g>
    </g>
</svg>
