<svg xmlns="http://www.w3.org/2000/svg" width="20" height="20" viewBox="0 0 20 20">
    <g fill="none" fill-rule="evenodd">
        <g>
            <g transform="translate(-617 -334) translate(617 334)">
                <path fill="#FFF" d="M0 0H20V20H0z" opacity=".007"/>
                <circle cx="7" cy="7" r="2" fill="#B99515" fill-rule="nonzero"/>
                <path fill="#444" fill-rule="nonzero" d="M10.3 19.7l-9-9c-.2-.2-.3-.4-.3-.7V2c0-.6.4-1 1-1h8c.3 0 .5.1.7.3l9 9c.4.4.4 1 0 1.4l-8 8c-.4.4-1 .4-1.4 0zM3 9.6l8 8 6.6-6.6-8-8H3v6.6z"/>
            </g>
        </g>
    </g>
</svg>
