<svg xmlns="http://www.w3.org/2000/svg" width="20" height="20" viewBox="0 0 20 20">
    <g fill="none" fill-rule="evenodd">
        <g>
            <g>
                <path fill="#FFF" d="M0 0H20V20H0z" opacity=".007" transform="translate(-767 -234) translate(767 234)"/>
                <path fill="#444" fill-rule="nonzero" d="M9.203 18.624L.238 7.61c-.298-.3-.298-.8-.1-1.101L3.129 1.5c.198-.3.497-.501.896-.501h11.952c.399 0 .698.2.897.5l2.988 5.008c.2.4.2.8-.1 1.101l-8.964 11.015c-.399.501-1.195.501-1.594 0zM2.231 6.908L10 16.421l7.77-9.513-2.292-3.905H4.621l-2.39 3.905z" transform="translate(-767 -234) translate(767 234)"/>
                <path fill="#B99515" fill-rule="nonzero" d="M15 8H5c-.6 0-1-.4-1-1s.4-1 1-1h10c.6 0 1 .4 1 1s-.4 1-1 1z" transform="translate(-767 -234) translate(767 234)"/>
            </g>
        </g>
    </g>
</svg>
