<svg xmlns="http://www.w3.org/2000/svg" width="20" height="20" viewBox="0 0 20 20">
    <g fill="none" fill-rule="evenodd">
        <g>
            <g>
                <path fill="#FFF" d="M0 0H20V20H0z" opacity=".007" transform="translate(-617 -134) translate(617 134)"/>
                <path fill="#444" fill-rule="nonzero" d="M17 20H3c-.6 0-1-.4-1-1V1c0-.6.4-1 1-1h10c.3 0 .5.1.7.3l4 4c.2.2.3.4.3.7v14c0 .6-.4 1-1 1zM4 18h12V5.4L12.6 2H4v16z" transform="translate(-617 -134) translate(617 134)"/>
                <path fill="#B99515" fill-rule="nonzero" d="M14.7 6.3l-3-3c-.3-.3-.7-.4-1.1-.2-.4.2-.6.5-.6.9v4h4c.4 0 .8-.2.9-.6.2-.4.1-.8-.2-1.1z" transform="translate(-617 -134) translate(617 134)"/>
            </g>
        </g>
    </g>
</svg>
