<svg xmlns="http://www.w3.org/2000/svg" width="20" height="20" viewBox="0 0 20 20">
    <g fill="none" fill-rule="evenodd">
        <g>
            <g>
                <path fill="#FFF" d="M0 0H20V20H0z" opacity=".007" transform="translate(-417 -234) translate(417 234)"/>
                <path fill="#444" fill-rule="nonzero" d="M9.3 19.7L5.6 16H1c-.6 0-1-.4-1-1V1c0-.6.4-1 1-1h18c.6 0 1 .4 1 1v14c0 .6-.4 1-1 1h-4.6l-3.7 3.7c-.4.4-1 .4-1.4 0zM2 14h4c.3 0 .5.1.7.3l3.3 3.3 3.3-3.3c.2-.2.4-.3.7-.3h4V2H2v12z" transform="translate(-417 -234) translate(417 234)"/>
                <path fill="#B99515" fill-rule="nonzero" d="M14 7H6c-.6 0-1-.4-1-1s.4-1 1-1h8c.6 0 1 .4 1 1s-.4 1-1 1zM14 11H6c-.6 0-1-.4-1-1s.4-1 1-1h8c.6 0 1 .4 1 1s-.4 1-1 1z" transform="translate(-417 -234) translate(417 234)"/>
            </g>
        </g>
    </g>
</svg>
