<svg xmlns="http://www.w3.org/2000/svg" width="20" height="20" viewBox="0 0 20 20">
    <g fill="none" fill-rule="evenodd">
        <g>
            <g>
                <path fill="#FFF" d="M0 0H20V20H0z" opacity=".007" transform="translate(-417 -134) translate(417 134)"/>
                <path fill="#B99515" fill-rule="nonzero" d="M10 10c-2.2 0-4-1.8-4-4V4c0-2.2 1.8-4 4-4s4 1.8 4 4v2c0 2.2-1.8 4-4 4z" transform="translate(-417 -134) translate(417 134)"/>
                <path fill="#444" fill-rule="nonzero" d="M18 20H2c-.6 0-1-.4-1-1v-1c0-3.3 2.7-6 6-6h6c3.3 0 6 2.7 6 6v1c0 .6-.4 1-1 1zM3 18h14c0-2.2-1.8-4-4-4H7c-2.2 0-4 1.8-4 4z" transform="translate(-417 -134) translate(417 134)"/>
            </g>
        </g>
    </g>
</svg>
