<svg xmlns="http://www.w3.org/2000/svg" width="20" height="20" viewBox="0 0 20 20">
    <g fill="none" fill-rule="evenodd">
        <g>
            <g>
                <path fill="#FFF" d="M0 0H20V20H0z" opacity=".007" transform="translate(-367 -234) translate(367 234)"/>
                <path fill="#444" fill-rule="nonzero" d="M8 15c-3.9 0-7-3.1-7-7s3.1-7 7-7 7 3.1 7 7-3.1 7-7 7zM8 3C5.2 3 3 5.2 3 8s2.2 5 5 5 5-2.2 5-5-2.2-5-5-5z" transform="translate(-367 -234) translate(367 234)"/>
                <path fill="#B99515" fill-rule="nonzero" d="M17.3 18.7l-3-3c-.4-.4-.4-1 0-1.4.4-.4 1-.4 1.4 0l3 3c.4.4.4 1 0 1.4-.4.4-1 .4-1.4 0z" transform="translate(-367 -234) translate(367 234)"/>
            </g>
        </g>
    </g>
</svg>
