<svg xmlns="http://www.w3.org/2000/svg" width="20" height="20" viewBox="0 0 20 20">
    <g fill="none" fill-rule="evenodd">
        <g>
            <g>
                <path fill="#FFF" d="M0 0H20V20H0z" opacity=".007" transform="translate(-717 -134) translate(717 134)"/>
                <path fill="#444" fill-rule="nonzero" d="M19 19H1c-.6 0-1-.4-1-1v-5h2v4h16v-4h2v5c0 .6-.4 1-1 1z" transform="translate(-717 -134) translate(717 134)"/>
                <path fill="#B99515" fill-rule="nonzero" d="M15.7 7.3c-.4-.4-1-.4-1.4 0L11 10.6V2c0-.6-.4-1-1-1s-1 .4-1 1v8.6L5.7 7.3c-.4-.4-1-.4-1.4 0-.4.4-.4 1 0 1.4l5 5c.4.4 1 .4 1.4 0l5-5c.4-.4.4-1 0-1.4z" transform="translate(-717 -134) translate(717 134)"/>
            </g>
        </g>
    </g>
</svg>
