<svg xmlns="http://www.w3.org/2000/svg" width="90" height="90" viewBox="0 0 90 90">
    <g fill="none" fill-rule="evenodd">
        <g>
            <g>
                <g fill-rule="nonzero">
                    <path fill="#20201D" d="M15.614 70.38c-.22 0-.43-.07-.62-.21-.43-.34-.51-.97-.17-1.4l2.45-3.12c.22-.29.58-.43.94-.37 1.3.21 2.59-.18 3.55-1.07l.87-.78c.41-.37 1.04-.34 1.41.07.37.41.34 1.04-.07 1.41l-.86.78c-1.25 1.16-2.91 1.74-4.61 1.63L16.394 70c-.19.25-.49.38-.78.38zM58.594 70.38c-.3 0-.59-.13-.79-.38l-2.1-2.68c-1.69.12-3.36-.47-4.62-1.64l-.85-.77c-.41-.37-.44-1-.07-1.41.37-.41 1-.44 1.41-.07l.86.78c.97.89 2.26 1.28 3.56 1.08.36-.06.72.08.94.37l2.45 3.12c.34.43.27 1.06-.17 1.4-.18.13-.4.2-.62.2zM4.394 62.81c-.17 0-.35-.04-.5-.14-.48-.28-.64-.89-.36-1.37l.54-.93-.62-5.4c-.32-2.74.32-5.19 1.88-7.3l3.86-6.17c.29-.47.91-.61 1.38-.32.47.29.61.91.32 1.38l-3.9 6.24c-1.29 1.75-1.8 3.74-1.54 5.95l.66 5.73c.02.21-.02.43-.13.62l-.71 1.22c-.2.31-.54.49-.88.49zM69.814 62.81c-.34 0-.68-.18-.86-.5l-.71-1.22c-.11-.19-.15-.4-.13-.62l.66-5.73c.26-2.22-.25-4.2-1.5-5.89l-3.95-6.3c-.29-.47-.15-1.09.32-1.38.47-.29 1.08-.15 1.38.32l3.9 6.24c1.52 2.05 2.15 4.5 1.83 7.24l-.62 5.4.55.93c.28.48.12 1.09-.36 1.37-.16.1-.34.14-.51.14zM47.314 16.33h-.06c-.55-.03-.97-.51-.94-1.06.35-5.94-2.31-6.32-2.42-6.34-.48-.06-.88-.45-.91-.93l-.14-2.22c-.03-.55.38-1.03.94-1.06.56-.04 1.03.38 1.06.94l.09 1.51c1.35.53 3.72 2.31 3.37 8.23-.02.52-.46.93-.99.93z" transform="translate(-435 -591) translate(435 591) translate(7 8)"/>
                    <path fill="#B99515" d="M36.894 39.42c-.14 0-.28-.03-.41-.09-.01 0-.01-.01-.02-.01l-23.05-9.88c-.51-.22-.74-.81-.52-1.31 2.56-5.98 7.23-10.75 13.14-13.45.5-.23 1.1-.01 1.32.49.23.5.01 1.1-.49 1.32-5.16 2.35-9.29 6.41-11.72 11.51l21.76 9.33 21.93-8.77c-2.47-5.54-6.88-9.89-12.49-12.29-2.3-.99-4.72-1.61-7.19-1.85-.55-.05-.95-.54-.9-1.09.05-.55.54-.95 1.09-.9 2.68.26 5.3.93 7.79 2 6.41 2.75 11.36 7.83 13.95 14.31.2.51-.04 1.09-.56 1.3l-23.26 9.3c-.12.05-.24.08-.37.08z" transform="translate(-435 -591) translate(435 591) translate(7 8)"/>
                    <path fill="#20201D" d="M35.764 30.3c-.64 0-1.26-.22-1.78-.63l-6.24-5.05c-1.48-1.29-2.33-3.12-2.34-5.05-.02-2.51.43-6.29.87-9.95l.26-2.23c.15-1.34-.03-1.59-.21-1.84-.1-.14-.19-.27-.27-.42-.25-.49-.06-1.09.43-1.35s1.09-.06 1.35.43c.03.06.07.11.11.16.44.59.81 1.29.58 3.25l-.26 2.24c-.41 3.43-.87 7.31-.85 9.69.01 1.36.61 2.65 1.63 3.54l6.22 5.03c.32.26.66.19.79.14.13-.04.44-.19.54-.59l.07-.3c.05-.19.08-.4.09-.63.04-.73-.14-1.44-.53-2.04l-3.88-4.46c-.25-.29-.31-.69-.17-1.04l1.01-2.47c.12-.3.38-.52.7-.6 2.94-.68 4.54-2.31 5.03-5.14.09-.54.61-.91 1.15-.82.54.09.91.61.82 1.15-.59 3.45-2.62 5.67-6.04 6.62l-.59 1.43 3.52 4.05c.03.03.05.07.08.1.64.97.96 2.15.9 3.31-.02.35-.07.69-.14 1l-.07.3c-.23.95-.92 1.7-1.85 2.01-.32.12-.62.16-.93.16z" transform="translate(-435 -591) translate(435 591) translate(7 8)"/>
                    <path fill="#20201D" d="M25.964 5.71c-.27 0-.52-.11-.71-.29-.19-.18-.29-.44-.29-.71V1c0-.55.45-1 1-1s1 .45 1 1v2.71h17.25v-2.7c0-.55.45-1 1-1s1 .45 1 1v3.7c0 .55-.45 1-1 1h-19.25z" transform="translate(-435 -591) translate(435 591) translate(7 8)"/>
                    <path fill="#B99515" d="M35.254 67.93c-3.54 0-6.99-.71-10.26-2.12-3.47-1.49-6.5-3.64-9.02-6.42-.37-.41-.34-1.04.07-1.41.41-.37 1.04-.34 1.41.07 2.32 2.56 5.13 4.55 8.33 5.92 2.73 1.17 5.59 1.82 8.52 1.93V42.51l-21.54-9.23c-1.59 4.18-1.99 8.67-1.15 13.07.1.54-.25 1.07-.79 1.17-.54.1-1.07-.25-1.17-.79-.98-5.11-.41-10.35 1.65-15.16.22-.51.81-.74 1.31-.52l23.08 9.9c.37.16.61.52.61.92v25.07c0 .56-.47 1-1.05.99z" transform="translate(-435 -591) translate(435 591) translate(7 8)"/>
                    <path fill="#20201D" d="M16.004 61.39c-.16 0-.32-.04-.47-.12-.49-.26-.67-.86-.42-1.35 2.25-4.24-.43-9.53-.46-9.58-.16-.31-.15-.68.03-.98l2.81-4.63c.43-.71.49-1.9.17-3.12-.09-.33-.33-.56-.66-.63-.15-.03-.52-.06-.81.3l-5.01 6.71c-.33.44-.96.53-1.4.2-.44-.33-.53-.96-.2-1.4l5.02-6.73c.68-.87 1.75-1.25 2.8-1.04 1.07.22 1.91 1.01 2.19 2.07.48 1.78.33 3.48-.39 4.67l-2.53 4.17c.71 1.6 2.52 6.56.21 10.92-.17.35-.52.54-.88.54zM15.524 73.8c-.2 0-.4-.06-.58-.19-.45-.32-.55-.94-.23-1.4l.89-1.25-12.82-8.46-.97 1.37c-.32.45-.94.56-1.39.24-.45-.32-.56-.94-.24-1.39l1.53-2.16c.31-.44.92-.55 1.37-.26l14.49 9.57c.23.15.38.38.43.65.05.27-.01.54-.17.76l-1.49 2.1c-.2.27-.5.42-.82.42z" transform="translate(-435 -591) translate(435 591) translate(7 8)"/>
                    <path fill="#B99515" d="M38.954 67.93c-.56 0-1.05-.43-1.05-1V41.86c0-.4.24-.76.61-.92l23.08-9.9c.51-.22 1.1.02 1.31.52 2.06 4.8 2.63 10.04 1.65 15.16-.1.54-.62.9-1.17.79-.54-.1-.9-.63-.79-1.17.84-4.39.44-8.89-1.15-13.07l-21.54 9.23v23.39c2.93-.12 5.79-.76 8.52-1.93 3.2-1.37 6-3.36 8.33-5.92.37-.41 1-.44 1.41-.07.41.37.44 1 .07 1.41-2.52 2.77-5.55 4.93-9.02 6.42-3.27 1.42-6.72 2.13-10.26 2.13z" transform="translate(-435 -591) translate(435 591) translate(7 8)"/>
                    <path fill="#20201D" d="M58.204 61.39c-.36 0-.71-.19-.88-.53-2.31-4.36-.5-9.32.21-10.92l-2.53-4.17c-.72-1.19-.87-2.9-.39-4.67.28-1.06 1.12-1.85 2.19-2.07 1.05-.21 2.11.17 2.78 1.02l4.78 5.86c.35.43.28 1.06-.14 1.41-.43.35-1.06.29-1.41-.14l-4.79-5.88c-.29-.37-.67-.34-.82-.31-.33.07-.57.3-.66.63-.33 1.22-.26 2.41.17 3.12l2.81 4.63c.18.3.19.67.03.98-.03.05-2.71 5.34-.46 9.58.26.49.07 1.09-.42 1.35-.15.08-.31.11-.47.11zM58.594 74.03c-.34 0-.67-.17-.86-.48l-1.41-2.33c-.28-.46-.14-1.06.31-1.35l14.49-9.57c.23-.15.51-.2.77-.14.27.06.5.23.64.46l1.45 2.4c.29.47.13 1.09-.34 1.37-.47.28-1.09.13-1.37-.34l-.91-1.51L58.544 71l.91 1.51c.29.47.13 1.09-.34 1.37-.16.11-.34.15-.52.15z" transform="translate(-435 -591) translate(435 591) translate(7 8)"/>
                </g>
                <path fill="#FFF" d="M0 0H90V90H0z" opacity=".01" transform="translate(-435 -591) translate(435 591)"/>
            </g>
        </g>
    </g>
</svg>
