<svg xmlns="http://www.w3.org/2000/svg" width="90" height="90" viewBox="0 0 90 90">
    <g fill="none" fill-rule="evenodd">
        <g>
            <g>
                <g fill-rule="nonzero">
                    <g>
                        <g fill="#20201D">
                            <path d="M22.05 8.86H1.63c-.55 0-1-.45-1-1V1.28c0-.55.45-1 1-1s1 .45 1 1v5.58h18.42V1.28c0-.55.45-1 1-1s1 .45 1 1v6.58c0 .55-.45 1-1 1zM35.25 34.4c-.21 0-.42-.07-.6-.2-.44-.33-.53-.96-.2-1.4l2.27-3.03-3.11-6.53c-.24-.5-.03-1.1.47-1.33.5-.24 1.1-.03 1.33.47l3.37 7.08c.16.34.12.73-.1 1.03L36.05 34c-.2.27-.5.4-.8.4z" transform="translate(-435 -711) translate(435 711) translate(7 12)"/>
                            <path d="M37.44 29.4c-.16 0-.32-.04-.46-.11-.49-.26-.68-.86-.42-1.35l1.57-2.99-2.88-4.36c-.3-.46-.18-1.08.28-1.39.46-.3 1.08-.18 1.39.28l3.2 4.86c.2.3.22.69.05 1.02l-1.84 3.51c-.18.34-.53.53-.89.53zM31.03 44.15c-.49 0-.94-.2-1.28-.57-1.43-1.56-.64-6.78-.14-9.4-.73-.93-2.71-3.41-3.59-4.29-3.28-2.78-7.85-2.23-10.75-.91-1.85.85-2.46 1.75-2.46 1.96 1.46 3.96 1.67 7.06.66 9.22-.78 1.67-2.11 2.35-2.83 2.6-.26.09-.54.07-.79-.05-.24-.13-.43-.35-.5-.61-1.01-3.47-4.26-8.67-4.88-9.36-6.43-8.53-1.83-24.38-1.63-25.05.16-.53.71-.83 1.24-.67.53.16.83.71.67 1.24-.05.15-4.51 15.55 1.26 23.21.74.82 3.52 5.3 4.86 8.89.29-.25.57-.59.79-1.05.54-1.14.85-3.4-.72-7.68-.2-.49-.46-1.87 1.72-3.45 3.14-2.28 9.99-3.78 14.71.23 1.23 1.23 3.98 4.74 4.09 4.89.18.23.25.53.19.81-.64 3.13-.88 6.31-.63 7.59 1.59-2.07 3.25-5.81 3.61-6.89-.76-2.23-3.29-9.36-3.32-9.44-.19-.52.09-1.09.61-1.28.52-.18 1.09.09 1.28.61.11.32 2.82 7.93 3.43 9.76.06.16.07.34.03.51-.21 1.05-2.63 6.65-4.84 8.85-.16.16-.37.26-.6.29-.06.04-.13.04-.19.04z" transform="translate(-435 -711) translate(435 711) translate(7 12)"/>
                            <path d="M38.85 24.92c-.06 0-.12-.01-.19-.02-.54-.1-.9-.63-.8-1.17l.92-4.83-5.96-3.42-1.18-.55c-.87-.28-8.98-2.93-12.03-6.32-.37-.41-.33-1.04.08-1.41.41-.37 1.04-.33 1.41.08 2.79 3.1 11.12 5.75 11.2 5.77.04.01.08.03.12.05l1.32.61 6.66 3.81c.37.21.56.63.49 1.05l-1.05 5.53c-.1.49-.52.82-.99.82z" transform="translate(-435 -711) translate(435 711) translate(7 12)"/>
                        </g>
                        <path fill="#B99515" d="M20.83 54.09c-4.9 0-8.89-3.99-8.89-8.89s3.99-8.89 8.89-8.89 8.89 3.99 8.89 8.89-3.99 8.89-8.89 8.89zm0-15.78c-3.8 0-6.89 3.09-6.89 6.89s3.09 6.89 6.89 6.89 6.89-3.09 6.89-6.89-3.09-6.89-6.89-6.89z" transform="translate(-435 -711) translate(435 711) translate(7 12)"/>
                    </g>
                    <g fill="#DF3219">
                        <g>
                            <path d="M11.38 35.75c-.55 0-1-.45-1-1v-17c0-.55.45-1 1-1s1 .45 1 1v17c0 .56-.45 1-1 1zM5.38 30.75c-.55 0-1-.45-1-1v-1c0-.55.45-1 1-1s1 .45 1 1v1c0 .56-.45 1-1 1z" transform="translate(-435 -711) translate(435 711) translate(7 12) translate(34 1) translate(8)"/>
                            <path d="M5.38 25.75c-.55 0-1-.45-1-1v-6h-3c-.39 0-.75-.23-.91-.59-.16-.36-.1-.78.16-1.07l7-8c.38-.44 1.12-.44 1.5 0l7 8c.26.29.32.71.16 1.07-.16.36-.52.59-.91.59h-5c-.55 0-1-.45-1-1s.45-1 1-1h2.8l-4.8-5.48-4.8 5.48h1.8c.55 0 1 .45 1 1v7c0 .56-.45 1-1 1zM27.38 40.75c-.55 0-1-.45-1-1v-30c0-.55.45-1 1-1s1 .45 1 1v30c0 .56-.45 1-1 1zM21.38 27.75c-.55 0-1-.45-1-1v-1c0-.55.45-1 1-1s1 .45 1 1v1c0 .56-.45 1-1 1zM21.38 32.75c-.55 0-1-.45-1-1v-1c0-.55.45-1 1-1s1 .45 1 1v1c0 .56-.45 1-1 1zM21.38 22.75c-.55 0-1-.45-1-1v-1c0-.55.45-1 1-1s1 .45 1 1v1c0 .56-.45 1-1 1z" transform="translate(-435 -711) translate(435 711) translate(7 12) translate(34 1) translate(8)"/>
                            <path d="M21.38 17.75c-.55 0-1-.45-1-1v-6h-3c-.39 0-.75-.23-.91-.59-.16-.36-.1-.78.16-1.07l7-8c.38-.44 1.12-.44 1.5 0l7 8c.26.29.32.71.16 1.07-.16.36-.52.59-.91.59h-5c-.55 0-1-.45-1-1s.45-1 1-1h2.8l-4.8-5.48-4.8 5.48h1.8c.55 0 1 .45 1 1v7c0 .56-.45 1-1 1z" transform="translate(-435 -711) translate(435 711) translate(7 12) translate(34 1) translate(8)"/>
                        </g>
                        <g>
                            <g>
                                <g>
                                    <path d="M11 9.95C5.93 9.95.47 8.62.47 5.69c0-.55.45-1 1-1s1 .45 1 1c0 .66 2.99 2.26 8.53 2.26 5.54 0 8.53-1.6 8.53-2.26 0-.55.45-1 1-1s1 .45 1 1c0 2.93-5.46 4.26-10.53 4.26z" transform="translate(-435 -711) translate(435 711) translate(7 12) translate(34 1) translate(0 44) translate(19) translate(0 11)"/>
                                    <path d="M11 5.98C5.93 5.98.47 4.65.47 1.72c0-.55.45-1 1-1s1 .45 1 1c0 .66 2.99 2.26 8.53 2.26 5.54 0 8.53-1.6 8.53-2.26 0-.55.45-1 1-1s1 .45 1 1c0 2.92-5.46 4.26-10.53 4.26z" transform="translate(-435 -711) translate(435 711) translate(7 12) translate(34 1) translate(0 44) translate(19) translate(0 11)"/>
                                    <path d="M11 10.05C5.93 10.05.47 8.72.47 5.79V1.71c0-.55.45-1 1-1s1 .45 1 1v4.08c0 .66 2.99 2.26 8.53 2.26 5.54 0 8.53-1.6 8.53-2.26V1.71c0-.55.45-1 1-1s1 .45 1 1v4.08c0 2.93-5.46 4.26-10.53 4.26z" transform="translate(-435 -711) translate(435 711) translate(7 12) translate(34 1) translate(0 44) translate(19) translate(0 11)"/>
                                </g>
                                <g>
                                    <path d="M11 5.94C5.93 5.94.47 4.61.47 1.68c0-.55.45-1 1-1s1 .45 1 1c0 .66 2.99 2.26 8.53 2.26 5.54 0 8.53-1.6 8.53-2.26 0-.55.45-1 1-1s1 .45 1 1c0 2.93-5.46 4.26-10.53 4.26z" transform="translate(-435 -711) translate(435 711) translate(7 12) translate(34 1) translate(0 44) translate(19) translate(0 7)"/>
                                    <path d="M11 10.02C5.93 10.02.47 8.69.47 5.76V1.68c0-.55.45-1 1-1s1 .45 1 1v4.08c0 .66 2.99 2.26 8.53 2.26 5.54 0 8.53-1.6 8.53-2.26V1.68c0-.55.45-1 1-1s1 .45 1 1v4.08c0 2.92-5.46 4.26-10.53 4.26z" transform="translate(-435 -711) translate(435 711) translate(7 12) translate(34 1) translate(0 44) translate(19) translate(0 7)"/>
                                </g>
                                <path d="M11 8.97C5.93 8.97.47 7.64.47 4.71.47 1.78 5.93.45 11 .45c5.07 0 10.53 1.33 10.53 4.26 0 2.93-5.46 4.26-10.53 4.26zm0-6.52c-5.54 0-8.53 1.6-8.53 2.26 0 .66 2.99 2.26 8.53 2.26 5.54 0 8.53-1.6 8.53-2.26 0-.66-2.99-2.26-8.53-2.26z" transform="translate(-435 -711) translate(435 711) translate(7 12) translate(34 1) translate(0 44) translate(19)"/>
                                <path d="M11 13.04C5.93 13.04.47 11.71.47 8.78V4.71c0-.55.45-1 1-1s1 .45 1 1v4.07c0 .66 2.99 2.26 8.53 2.26 5.54 0 8.53-1.6 8.53-2.26V4.71c0-.55.45-1 1-1s1 .45 1 1v4.07c0 2.93-5.46 4.26-10.53 4.26z" transform="translate(-435 -711) translate(435 711) translate(7 12) translate(34 1) translate(0 44) translate(19)"/>
                            </g>
                            <g>
                                <path d="M10.94 13C5.87 13 .41 11.67.41 8.74c0-.55.45-1 1-1s1 .45 1 1C2.41 9.4 5.4 11 10.94 11c5.54 0 8.53-1.6 8.53-2.26 0-.55.45-1 1-1s1 .45 1 1c0 2.93-5.46 4.26-10.53 4.26z" transform="translate(-435 -711) translate(435 711) translate(7 12) translate(34 1) translate(0 44) translate(0 8)"/>
                                <path d="M10.94 9.03C5.87 9.03.41 7.7.41 4.77.41 1.84 5.87.51 10.94.51c5.07 0 10.53 1.33 10.53 4.26 0 2.93-5.46 4.26-10.53 4.26zm0-6.52c-5.54 0-8.53 1.6-8.53 2.26 0 .66 2.99 2.26 8.53 2.26 5.54 0 8.53-1.6 8.53-2.26 0-.66-2.99-2.26-8.53-2.26z" transform="translate(-435 -711) translate(435 711) translate(7 12) translate(34 1) translate(0 44) translate(0 8)"/>
                                <path d="M10.94 13.1C5.87 13.1.41 11.77.41 8.84V4.76c0-.55.45-1 1-1s1 .45 1 1v4.08c0 .66 2.99 2.26 8.53 2.26 5.54 0 8.53-1.6 8.53-2.26V4.76c0-.55.45-1 1-1s1 .45 1 1v4.08c0 2.93-5.46 4.26-10.53 4.26z" transform="translate(-435 -711) translate(435 711) translate(7 12) translate(34 1) translate(0 44) translate(0 8)"/>
                            </g>
                        </g>
                    </g>
                </g>
                <path fill="#FFF" d="M0 0H90V90H0z" opacity=".01" transform="translate(-435 -711) translate(435 711)"/>
            </g>
        </g>
    </g>
</svg>
