<svg xmlns="http://www.w3.org/2000/svg" width="90" height="90" viewBox="0 0 90 90">
    <g fill="none" fill-rule="evenodd">
        <g>
            <g>
                <g fill-rule="nonzero">
                    <path fill="#20201D" d="M62 34c-.55 0-1-.45-1-1V6H12.94v27c0 .55-.45 1-1 1s-1-.45-1-1V5c0-.55.45-1 1-1H62c.55 0 1 .45 1 1v28c0 .56-.45 1-1 1z" transform="translate(-315 -591) translate(315 591) translate(8 22)"/>
                    <path fill="#20201D" d="M67 39H6.94V3c0-1.65 1.35-3 3-3H64c1.65 0 3 1.35 3 3v36zM8.94 37H65V3c0-.55-.45-1-1-1H9.94c-.55 0-1 .45-1 1v34z" transform="translate(-315 -591) translate(315 591) translate(8 22)"/>
                    <path fill="#20201D" d="M67.18 46H6.82C3.06 46 0 42.94 0 39.18V37h74v2.18c0 3.76-3.06 6.82-6.82 6.82zM2 39v.18C2 41.84 4.16 44 6.82 44h60.35c2.66 0 4.82-2.16 4.82-4.82V39H2z" transform="translate(-315 -591) translate(315 591) translate(8 22)"/>
                    <g fill="#DF3219">
                        <path d="M15.27 18.05c-.1 0-.21-.01-.31-.02-2.34-.29-4.62-3.73-6.95-7.53-.22-.36-.42-.69-.6-.98-.33-.53-.24-1.22.23-1.69s1.16-.56 1.69-.22c.38.24.83.5 1.32.8 3.79 2.26 6.96 4.32 7.25 6.62.1.82-.17 1.59-.8 2.23-.55.53-1.16.79-1.83.79zm-4.84-7.44c1.38 2.21 3.46 5.27 4.77 5.43.11.01.25.01.45-.18.26-.26.27-.43.25-.58-.17-1.34-3.27-3.34-5.47-4.67z" transform="translate(-315 -591) translate(315 591) translate(8 22) translate(22 17)"/>
                        <path d="M28.1 15.93c-.55 0-1-.45-1-1 0-6.81-5.54-12.34-12.35-12.34S2.4 8.13 2.4 14.93c0 .55-.45 1-1 1s-1-.45-1-1C.4 7.02 6.84.59 14.75.59c7.91 0 14.35 6.44 14.35 14.34 0 .55-.45 1-1 1z" transform="translate(-315 -591) translate(315 591) translate(8 22) translate(22 17)"/>
                        <path d="M5.93 15.93c-.55 0-1-.45-1-1 0-1.01.15-2 .45-2.95.17-.53.73-.82 1.25-.65.53.17.82.73.65 1.25-.24.76-.36 1.55-.36 2.35.01.55-.44 1-.99 1zM23.57 15.93c-.55 0-1-.45-1-1 0-4.31-3.51-7.82-7.82-7.82-.65 0-1.3.08-1.93.24-.53.13-1.08-.19-1.21-.72-.14-.54.19-1.08.72-1.21.79-.2 1.6-.3 2.42-.3 5.42 0 9.82 4.41 9.82 9.82 0 .54-.45.99-1 .99z" transform="translate(-315 -591) translate(315 591) translate(8 22) translate(22 17)"/>
                    </g>
                    <path fill="#20201D" d="M27 12h-9c-.55 0-1-.45-1-1s.45-1 1-1h9c.55 0 1 .45 1 1 0 .56-.45 1-1 1zM31 16H18c-.55 0-1-.45-1-1s.45-1 1-1h13c.55 0 1 .45 1 1 0 .56-.45 1-1 1zM24 20h-6c-.55 0-1-.45-1-1s.45-1 1-1h6c.55 0 1 .45 1 1 0 .56-.45 1-1 1z" transform="translate(-315 -591) translate(315 591) translate(8 22)"/>
                    <g fill="#20201D">
                        <path d="M9 2H1c-.55 0-1-.45-1-1s.45-1 1-1h8c.55 0 1 .45 1 1 0 .56-.45 1-1 1zM9 6H1c-.55 0-1-.45-1-1s.45-1 1-1h8c.55 0 1 .45 1 1 0 .56-.45 1-1 1z" transform="translate(-315 -591) translate(315 591) translate(8 22) translate(48 10)"/>
                    </g>
                    <path fill="#20201D" d="M57 20h-3c-.55 0-1-.45-1-1s.45-1 1-1h3c.55 0 1 .45 1 1 0 .56-.45 1-1 1z" transform="translate(-315 -591) translate(315 591) translate(8 22)"/>
                </g>
                <path fill="#FFF" d="M0 0H90V90H0z" opacity=".01" transform="translate(-315 -591) translate(315 591)"/>
            </g>
        </g>
    </g>
</svg>
