<svg xmlns="http://www.w3.org/2000/svg" width="90" height="90" viewBox="0 0 90 90">
    <g fill="none" fill-rule="evenodd">
        <g>
            <g>
                <g fill-rule="nonzero">
                    <g fill="#20201D">
                        <g>
                            <path d="M5.61 9.68c-.55 0-1-.45-1-1v-3c0-.55.45-1 1-1s1 .45 1 1v3c0 .55-.44 1-1 1zM19.61 20.68h-14c-.55 0-1-.45-1-1v-4c0-.55.45-1 1-1s1 .45 1 1v3h12v-15c0-.55-.45-1-1-1h-2c-.55 0-1-.45-1-1s.45-1 1-1h2c1.65 0 3 1.35 3 3v16c0 .55-.44 1-1 1z" transform="translate(-555 -471) translate(555 471) translate(12 8) translate(0 26)"/>
                            <path d="M15.61 6.68h-14c-.55 0-1-.45-1-1v-2c0-1.65 1.35-3 3-3h14c.55 0 1 .45 1 1s-.45 1-1 1-1 .45-1 1v2c0 .55-.44 1-1 1zm-13-2h12v-1c0-.35.06-.69.17-1H3.61c-.55 0-1 .45-1 1v1zM6.46 16.68H4.77c-1.19 0-2.15-.97-2.15-2.15v-3.69c0-1.19.97-2.15 2.15-2.15h1.69c1.19 0 2.15.97 2.15 2.15v3.69c0 1.18-.96 2.15-2.15 2.15zm-1.69-6c-.08 0-.15.07-.15.15v3.69c0 .08.07.15.15.15h1.69c.08 0 .15-.07.15-.15v-3.69c0-.08-.07-.15-.15-.15H4.77z" transform="translate(-555 -471) translate(555 471) translate(12 8) translate(0 26)"/>
                        </g>
                        <g>
                            <path d="M15 16c-4.19 0-7-3.21-7-8s2.81-8 7-8c4.19 0 7 3.21 7 8 0 4.78-2.81 8-7 8zm0-14c-3.69 0-5 3.23-5 6s1.31 6 5 6 5-3.23 5-6-1.31-6-5-6zM24 74c-.55 0-1-.45-1-1V51c0-.55.45-1 1-1s1 .45 1 1v22c0 .55-.45 1-1 1zM18 74c-.51 0-.95-.39-1-.91L15.08 51h-.17L13 73.09c-.05.55-.53.97-1.08.91-.55-.05-.96-.53-.91-1.08l2-23c.04-.52.48-.91 1-.91h2c.52 0 .95.4 1 .91l2 23c.05.55-.36 1.03-.91 1.08H18zM6 74c-.55 0-1-.45-1-1l.03-27.28c0-.55.45-1 1-1s1 .45 1 1L7 73c0 .55-.45 1-1 1zM15 32c-.38 0-.72-.21-.89-.55L8.4 20.03c-3.6.3-6.39 3.29-6.39 6.91 0 .55-.45 1-1 1s-1-.45-1-1c0-4.93 4.01-8.93 8.93-8.93.38 0 .79.21.96.55l5.1 10.2 5.11-10.21c.17-.34.52-.55.89-.55 3.04 0 5.81 1.47 7.47 3.94.31.46.19 1.08-.27 1.39-.46.31-1.08.19-1.39-.27-1.19-1.76-3.11-2.87-5.21-3.04l-5.71 11.43c-.17.34-.51.55-.89.55z" transform="translate(-555 -471) translate(555 471) translate(12 8) translate(11)"/>
                            <path d="M16 20h-2c-.55 0-1-.45-1-1s.45-1 1-1h2c.55 0 1 .45 1 1s-.45 1-1 1z" transform="translate(-555 -471) translate(555 471) translate(12 8) translate(11)"/>
                            <path d="M15 31c-.55 0-1-.45-1-1V19c0-.55.45-1 1-1s1 .45 1 1v11c0 .55-.45 1-1 1z" transform="translate(-555 -471) translate(555 471) translate(12 8) translate(11)"/>
                        </g>
                    </g>
                    <g fill="#DF3219">
                        <path d="M12.67 24.28c-.2 0-.41-.06-.58-.19l-6.36-4.55c-.45-.32-.55-.95-.23-1.4.32-.45.95-.55 1.39-.23l5.68 4.05 9.08-9.05c.36-.35.91-.39 1.31-.09l6.42 4.88 4.3-5.18c.35-.42.98-.48 1.41-.13.42.35.48.98.13 1.41l-4.91 5.92c-.34.41-.95.48-1.37.16l-6.49-4.93-9.06 9.03c-.21.2-.46.3-.72.3z" transform="translate(-555 -471) translate(555 471) translate(12 8) translate(31 23)"/>
                        <path d="M34.45 17.76c-.55 0-1-.45-1-1v-2.6h-2.6c-.55 0-1-.45-1-1s.45-1 1-1h3.6c.55 0 1 .45 1 1v3.6c0 .56-.45 1-1 1zM14.2 29.14c-2.36 0-4.69-.59-6.76-1.7-.49-.26-.67-.87-.41-1.35.26-.49.87-.67 1.35-.41 1.77.96 3.78 1.46 5.81 1.46 6.75 0 12.25-5.49 12.25-12.25 0-5.32-3.4-10-8.45-11.65-.53-.17-.81-.73-.64-1.26.17-.52.74-.81 1.26-.64 5.88 1.91 9.83 7.36 9.83 13.55.01 7.86-6.39 14.25-14.24 14.25z" transform="translate(-555 -471) translate(555 471) translate(12 8) translate(31 23)"/>
                        <path d="M5.36 25.46c-.25 0-.5-.09-.69-.27-.01-.01-.14-.12-.15-.13C1.73 22.35.19 18.72.19 14.83.19 6.97 6.58.57 14.44.57h.11c.52.04.94.48.94 1v13.76c0 .26-.11.52-.29.7l-9.13 9.13c-.2.2-.45.3-.71.3zM13.5 2.59C7.22 3.06 2.2 8.36 2.2 14.82c0 3.07 1.12 5.96 3.17 8.22l8.13-8.16V2.59z" transform="translate(-555 -471) translate(555 471) translate(12 8) translate(31 23)"/>
                    </g>
                </g>
                <path fill="#FFF" d="M0 0H90V90H0z" opacity=".01" transform="translate(-555 -471) translate(555 471)"/>
            </g>
        </g>
    </g>
</svg>
