<svg xmlns="http://www.w3.org/2000/svg" width="90" height="90" viewBox="0 0 90 90">
    <g fill="none" fill-rule="evenodd">
        <g>
            <g>
                <g fill-rule="nonzero">
                    <path fill="#20201D" d="M63 53H45c-.55 0-1-.45-1-1s.45-1 1-1h18c.55 0 1-.45 1-1V10c0-.55-.45-1-1-1H3c-.55 0-1 .45-1 1v40c0 .55.45 1 1 1h18c.55 0 1 .45 1 1s-.45 1-1 1H3c-1.65 0-3-1.35-3-3V10c0-1.65 1.35-3 3-3h60c1.65 0 3 1.35 3 3v40c0 1.66-1.35 3-3 3z" transform="translate(-675 -831) translate(675 831) translate(9 11)"/>
                    <path fill="#20201D" d="M1 19c-.55 0-1-.45-1-1s.45-1 1-1c4.96 0 9-4.04 9-9 0-.55.45-1 1-1s1 .45 1 1c0 6.07-4.93 11-11 11zM11 53c-.55 0-1-.45-1-1 0-4.96-4.04-9-9-9-.55 0-1-.45-1-1s.45-1 1-1c6.07 0 11 4.93 11 11 0 .56-.45 1-1 1zM65 19c-6.07 0-11-4.93-11-11 0-.55.45-1 1-1s1 .45 1 1c0 4.96 4.04 9 9 9 .55 0 1 .45 1 1s-.45 1-1 1zM55 53c-.55 0-1-.45-1-1 0-6.07 4.93-11 11-11 .55 0 1 .45 1 1s-.45 1-1 1c-4.96 0-9 4.04-9 9 0 .56-.45 1-1 1zM40 17H26c-.55 0-1-.45-1-1s.45-1 1-1h14c.55 0 1 .45 1 1s-.45 1-1 1zM56 26H10c-.55 0-1-.45-1-1s.45-1 1-1h46c.55 0 1 .45 1 1s-.45 1-1 1zM55.92 32h-46c-.55 0-1-.45-1-1s.45-1 1-1h46c.55 0 1 .45 1 1s-.45 1-1 1zM56 38H10c-.55 0-1-.45-1-1s.45-1 1-1h46c.55 0 1 .45 1 1s-.45 1-1 1z" transform="translate(-675 -831) translate(675 831) translate(9 11)"/>
                    <g fill="#DF3219">
                        <g>
                            <path d="M12.27 20.07c-.64 0-1.23-.23-1.69-.62-.4.24-.87.38-1.36.38-.94 0-1.77-.5-2.23-1.25-.21.05-.43.08-.65.08-1.32 0-2.41-.97-2.59-2.24-1.14-.29-1.98-1.32-1.98-2.54 0-.31.06-.62.16-.91-.59-.48-.96-1.22-.96-2.02 0-.61.21-1.18.57-1.63-.25-.4-.39-.88-.39-1.37 0-1.04.61-1.94 1.49-2.36-.01-.09-.01-.18-.01-.28 0-1.44 1.17-2.62 2.62-2.62.39-.96 1.33-1.64 2.43-1.64.3 0 .59.05.87.15C9.03.57 9.79.16 10.63.16c.67 0 1.29.25 1.76.68.38-.2.8-.31 1.25-.31 1.16 0 2.14.75 2.49 1.8 1.44 0 2.61 1.18 2.61 2.62 0 .12-.01.23-.02.34.92.41 1.56 1.33 1.56 2.4 0 .42-.1.82-.28 1.18.51.48.83 1.16.83 1.91 0 .91-.47 1.71-1.17 2.18.07.24.11.5.11.76 0 1.24-.87 2.28-2.03 2.55-.08 1.37-1.22 2.47-2.61 2.47-.18 0-.36-.02-.53-.05-.46.82-1.33 1.38-2.33 1.38zm-1.56-3.21h.08c.43.03.78.33.89.75.07.27.32.46.6.46.34 0 .62-.28.62-.62 0-.05-.01-.09-.01-.14-.08-.45.15-.9.57-1.09.41-.19.91-.07 1.19.28.12.15.29.23.48.23.34 0 .62-.28.62-.62 0-.13-.04-.25-.12-.35-.19-.26-.24-.59-.14-.89.1-.3.33-.54.63-.64.25-.08.52-.07.75.05.39.19.89-.12.89-.56 0-.2-.1-.39-.27-.51-.38-.26-.53-.74-.38-1.17.16-.43.59-.69 1.04-.65.39 0 .66-.28.66-.62 0-.32-.25-.59-.57-.62-.52-.04-.92-.48-.92-1 0-.39.23-.75.58-.91.22-.1.36-.32.36-.56 0-.34-.28-.62-.62-.62-.05 0-.11.01-.17.03-.41.1-.84-.06-1.08-.42-.27-.4-.21-.94.13-1.28.09-.09.2-.24.2-.46 0-.47-.59-.78-.98-.51-.35.25-.82.24-1.16-.01-.35-.25-.5-.69-.37-1.1.02-.06.03-.12.03-.18 0-.34-.28-.62-.62-.62-.23 0-.44.13-.55.33-.19.37-.59.58-1 .53-.41-.05-.75-.35-.85-.75-.07-.28-.31-.47-.6-.47-.34 0-.61.27-.62.61-.01.43-.29.81-.71.94-.41.13-.86-.03-1.11-.38-.12-.17-.31-.27-.51-.27-.34 0-.62.28-.62.62 0 .03.01.07.01.1.06.39-.11.77-.43.99-.32.22-.74.23-1.08.02-.39-.24-.94.08-.94.53 0 .19.08.32.15.4.27.32.31.77.1 1.13-.21.36-.61.56-1.02.5h-.01c-.41 0-.68.27-.68.61 0 .24.14.46.36.56.37.17.6.56.57.97-.03.41-.3.76-.68.89-.21.07-.43.28-.43.59 0 .32.25.59.57.62.42.04.77.33.88.73.11.4-.04.83-.38 1.08-.16.12-.26.3-.26.5 0 .4.37.71.79.59.37-.11.76 0 1.02.29.26.28.33.69.19 1.04-.03.08-.05.16-.05.23 0 .34.28.62.62.62.19 0 .37-.09.48-.23.27-.34.74-.47 1.15-.31.41.16.67.57.63 1.01-.01.42.27.7.61.7.25 0 .47-.15.57-.37.16-.37.52-.6.92-.6z" transform="translate(-675 -831) translate(675 831) translate(9 11) translate(22 41)"/>
                            <path d="M10.9 15.67c-3.06 0-5.54-2.49-5.54-5.54 0-3.06 2.49-5.54 5.54-5.54 3.06 0 5.54 2.49 5.54 5.54s-2.49 5.54-5.54 5.54zm0-9.09c-1.95 0-3.54 1.59-3.54 3.54s1.59 3.54 3.54 3.54 3.54-1.59 3.54-3.54-1.59-3.54-3.54-3.54z" transform="translate(-675 -831) translate(675 831) translate(9 11) translate(22 41)"/>
                        </g>
                        <path d="M15 26.91c-.22 0-.44-.07-.62-.22l-3.18-2.54-3.18 2.54c-.3.24-.71.29-1.06.12-.35-.17-.57-.52-.57-.9V17.7c0-.55.45-1 1-1s1 .45 1 1v6.13l2.18-1.74c.37-.29.88-.29 1.25 0L14 23.83V17.7c0-.55.45-1 1-1s1 .45 1 1v8.21c0 .38-.22.73-.57.9-.14.07-.29.1-.43.1z" transform="translate(-675 -831) translate(675 831) translate(9 11) translate(22 41)"/>
                    </g>
                    <path fill="#20201D" d="M70 46h-1c-.55 0-1-.45-1-1s.45-1 1-1h1c.55 0 1-.45 1-1V3c0-.55-.45-1-1-1H10c-.55 0-1 .45-1 1v1c0 .55-.45 1-1 1s-1-.45-1-1V3c0-1.65 1.35-3 3-3h60c1.65 0 3 1.35 3 3v40c0 1.66-1.35 3-3 3z" transform="translate(-675 -831) translate(675 831) translate(9 11)"/>
                </g>
                <path fill="#FFF" d="M0 0H90V90H0z" opacity=".01" transform="translate(-675 -831) translate(675 831)"/>
            </g>
        </g>
    </g>
</svg>
