<svg xmlns="http://www.w3.org/2000/svg" width="90" height="90" viewBox="0 0 90 90">
    <g fill="none" fill-rule="evenodd">
        <g>
            <g>
                <g fill-rule="nonzero">
                    <g fill="#DF3219">
                        <g>
                            <path d="M12.48 18.71C6.54 18.71.52 17.09.52 13.99V9.34c0-.55.45-1 1-1s1 .45 1 1v4.65c0 .96 3.78 2.72 9.96 2.72 2.19 0 3.83-.14 5.32-.45.54-.11 1.07.23 1.18.78.11.54-.24 1.07-.78 1.18-1.62.34-3.38.49-5.72.49zM12.48 9.53C6.54 9.53.52 7.91.52 4.81.52 1.71 6.54.09 12.48.09c1.97 0 3.91.17 5.61.5.54.1.9.63.79 1.17-.1.54-.62.9-1.17.79-1.58-.31-3.39-.47-5.23-.47-6.18 0-9.96 1.76-9.96 2.72 0 .96 3.78 2.72 9.96 2.72 1.88 0 3.73-.17 5.34-.49.54-.12 1.07.24 1.17.79.11.54-.24 1.07-.79 1.17-1.73.36-3.71.54-5.72.54z" transform="translate(-675 -711) translate(675 711) translate(7 12) translate(9 13) translate(0 12)"/>
                            <path d="M12.48 14.18C6.54 14.18.52 12.56.52 9.46V4.81c0-.55.45-1 1-1s1 .45 1 1v4.65c0 .96 3.78 2.72 9.96 2.72 1.83 0 3.64-.16 5.22-.47.54-.11 1.07.25 1.17.79.11.54-.25 1.07-.79 1.17-1.7.33-3.63.51-5.6.51z" transform="translate(-675 -711) translate(675 711) translate(7 12) translate(9 13) translate(0 12)"/>
                            <g>
                                <path d="M7.43 18.71c-2.04 0-3.9-.18-5.69-.54-.54-.11-.89-.64-.78-1.18.11-.54.64-.89 1.18-.78 1.65.34 3.38.5 5.29.5 6.18 0 9.96-1.76 9.96-2.72V9.34c0-.55.45-1 1-1s1 .45 1 1v4.65c0 3.1-6.02 4.72-11.96 4.72zM7.43 9.53c-1.94 0-3.86-.17-5.55-.49-.54-.1-.9-.63-.79-1.17.1-.54.62-.9 1.17-.79 1.57.3 3.36.46 5.17.46 6.18 0 9.96-1.76 9.96-2.72 0-.96-3.78-2.72-9.96-2.72-1.95 0-3.68.15-5.27.47-.55.11-1.07-.24-1.18-.78-.11-.54.24-1.07.78-1.18C3.48.27 5.33.1 7.42.1c5.94 0 11.96 1.62 11.96 4.72.01 3.09-6.01 4.71-11.95 4.71z" transform="translate(-675 -711) translate(675 711) translate(7 12) translate(9 13) translate(0 12) translate(38)"/>
                                <path d="M7.43 14.18c-1.95 0-3.88-.17-5.58-.5-.54-.1-.9-.63-.79-1.17.1-.54.63-.89 1.17-.79 1.58.3 3.38.46 5.2.46 6.18 0 9.96-1.76 9.96-2.72V4.81c0-.55.45-1 1-1s1 .45 1 1v4.65c0 3.1-6.02 4.72-11.96 4.72z" transform="translate(-675 -711) translate(675 711) translate(7 12) translate(9 13) translate(0 12) translate(38)"/>
                            </g>
                        </g>
                        <g>
                            <g>
                                <path d="M11.96 6.48C6.02 6.48 0 4.82 0 1.64c0-.55.45-1 1-1s1 .45 1 1c0 .96 3.52 2.84 9.96 2.84 6.44 0 9.96-1.88 9.96-2.84 0-.55.45-1 1-1s1 .45 1 1c-.01 3.18-6.02 4.84-11.96 4.84z" transform="translate(-675 -711) translate(675 711) translate(7 12) translate(9 13) translate(17) translate(0 22)"/>
                                <path d="M11.96 11.28C6.02 11.28 0 9.62 0 6.44v-4.8c0-.55.45-1 1-1s1 .45 1 1v4.8c0 .96 3.52 2.84 9.96 2.84 6.44 0 9.96-1.88 9.96-2.84v-4.8c0-.55.45-1 1-1s1 .45 1 1v4.8c-.01 3.18-6.02 4.84-11.96 4.84z" transform="translate(-675 -711) translate(675 711) translate(7 12) translate(9 13) translate(17) translate(0 22)"/>
                            </g>
                            <g>
                                <g>
                                    <path d="M11.96 6.8C6.02 6.8 0 5.14 0 1.96c0-.55.45-1 1-1s1 .45 1 1c0 .96 3.52 2.84 9.96 2.84 6.44 0 9.96-1.88 9.96-2.84 0-.55.45-1 1-1s1 .45 1 1C23.91 5.13 17.9 6.8 11.96 6.8z" transform="translate(-675 -711) translate(675 711) translate(7 12) translate(9 13) translate(17) translate(0 13) translate(0 4)"/>
                                    <path d="M11.96 11.6C6.02 11.6 0 9.94 0 6.76v-4.8c0-.55.45-1 1-1s1 .45 1 1v4.8c0 .96 3.52 2.84 9.96 2.84 6.44 0 9.96-1.88 9.96-2.84v-4.8c0-.55.45-1 1-1s1 .45 1 1v4.8c-.01 3.17-6.02 4.84-11.96 4.84z" transform="translate(-675 -711) translate(675 711) translate(7 12) translate(9 13) translate(17) translate(0 13) translate(0 4)"/>
                                </g>
                                <path d="M11.96 6.12C6.02 6.12 0 4.46 0 1.28c0-.55.45-1 1-1s1 .45 1 1c0 .96 3.52 2.84 9.96 2.84 6.44 0 9.96-1.88 9.96-2.84 0-.55.45-1 1-1s1 .45 1 1c-.01 3.17-6.02 4.84-11.96 4.84z" transform="translate(-675 -711) translate(675 711) translate(7 12) translate(9 13) translate(17) translate(0 13)"/>
                                <path d="M11.96 10.92C6.02 10.92 0 9.26 0 6.08v-4.8c0-.55.45-1 1-1s1 .45 1 1v4.8c0 .96 3.52 2.84 9.96 2.84 6.44 0 9.96-1.88 9.96-2.84v-4.8c0-.55.45-1 1-1s1 .45 1 1v4.8c-.01 3.17-6.02 4.84-11.96 4.84z" transform="translate(-675 -711) translate(675 711) translate(7 12) translate(9 13) translate(17) translate(0 13)"/>
                            </g>
                            <g>
                                <path d="M11.96 6.37C6.02 6.37 0 4.71 0 1.53c0-.55.45-1 1-1s1 .45 1 1c0 .96 3.52 2.84 9.96 2.84 6.44 0 9.96-1.88 9.96-2.84 0-.55.45-1 1-1s1 .45 1 1c-.01 3.17-6.02 4.84-11.96 4.84z" transform="translate(-675 -711) translate(675 711) translate(7 12) translate(9 13) translate(17) translate(0 8)"/>
                                <path d="M11.96 11.17C6.02 11.17 0 9.51 0 6.33v-4.8c0-.55.45-1 1-1s1 .45 1 1v4.8c0 .96 3.52 2.84 9.96 2.84 6.44 0 9.96-1.88 9.96-2.84v-4.8c0-.55.45-1 1-1s1 .45 1 1v4.8c-.01 3.17-6.02 4.84-11.96 4.84z" transform="translate(-675 -711) translate(675 711) translate(7 12) translate(9 13) translate(17) translate(0 8)"/>
                            </g>
                            <path d="M11.96 9.68C6.02 9.68 0 8.02 0 4.84 0 1.66 6.02 0 11.96 0c5.94 0 11.96 1.66 11.96 4.84-.01 3.18-6.02 4.84-11.96 4.84zm0-7.68C5.52 2 2 3.88 2 4.84s3.52 2.84 9.96 2.84c6.44 0 9.96-1.88 9.96-2.84C21.91 3.88 18.4 2 11.96 2z" transform="translate(-675 -711) translate(675 711) translate(7 12) translate(9 13) translate(17)"/>
                            <path d="M11.96 14.49C6.02 14.49 0 12.83 0 9.65v-4.8c0-.55.45-1 1-1s1 .45 1 1v4.8c0 .96 3.52 2.84 9.96 2.84 6.44 0 9.96-1.88 9.96-2.84v-4.8c0-.55.45-1 1-1s1 .45 1 1v4.8c-.01 3.17-6.02 4.84-11.96 4.84z" transform="translate(-675 -711) translate(675 711) translate(7 12) translate(9 13) translate(17)"/>
                        </g>
                    </g>
                    <g fill="#20201D">
                        <g>
                            <path d="M2.16 15.32c-.45 0-.86-.3-.97-.76-.67-2.7-.85-5.11-.54-7.15.08-.54.59-.92 1.14-.83.55.09.92.6.83 1.14-.28 1.78-.11 3.92.5 6.36.13.54-.19 1.08-.73 1.21-.07.02-.15.03-.23.03zM27.94 12.15c-.21 0-.41-.06-.59-.2-1.26-.93-1.9-1.65-1.93-1.68-.37-.41-.33-1.04.08-1.41.41-.37 1.04-.33 1.41.08.02.02.56.62 1.62 1.4.44.33.54.95.21 1.4-.19.27-.5.41-.8.41z" transform="translate(-675 -711) translate(675 711) translate(7 12) translate(0 41) translate(40)"/>
                            <path d="M7.62 25.31c-.99 0-1.95-.47-2.55-1.34l-3.84-5.61c-.44-.64-.69-1.53-.68-2.39.02-1.05.42-1.9 1.13-2.39l.33-.23c1.43-.98 3.65-.13 4.6 1.26l3.88 5.62c.47.68.64 1.5.49 2.32-.15.81-.61 1.52-1.29 1.98l-.33.23c-.53.38-1.14.55-1.74.55zM3.45 14.93c-.12 0-.23.02-.31.08l-.33.23c-.15.11-.26.41-.26.78-.01.44.12.92.33 1.22l3.84 5.61c.34.49 1.02.62 1.52.28l.33-.23c.24-.17.4-.41.45-.7.05-.29-.01-.58-.17-.82l-3.88-5.62c-.33-.47-1.05-.83-1.52-.83zM23.47 22.57h-.13l-.48-.02c-.93-.03-1.8-.43-2.44-1.12-.64-.69-.97-1.58-.94-2.51l.27-8.26c.07-1.89 1.69-4.08 3.68-3.96l.48.02c2 .07 3.43 2.2 3.36 4.05l-.31 8.43c-.03.93-.43 1.8-1.12 2.44-.64.6-1.49.93-2.37.93zm-.13-13.88c-.7 0-1.55 1.09-1.58 2.03l-.27 8.26c-.01.4.13.78.4 1.08.28.3.65.47 1.05.48l.48.02c.41 0 .78-.13 1.08-.4.3-.28.47-.65.48-1.04l.31-8.43c.03-.92-.72-1.95-1.43-1.98l-.48-.02h-.04z" transform="translate(-675 -711) translate(675 711) translate(7 12) translate(0 41) translate(40)"/>
                            <path d="M17.63 23.56c-.65 0-1.28-.19-1.84-.57-.73-.49-1.22-1.24-1.38-2.09l-1.36-7.45c-.16-.82-.03-1.75.36-2.55.46-.95 1.2-1.57 2.09-1.74l.43-.08c1.84-.34 3.65 1.4 3.98 3.15l1.37 7.37c.34 1.77-.83 3.49-2.6 3.83l-.43.08c-.2.03-.41.05-.62.05zm-1.32-12.52l-.43.08c-.56.11-1.02 1.15-.86 1.96l1.36 7.45c.06.32.25.61.54.81.28.19.62.27.96.2l.43-.08c.69-.13 1.15-.8 1.01-1.5l-1.37-7.37c-.15-.78-1.06-1.66-1.64-1.55z" transform="translate(-675 -711) translate(675 711) translate(7 12) translate(0 41) translate(40)"/>
                            <path d="M12.69 25.13c-.46 0-.91-.1-1.35-.29-.8-.36-1.41-1.01-1.72-1.82L6.85 15.7c-.66-1.74.18-3.81 1.81-4.43l.41-.16c.83-.32 1.82-.17 2.72.39.77.49 1.39 1.22 1.69 2.01l2.69 7.02c.64 1.69-.21 3.59-1.9 4.23l-.41.16c-.39.14-.78.21-1.17.21zm-2.7-12.19c-.08 0-.15.01-.21.04l-.41.16c-.6.23-.92 1.14-.65 1.85l2.77 7.32c.25.66.99.99 1.65.74l.41-.16c.66-.25.99-.99.74-1.65l-2.69-7.02c-.15-.38-.49-.78-.89-1.03-.25-.16-.51-.25-.72-.25zM30.89 15.55c-.39 0-.77-.09-1.11-.28-.84-.45-1.68-1.42-1.78-1.53-1.79-2.36-.32-5.1.7-6.23.37-.41 1-.44 1.41-.07.41.37.44 1 .07 1.41-.08.09-1.81 2.08-.63 3.64.22.25.78.81 1.16 1.01.23.12.75-.05 1.28-.59.9-.93 1.48-2.62.62-4.14l-.12-.22c-.22-.4-.29-.53-1.75-2.17-.64-.71-1.48-1.66-2.61-2.96-.42-.48-.85-.92-1.3-1.31-.42-.36-.46-1-.09-1.41.36-.41 1-.46 1.41-.09.51.45 1.01.95 1.48 1.49 1.13 1.29 1.96 2.24 2.6 2.95 1.55 1.73 1.7 1.96 2.02 2.54l.11.19c1.37 2.42.47 5.07-.93 6.52-.79.82-1.7 1.25-2.54 1.25z" transform="translate(-675 -711) translate(675 711) translate(7 12) translate(0 41) translate(40)"/>
                        </g>
                        <path d="M33.86 15.32c-.08 0-.16-.01-.24-.03-.54-.13-.86-.68-.73-1.21.59-2.35.76-4.42.53-6.15-.07-.55.31-1.05.86-1.12.56-.08 1.05.31 1.12.86.27 1.98.08 4.31-.57 6.9-.11.44-.52.75-.97.75zM8.09 12.15c-.31 0-.61-.14-.81-.41-.33-.44-.23-1.07.21-1.4 1.07-.79 1.62-1.39 1.62-1.4.37-.41 1-.45 1.41-.08.41.37.45 1 .08 1.41-.03.03-.67.75-1.93 1.68-.17.13-.38.2-.58.2z" transform="translate(-675 -711) translate(675 711) translate(7 12) translate(0 41)"/>
                        <path d="M28.4 25.31c-.62 0-1.22-.19-1.74-.54l-.33-.23c-.68-.47-1.13-1.17-1.29-1.98-.15-.81.02-1.64.49-2.31l3.88-5.63c.44-.64 1.18-1.19 1.98-1.48.96-.34 1.92-.26 2.62.21l.33.23c1.43.99 1.42 3.38.46 4.78l-3.84 5.61c-.47.68-1.17 1.14-1.99 1.29-.19.04-.38.05-.57.05zm4.17-10.38c-.15 0-.32.03-.5.1-.41.14-.8.43-1.01.73l-3.88 5.63c-.34.49-.21 1.17.28 1.51l.33.23c.24.16.53.23.82.17.29-.05.54-.21.7-.45l3.84-5.61c.44-.64.41-1.76.06-2l-.33-.23c-.07-.05-.18-.08-.31-.08zM12.56 22.57c-.89 0-1.73-.33-2.38-.94-.69-.64-1.08-1.5-1.12-2.44l-.31-8.43c-.03-.91.28-1.87.86-2.64.65-.86 1.56-1.37 2.5-1.41l.48-.02c1.98-.12 3.61 2.07 3.68 3.96l.27 8.27c.03.93-.3 1.82-.94 2.51-.64.69-1.5 1.08-2.44 1.12l-.48.02h-.12zm.12-13.88h-.02l-.48.02c-.33.01-.69.24-.97.61-.3.4-.48.92-.46 1.37l.31 8.43c.01.4.19.77.48 1.04.3.28.67.4 1.08.4l.48-.02c.4-.01.77-.19 1.04-.48s.42-.68.4-1.08l-.27-8.27c-.04-.93-.89-2.02-1.59-2.02z" transform="translate(-675 -711) translate(675 711) translate(7 12) translate(0 41)"/>
                        <path d="M18.39 23.56c-.2 0-.41-.02-.62-.06l-.43-.08c-1.78-.34-2.94-2.06-2.6-3.84l1.37-7.36c.34-1.75 2.15-3.5 3.98-3.15l.43.08c.89.17 1.63.79 2.09 1.74.39.8.52 1.73.36 2.56l-1.36 7.44c-.3 1.58-1.68 2.67-3.22 2.67zm1.22-12.53c-.57 0-1.4.82-1.54 1.57l-1.37 7.36c-.13.7.32 1.37 1.01 1.5l.43.08c.7.13 1.37-.32 1.5-1.01L21 13.09c.08-.41 0-.91-.19-1.33-.08-.17-.31-.58-.66-.64l-.43-.08c-.04-.01-.07-.01-.11-.01z" transform="translate(-675 -711) translate(675 711) translate(7 12) translate(0 41)"/>
                        <path d="M23.33 25.13c-.39 0-.78-.07-1.16-.21l-.41-.16c-1.69-.64-2.54-2.54-1.9-4.23l2.69-7.03c.3-.79.91-1.52 1.68-2 .9-.57 1.89-.71 2.72-.39l.41.16c1.62.62 2.47 2.69 1.81 4.43l-2.77 7.32c-.31.82-.92 1.46-1.72 1.82-.43.2-.89.29-1.35.29zm2.71-12.19c-.21 0-.47.09-.73.25-.4.25-.74.65-.88 1.03l-2.69 7.03c-.25.66.08 1.4.74 1.65l.41.16c.66.25 1.4-.08 1.65-.74L27.31 15c.27-.71-.05-1.63-.65-1.86l-.41-.16c-.06-.03-.14-.04-.21-.04zM5.14 15.55c-.85 0-1.75-.43-2.54-1.23-1.41-1.45-2.3-4.1-.93-6.52l.11-.19c.32-.58.47-.81 2.02-2.54.63-.71 1.47-1.65 2.6-2.95.47-.54.97-1.04 1.48-1.49C8.3.26 8.93.31 9.29.72c.37.42.32 1.05-.09 1.41-.45.39-.88.83-1.29 1.31C6.77 4.74 5.93 5.7 5.3 6.41 3.84 8.04 3.76 8.18 3.55 8.58l-.12.22c-.86 1.52-.28 3.21.62 4.14.53.54 1.05.71 1.28.59.4-.21.98-.81 1.2-1.06 1.15-1.52-.59-3.51-.67-3.59-.37-.41-.33-1.04.08-1.41.41-.37 1.04-.34 1.41.07 1.02 1.13 2.49 3.87.74 6.18-.13.16-.97 1.12-1.81 1.57-.38.17-.75.26-1.14.26z" transform="translate(-675 -711) translate(675 711) translate(7 12) translate(0 41)"/>
                    </g>
                    <path fill="#B99515" d="M38 8c-.55 0-1-.45-1-1V1c0-.55.45-1 1-1s1 .45 1 1v6c0 .56-.45 1-1 1zM56.76 15.25c-.26 0-.51-.1-.71-.29-.39-.39-.39-1.02 0-1.41l4.24-4.24c.39-.39 1.02-.39 1.41 0 .39.39.39 1.02 0 1.41l-4.24 4.24c-.19.19-.45.29-.7.29zM19.48 15.49c-.26 0-.51-.1-.71-.29l-4.24-4.24c-.39-.39-.39-1.02 0-1.41.39-.39 1.02-.39 1.41 0l4.24 4.24c.39.39.39 1.02 0 1.41-.19.19-.44.29-.7.29z" transform="translate(-675 -711) translate(675 711) translate(7 12)"/>
                </g>
                <path fill="#FFF" d="M0 0H90V90H0z" opacity=".01" transform="translate(-675 -711) translate(675 711)"/>
            </g>
        </g>
    </g>
</svg>
