<svg xmlns="http://www.w3.org/2000/svg" width="90" height="90" viewBox="0 0 90 90">
    <g fill="none" fill-rule="evenodd">
        <g>
            <g>
                <g fill-rule="nonzero">
                    <g>
                        <g fill="#20201D">
                            <path d="M62 51c-.24 0-.47-.09-.66-.25-.22-.19-.34-.46-.34-.75V10c0-.5.37-.92.87-.99 8-1.07 9.74-2.29 10.08-2.62C70.59 4.72 57.72 2.4 37 2.4 16.29 2.4 3.42 4.72 2.05 6.39c.33.33 2.08 1.55 10.08 2.62.5.07.87.49.87.99v40c0 .29-.12.56-.34.75-.22.19-.51.28-.79.24C0 49.4 0 47.3 0 46.4c0-1.58 1.97-2.41 3.69-2.95.52-.17 1.09.12 1.26.65.17.53-.12 1.09-.65 1.26-1.51.48-2.05.87-2.23 1.05.34.33 1.98 1.43 8.93 2.45V10.87C0 9.29 0 7.28 0 6.4c0-5.93 35.49-6 37-6 1.51 0 37 .07 37 6 0 .87 0 2.89-11 4.47v37.98c6.95-1.02 8.59-2.12 8.93-2.45-.18-.17-.73-.57-2.24-1.05-.53-.17-.82-.73-.65-1.26.17-.53.73-.82 1.26-.65 1.59.5 3.7 1.36 3.7 2.95 0 .9 0 3-11.87 4.59-.04.02-.09.02-.13.02z" transform="translate(-675 -471) translate(675 471) translate(8 12)"/>
                            <path d="M65 44.26c-.06 0-.11 0-.17-.01-6.02-1.03-14.56-1.68-24.06-1.81-.55-.01-.99-.46-.99-1.01.01-.55.42-.98 1.01-.99 9.6.14 18.25.79 24.37 1.84.54.09.91.61.82 1.15-.08.49-.5.83-.98.83zM9 44.26c-.48 0-.9-.34-.98-.83-.09-.54.27-1.06.82-1.15 6.14-1.05 14.84-1.71 24.48-1.85h.01c.55 0 .99.44 1 .99.01.55-.43 1.01-.99 1.01-9.54.13-18.13.78-24.17 1.82-.06 0-.12.01-.17.01zM73 47.4c-.55 0-1-.45-1-1v-40c0-.55.45-1 1-1s1 .45 1 1v40c0 .55-.45 1-1 1zM1 47.9c-.55 0-1-.45-1-1v-40c0-.55.45-1 1-1s1 .45 1 1v40c0 .55-.45 1-1 1z" transform="translate(-675 -471) translate(675 471) translate(8 12)"/>
                        </g>
                        <path fill="#B99515" d="M40.12 28c-.55 0-1-.45-1-1v-3h-4v3c0 .55-.45 1-1 1s-1-.45-1-1v-4c0-.55.45-1 1-1h6c.55 0 1 .45 1 1v4c0 .55-.45 1-1 1zM52.12 37h-6c-.55 0-1-.45-1-1V18c0-.55.45-1 1-1h6c.55 0 1 .45 1 1v18c0 .55-.45 1-1 1zm-5-2h4V19h-4v16zM28.12 37h-6c-.55 0-1-.45-1-1v-9c0-.55.45-1 1-1h6c.55 0 1 .45 1 1v9c0 .55-.45 1-1 1zm-5-2h4v-7h-4v7zM16.12 27c-.24 0-.48-.08-.67-.26-.41-.37-.44-1-.07-1.41l9-10c.21-.23.52-.36.83-.33l11.62.97 11.7-8.77c.3-.23.71-.26 1.05-.09l8 4c.49.25.69.85.45 1.34-.25.49-.85.69-1.34.45l-7.45-3.72-11.51 8.63c-.19.15-.44.22-.68.2l-11.51-.96-8.67 9.63c-.21.21-.48.32-.75.32z" transform="translate(-675 -471) translate(675 471) translate(8 12)"/>
                    </g>
                    <g fill="#20201D">
                        <g>
                            <path d="M30.12 36h-2v-8c0-5.32-3.84-9.03-9.35-9.03h-7.3c-5.5 0-9.35 3.71-9.35 9.03v8h-2v-8c0-6.39 4.77-11.03 11.35-11.03h7.3c6.58 0 11.35 4.64 11.35 11.03v8zM15.15 14.73c-3.77 0-6.29-2.96-6.29-7.36S11.39.01 15.15.01c3.76 0 6.29 2.96 6.29 7.36s-2.53 7.36-6.29 7.36zm0-12.73c-3.17 0-4.29 2.77-4.29 5.36 0 2.59 1.13 5.36 4.29 5.36 3.17 0 4.29-2.77 4.29-5.36 0-2.59-1.13-5.36-4.29-5.36z" transform="translate(-675 -471) translate(675 471) translate(8 12) translate(20 29) translate(2)"/>
                            <path d="M23.36 36.94H6.54v-3.06l-.86-6.91c-.08-.67.12-1.34.57-1.84.45-.5 1.09-.79 1.76-.79h13.9c.67 0 1.31.29 1.76.79.45.5.65 1.18.57 1.84l-.86 6.91v3.06h-.02zm-14.82-2h12.82l.01-1.24.87-6.97c.02-.13-.05-.23-.08-.27-.04-.04-.12-.12-.26-.12H8c-.13 0-.22.07-.26.12-.04.04-.1.14-.08.27l.88 7.1v1.11z" transform="translate(-675 -471) translate(675 471) translate(8 12) translate(20 29) translate(2)"/>
                        </g>
                        <path d="M33.12 37h-32c-.55 0-1-.45-1-1s.45-1 1-1h32c.55 0 1 .45 1 1s-.45 1-1 1z" transform="translate(-675 -471) translate(675 471) translate(8 12) translate(20 29)"/>
                    </g>
                </g>
                <path fill="#FFF" d="M0 0H90V90H0z" opacity=".01" transform="translate(-675 -471) translate(675 471)"/>
            </g>
        </g>
    </g>
</svg>
