<svg xmlns="http://www.w3.org/2000/svg" width="90" height="90" viewBox="0 0 90 90">
    <g fill="none" fill-rule="evenodd">
        <g>
            <g>
                <g stroke-width="2.4">
                    <path stroke="#B99515" d="M23.857 32.941v1.318c0 1.45 1.181 2.635 2.626 2.635h5.253c1.444 0 2.626-1.186 2.626-2.635v-3.426c0-1.186-.788-2.108-1.838-2.504l-6.96-1.449c-1.05-.395-1.839-1.318-1.839-2.504v-3.294c0-1.45 1.182-2.635 2.627-2.635h5.253c1.444 0 2.626 1.186 2.626 2.635v2.636m-5.122-5.27v-5.272m0 23.718v5.27" transform="translate(-315 -951) translate(315 951) translate(16 17)"/>
                    <path stroke="#4D4D4D" d="M17.29 45.064c-4.07-3.163-6.697-8.038-6.697-13.704 0-2.767.657-5.534 1.839-7.906l3.414 2.899 1.576-18.579-17.334 5.93 3.677 2.898C2.32 20.028 1.4 23.718 1.4 27.671c0 15.284 12.344 27.67 27.577 27.67M40.928 10.278C45 13.44 47.626 18.315 47.626 23.98c0 2.767-.657 5.534-1.839 7.906l-3.545-2.899-1.576 18.58L58 41.637l-3.677-2.9c1.445-3.425 2.364-7.114 2.364-11.067C56.687 12.386 44.343 0 29.109 0" transform="translate(-315 -951) translate(315 951) translate(16 17)"/>
                </g>
                <path fill="#FFF" d="M0 0H90V90H0z" opacity=".01" transform="translate(-315 -951) translate(315 951)"/>
            </g>
        </g>
    </g>
</svg>
