<svg xmlns="http://www.w3.org/2000/svg" width="90" height="90" viewBox="0 0 90 90">
    <g fill="none" fill-rule="evenodd">
        <g>
            <g>
                <g fill-rule="nonzero">
                    <g>
                        <path fill="#20201D" d="M45 58H1c-.55 0-1-.45-1-1V1c0-.55.45-1 1-1h44c.55 0 1 .45 1 1v7c0 .55-.45 1-1 1s-1-.45-1-1V2H2v54h42V23c0-.55.45-1 1-1s1 .45 1 1v34c0 .55-.45 1-1 1z" transform="translate(-435 -471) translate(435 471) translate(12 16)"/>
                        <path fill="#20201D" d="M14 53H6c-.55 0-1-.45-1-1V38c0-1.65 1.35-3 3-3h4c1.65 0 3 1.35 3 3v14c0 .55-.45 1-1 1zm-7-2h6V38c0-.55-.45-1-1-1H8c-.55 0-1 .45-1 1v13zM27 53h-8c-.55 0-1-.45-1-1v-8c0-1.65 1.35-3 3-3h4c1.65 0 3 1.35 3 3v8c0 .55-.45 1-1 1zm-7-2h6v-7c0-.55-.45-1-1-1h-4c-.55 0-1 .45-1 1v7zM40 53h-8c-.55 0-1-.45-1-1V31c0-1.65 1.35-3 3-3h4c1.65 0 3 1.35 3 3v21c0 .55-.45 1-1 1zm-7-2h6V31c0-.55-.45-1-1-1h-4c-.55 0-1 .45-1 1v20z" transform="translate(-435 -471) translate(435 471) translate(12 16)"/>
                        <g fill="#DF3219">
                            <path d="M18.92 25.58h-.04c-.31-.01-.6-.17-.78-.43l-3.99-5.7-2.43 2.27c-.21.2-.51.3-.8.26-.29-.03-.55-.19-.72-.44l-3.4-5.09-4.15 3.32c-.43.34-1.06.28-1.41-.16-.35-.43-.28-1.06.16-1.41l5-4c.22-.18.51-.25.78-.21.28.04.52.2.68.43l3.35 5.02 2.41-2.25c.21-.2.5-.29.79-.26.29.03.55.18.72.42l3.89 5.57L30.23 9.35c.18-.22.44-.35.72-.36.28-.01.55.09.75.29l4.25 4.26 8.3-9.22c.19-.21.46-.35.76-.33.29 0 .56.13.75.35l5.26 6.14 8.24-9.15c.37-.41 1-.45 1.41-.07.41.37.44 1 .07 1.41l-9 10c-.19.21-.43.32-.76.33-.29 0-.56-.13-.75-.35l-5.26-6.14-8.24 9.15c-.18.2-.44.32-.72.33-.29.02-.54-.1-.73-.29l-4.22-4.22-11.38 13.74c-.18.23-.47.36-.76.36z" transform="translate(-435 -471) translate(435 471) translate(12 16) translate(3 7)"/>
                            <path d="M60.53 6.35c-.55 0-1-.45-1-1v-3h-3c-.55 0-1-.45-1-1s.45-1 1-1h4c.55 0 1 .45 1 1v4c0 .56-.45 1-1 1z" transform="translate(-435 -471) translate(435 471) translate(12 16) translate(3 7)"/>
                        </g>
                        <path fill="#20201D" d="M30 7H16c-.55 0-1-.45-1-1s.45-1 1-1h14c.55 0 1 .45 1 1s-.45 1-1 1zM36 12H10c-.55 0-1-.45-1-1s.45-1 1-1h26c.55 0 1 .45 1 1s-.45 1-1 1z" transform="translate(-435 -471) translate(435 471) translate(12 16)"/>
                    </g>
                </g>
                <path fill="#FFF" d="M0 0H90V90H0z" opacity=".01" transform="translate(-435 -471) translate(435 471)"/>
            </g>
        </g>
    </g>
</svg>
