<svg xmlns="http://www.w3.org/2000/svg" width="90" height="90" viewBox="0 0 90 90">
    <g fill="none" fill-rule="evenodd">
        <g>
            <g>
                <g fill-rule="nonzero">
                    <path fill="#20201D" d="M33 10c-.55 0-1-.45-1-1V1c0-.55.45-1 1-1s1 .45 1 1v8c0 .56-.45 1-1 1zM19 70c-.55 0-1-.45-1-1V15c0-.55.45-1 1-1h28c.55 0 1 .45 1 1v35c0 .55-.45 1-1 1s-1-.45-1-1V16H20v53c0 .56-.45 1-1 1z" transform="translate(-555 -591) translate(555 591) translate(10 8)"/>
                    <path fill="#20201D" d="M43 16H23c-.55 0-1-.45-1-1V9c0-.55.45-1 1-1h20c.55 0 1 .45 1 1v6c0 .56-.45 1-1 1zm-19-2h18v-4H24v4zM60 52c-.55 0-1-.45-1-1V28H47c-.55 0-1-.45-1-1s.45-1 1-1h13c.55 0 1 .45 1 1v24c0 .56-.45 1-1 1z" transform="translate(-555 -591) translate(555 591) translate(10 8)"/>
                    <path fill="#20201D" d="M55 38h-3c-.55 0-1-.45-1-1s.45-1 1-1h3c.55 0 1 .45 1 1 0 .56-.45 1-1 1zM55 46h-3c-.55 0-1-.45-1-1s.45-1 1-1h3c.55 0 1 .45 1 1 0 .56-.45 1-1 1zM6 66c-.55 0-1-.45-1-1V27c0-.55.45-1 1-1h13c.55 0 1 .45 1 1s-.45 1-1 1H7v37c0 .56-.45 1-1 1z" transform="translate(-555 -591) translate(555 591) translate(10 8)"/>
                    <path fill="#20201D" d="M14 38h-3c-.55 0-1-.45-1-1s.45-1 1-1h3c.55 0 1 .45 1 1 0 .56-.45 1-1 1zM14 46h-3c-.55 0-1-.45-1-1s.45-1 1-1h3c.55 0 1 .45 1 1 0 .56-.45 1-1 1zM14 55h-3c-.55 0-1-.45-1-1s.45-1 1-1h3c.55 0 1 .45 1 1 0 .56-.45 1-1 1zM29 70H1c-.55 0-1-.45-1-1s.45-1 1-1h28c.55 0 1 .45 1 1 0 .56-.45 1-1 1zM33 53c-.55 0-1-.45-1-1V20c0-.55.45-1 1-1s1 .45 1 1v32c0 .56-.45 1-1 1zM40 52c-.55 0-1-.45-1-1V20c0-.55.45-1 1-1s1 .45 1 1v31c0 .56-.45 1-1 1zM26 57c-.55 0-1-.45-1-1V20c0-.55.45-1 1-1s1 .45 1 1v36c0 .56-.45 1-1 1z" transform="translate(-555 -591) translate(555 591) translate(10 8)"/>
                    <g fill="#DF3219">
                        <path d="M16.05 21.44c-.55 0-1-.45-1-1s.45-1 1-1c.08.01 4.08 0 4.19 0 4.97-.02 8.96-.58 11.86-1.68.52-.19 1.09.07 1.29.58.19.52-.07 1.09-.59 1.29-3.13 1.17-7.35 1.78-12.55 1.8-.06.01-4.13.01-4.2.01zM35.03 17.29c-.39 0-.76-.23-.92-.61-.22-.51.02-1.1.53-1.31 1.13-.49 2.48-1.28 2.48-2.3 0-.87 0-1.76.01-2.55.01-1.08.01-2.1-.01-2.41-.04-.55.37-1.03.92-1.08.56-.05 1.03.37 1.08.92.03.37.03 1.18.02 2.58 0 .78-.01 1.67-.01 2.53.01 1.7-1.24 3.09-3.69 4.14-.15.06-.28.09-.41.09z" transform="translate(-555 -591) translate(555 591) translate(10 8) translate(31 52)"/>
                        <path d="M35.05 12.87c-.07 0-.15-.01-.22-.02L20.64 9.64c-.42-.09-.73-.44-.77-.87-.05-.42.18-.83.57-1.01l11.02-5.21c.21-.1.45-.12.68-.06 4.38 1.15 6.98 3.31 6.98 5.78 0 1.72-1.29 3.32-3.61 4.5-.15.06-.31.1-.46.1zM23.91 8.32l11 2.49c1.41-.78 2.21-1.7 2.21-2.56 0-1.39-2.05-2.87-5.14-3.75l-8.07 3.82z" transform="translate(-555 -591) translate(555 591) translate(10 8) translate(31 52)"/>
                        <path d="M16 21.46c-.04 0-.07 0-.11-.01C7.32 20.54.85 16.95.85 13.1L.83 8.04c0-.1.01-.2.04-.29C1.33 3.08 10.91.57 19.94.57c2.14 0 4.36.19 6.62.57.54.09.91.61.82 1.15-.09.54-.6.91-1.15.82-2.15-.36-4.26-.54-6.29-.54-9.78 0-17.08 2.92-17.08 5.53 0 2.34 5.44 5.53 13.25 6.36.51.05.89.48.89.99v5c0 .28-.12.55-.33.74-.19.18-.42.27-.67.27zM2.85 11.78l.01 1.32c0 2.24 4.93 5.23 12.14 6.23v-2.98c-5.32-.69-9.73-2.42-12.15-4.57z" transform="translate(-555 -591) translate(555 591) translate(10 8) translate(31 52)"/>
                        <path d="M35.03 17.24c-.08 0-.15-.01-.23-.03l-14.17-3.34c-.45-.11-.77-.51-.77-.97V8.65c0-.55.45-1 1-1s1 .45 1 1v3.46l12.17 2.87V11.9c0-.55.45-1 1-1s1 .45 1 1v4.34c0 .31-.14.59-.38.78-.18.15-.4.22-.62.22z" transform="translate(-555 -591) translate(555 591) translate(10 8) translate(31 52)"/>
                    </g>
                </g>
                <path fill="#FFF" d="M0 0H90V90H0z" opacity=".01" transform="translate(-555 -591) translate(555 591)"/>
            </g>
        </g>
    </g>
</svg>
