<svg xmlns="http://www.w3.org/2000/svg" width="90" height="90" viewBox="0 0 90 90">
    <g fill="none" fill-rule="evenodd">
        <g>
            <g>
                <g fill-rule="nonzero">
                    <path fill="#B99515" d="M41 24c-.2 0-.408-.058-.587-.184-.448-.31-.548-.922-.22-1.359l6.001-8.055c.319-.436.946-.533 1.393-.213.448.31.548.922.22 1.359l-6.001 8.054c-.2.252-.498.398-.806.398zM35.027 32c-.204 0-.419-.057-.603-.182-.46-.305-.562-.907-.225-1.338l3.946-5.084c.327-.43.971-.525 1.431-.21.46.306.562.908.225 1.338l-3.946 5.084c-.204.258-.511.392-.828.392zM31.003 33c-.158 0-.327-.042-.475-.127L20.51 26.981c-.475-.285-.654-.93-.386-1.436.267-.507.862-.697 1.347-.412l10.017 5.892c.475.285.654.93.386 1.436-.178.338-.515.539-.872.539zM4.995 41c-.238 0-.466-.077-.664-.241-.406-.358-.446-.966-.08-1.362l11.02-12.074c.367-.396.991-.435 1.398-.077.406.357.446.965.08 1.361L5.728 40.681c-.199.213-.466.319-.734.319z" transform="translate(-555 -711) translate(555 711) translate(8 15)"/>
                    <path fill="#B99515" d="M3.5 46C1.57 46 0 44.43 0 42.5S1.57 39 3.5 39 7 40.57 7 42.5 5.43 46 3.5 46zm0-5c-.83 0-1.5.67-1.5 1.5S2.67 44 3.5 44 5 43.33 5 42.5 4.33 41 3.5 41zM49 16c-2.205 0-4-1.795-4-4s1.795-4 4-4 4 1.795 4 4-1.795 4-4 4zm0-5.9c-1.05 0-1.9.85-1.9 1.9 0 1.05.85 1.9 1.9 1.9 1.05 0 1.9-.85 1.9-1.9 0-1.05-.85-1.9-1.9-1.9zM18.5 29c-1.93 0-3.5-1.57-3.5-3.5s1.57-3.5 3.5-3.5 3.5 1.57 3.5 3.5-1.57 3.5-3.5 3.5zm0-5c-.83 0-1.5.67-1.5 1.5s.67 1.5 1.5 1.5 1.5-.67 1.5-1.5-.67-1.5-1.5-1.5zM33.5 37c-1.93 0-3.5-1.57-3.5-3.5s1.57-3.5 3.5-3.5 3.5 1.57 3.5 3.5-1.57 3.5-3.5 3.5zm0-5c-.83 0-1.5.67-1.5 1.5s.67 1.5 1.5 1.5 1.5-.67 1.5-1.5-.67-1.5-1.5-1.5z" transform="translate(-555 -711) translate(555 711) translate(8 15)"/>
                    <path fill="#20201D" d="M23 61H13c-.55 0-1-.45-1-1V44c0-1.65 1.35-3 3-3h6c1.65 0 3 1.35 3 3v16c0 .56-.45 1-1 1zm-9-2h8V44c0-.55-.45-1-1-1h-6c-.55 0-1 .45-1 1v15zM40 61H30c-.55 0-1-.45-1-1v-8c0-1.65 1.35-3 3-3h6c1.65 0 3 1.35 3 3v8c0 .56-.45 1-1 1zm-9-2h8v-7c0-.55-.45-1-1-1h-6c-.55 0-1 .45-1 1v7z" transform="translate(-555 -711) translate(555 711) translate(8 15)"/>
                    <path fill="#B99515" d="M57 61H47c-.55 0-1-.45-1-1V37c0-1.65 1.35-3 3-3h6c1.65 0 3 1.35 3 3v23c0 .56-.45 1-1 1zm-9-2h8V37c0-.55-.45-1-1-1h-6c-.55 0-1 .45-1 1v22z" transform="translate(-555 -711) translate(555 711) translate(8 15)"/>
                    <g fill="#20201D">
                        <path d="M13.53 26.49c-3.24 0-6.32-1.19-8.73-3.38-5.3-4.82-5.69-13.06-.87-18.37C6.27 2.17 9.46.67 12.93.5c3.48-.16 6.79 1.03 9.36 3.37 2.57 2.34 4.07 5.53 4.24 9 .17 3.47-1.03 6.79-3.37 9.36-2.34 2.57-5.53 4.07-9 4.24-.21.02-.42.02-.63.02zm.03-24c-.18 0-.35 0-.53.01-2.93.14-5.64 1.41-7.62 3.59-4.08 4.49-3.75 11.46.74 15.54 2.17 1.98 4.98 2.98 7.92 2.85 2.93-.14 5.64-1.41 7.62-3.59 1.98-2.17 2.99-4.99 2.85-7.92-.14-2.93-1.41-5.64-3.59-7.62-2.04-1.85-4.65-2.86-7.39-2.86z" transform="translate(-555 -711) translate(555 711) translate(8 15) translate(35)"/>
                        <path d="M27.54 27.15c-.24 0-.48-.08-.67-.25l-5.12-4.58c-.41-.37-.45-1-.08-1.41.37-.41 1-.45 1.41-.08l5.12 4.58c.41.37.45 1 .08 1.41-.19.22-.46.33-.74.33z" transform="translate(-555 -711) translate(555 711) translate(8 15) translate(35)"/>
                        <path d="M35 37c-.96 0-1.92-.34-2.69-1.04l-7.4-6.73c-.41-.37-.44-1-.07-1.41l4.04-4.44c.18-.2.43-.31.69-.33.26-.02.52.08.72.26l7.4 6.73c1.63 1.48 1.75 4.02.27 5.65-.79.87-1.87 1.31-2.96 1.31zm-8-8.57l6.66 6.06c.82.74 2.08.68 2.83-.13.74-.82.68-2.08-.13-2.83l-6.66-6.05-2.7 2.95z" transform="translate(-555 -711) translate(555 711) translate(8 15) translate(35)"/>
                    </g>
                </g>
                <path fill="#FFF" d="M0 0H90V90H0z" opacity=".01" transform="translate(-555 -711) translate(555 711)"/>
            </g>
        </g>
    </g>
</svg>
