<svg xmlns="http://www.w3.org/2000/svg" xmlns:xlink="http://www.w3.org/1999/xlink" width="34" height="35" viewBox="0 0 34 35">
    <defs>
        <linearGradient id="hm7mdexjmb" x1="17.945%" x2="85.909%" y1="12.787%" y2="90.834%">
            <stop offset="0%" stop-color="#DDC735"/>
            <stop offset="100%" stop-color="#A38414"/>
        </linearGradient>
        <path id="3tjh6o4b6a" d="M0 0.337L33.892 0.337 33.892 34.485 0 34.485z"/>
    </defs>
    <g fill="none" fill-rule="evenodd">
        <g>
            <g transform="translate(-200 -152) translate(200 152)">
                <mask id="c3gqrpavac" fill="#fff">
                    <use xlink:href="#3tjh6o4b6a"/>
                </mask>
                <path fill="url(#hm7mdexjmb)" d="M17.231 21.383l-5.091-.002c.562-.976.864-2.208.864-3.673l.002-5.142c.967.57 2.194.874 3.651.874h5.099c-.568.978-.87 2.215-.87 3.682v5.136c-.967-.572-2.197-.875-3.655-.875m14.679-8.589c-1.196-1.163-2.609-1.796-4.232-1.903l-.934-.006v-.002h-.008l-8.021.002V6.6l-2.32-.001.002 4.286c-2.558-.002-3.614-1.282-3.614-3.65V6.6h.002c.107-.965.505-1.802 1.196-2.508.821-.836 1.822-1.253 3.004-1.253 1.189 0 2.188.413 3.002 1.243.695.71 1.089 1.55 1.19 2.518h2.31c-.102-1.663-.722-3.094-1.87-4.292-1.252-1.313-2.79-1.97-4.6-1.97-1.833 0-3.38.666-4.655 1.996C11.21 3.54 10.58 4.962 10.472 6.6l-.008.94v.008-.002l.005 8.093H6.214l-.002 2.336h4.257c-.005 2.577-1.275 3.64-3.622 3.64h-.635v-.005c-.957-.107-1.79-.505-2.49-1.204-.826-.827-1.242-1.836-1.242-3.026 0-1.2.411-2.206 1.234-3.025.706-.702 1.54-1.096 2.498-1.198V10.83c-1.65.1-3.069.727-4.259 1.88C.65 13.975 0 15.522 0 17.347c0 1.845.66 3.408 1.981 4.69 1.196 1.165 2.61 1.798 4.231 1.904l.934.005v.005c.07 0 .134-.009.203-.01l7.827-.003v4.286l2.317.002v-4.288c2.558.003 3.612 1.283 3.612 3.65v.638h-.003c-.105.965-.502 1.803-1.196 2.508-.82.835-1.822 1.253-3.002 1.253-1.19 0-2.19-.413-3.002-1.245-.697-.71-1.088-1.55-1.19-2.516h-2.309c.102 1.662.722 3.094 1.866 4.29 1.257 1.315 2.792 1.97 4.603 1.97 1.832 0 3.382-.666 4.656-1.994 1.152-1.209 1.783-2.631 1.888-4.266l.008-.943v-.002l.002.002-.002-8.09h4.254v-2.334h-4.254c.002-2.577 1.271-3.642 3.622-3.642h.632v.006c.958.107 1.79.506 2.49 1.202.829.829 1.243 1.838 1.243 3.027 0 1.2-.412 2.206-1.236 3.025-.705.702-1.539 1.098-2.497 1.199V24c1.652-.1 3.07-.725 4.26-1.88 1.303-1.266 1.954-2.813 1.954-4.638 0-1.844-.663-3.407-1.982-4.689" mask="url(#c3gqrpavac)"/>
            </g>
        </g>
    </g>
</svg>
