<svg xmlns="http://www.w3.org/2000/svg" width="34" height="35" viewBox="0 0 34 35">
    <g fill="none" fill-rule="evenodd">
        <g fill-rule="nonzero" stroke-width=".3">
            <g>
                <g>
                    <g>
                        <g>
                            <path fill="#000" stroke="#000" d="M22.124 11.757c-.02-.21-.134-.401-.311-.522-.177-.12-.4-.158-.607-.103l-3.614.95c-.059-.487-.189-.954-.38-1.389l3.616-.951c.208-.055.381-.197.473-.388.092-.19.094-.412.004-.604-1.339-2.89-4.038-4.923-7.22-5.438-.213-.035-.43.024-.594.16-.164.137-.258.338-.258.55v3.673c-.24-.034-.484-.052-.733-.052s-.493.018-.733.052V4.02c0-.211-.094-.412-.258-.548-.164-.137-.381-.196-.593-.161-3.182.515-5.882 2.548-7.221 5.437-.09.193-.088.414.004.605s.265.333.473.388l3.616.951c-.191.435-.321.902-.38 1.39l-3.614-.951c-.208-.055-.43-.017-.607.103-.177.121-.29.312-.311.522-.03.307-.046.617-.046.92 0 2.419.928 4.723 2.612 6.488.148.155.356.238.571.227.215-.01.415-.113.546-.281l2.275-2.917c.342.343.733.638 1.163.875L7.72 19.987c-.131.168-.18.383-.135.59.046.206.182.382.372.482 1.389.727 2.96 1.11 4.542 1.11 1.59 0 3.166-.386 4.56-1.12.189-.099.324-.275.37-.482.045-.206-.005-.422-.136-.59l-2.282-2.913c.429-.237.82-.534 1.16-.878l2.282 2.914c.132.167.331.27.546.28.215.01.424-.074.57-.228 1.677-1.763 2.6-4.063 2.6-6.475 0-.303-.015-.613-.046-.92zm-7.426-6.842c2.046.555 3.79 1.869 4.87 3.67l-3.164.832c-.468-.539-1.049-.98-1.706-1.287V4.915h0zM5.43 8.585c1.081-1.801 2.825-3.115 4.871-3.67V8.13c-.657.307-1.238.748-1.706 1.287l-3.165-.833zm.518 8.942c-1.056-1.372-1.637-3.037-1.653-4.774l3.16.83c.091.493.256.961.483 1.393l-1.99 2.55zm9.628 2.618c-.972.385-2.021.587-3.077.587-1.05 0-2.094-.2-3.062-.581l1.99-2.55c.346.072.704.11 1.072.11.371 0 .733-.04 1.082-.113l1.995 2.547zM12.5 16.273c-2.02 0-3.663-1.613-3.663-3.596S10.48 9.081 12.5 9.081c2.02 0 3.663 1.613 3.663 3.596s-1.643 3.596-3.663 3.596zm6.56 1.241l-1.994-2.547c.224-.429.387-.894.478-1.383l3.16-.831c-.016 1.731-.593 3.391-1.643 4.761z" transform="translate(-165 -3268) translate(0 2776) translate(0 489) translate(165 3) translate(4.5 6)"/>
                            <path fill="#000" stroke="#000" d="M21.339 3.661C18.978 1.301 15.839 0 12.5 0 9.161 0 6.022 1.3 3.661 3.661 1.301 6.022 0 9.161 0 12.5c0 3.339 1.3 6.478 3.661 8.839C6.022 23.699 9.161 25 12.5 25c3.339 0 6.478-1.3 8.839-3.661C23.699 18.978 25 15.839 25 12.5c0-3.339-1.3-6.478-3.661-8.839zM12.5 23.535c-6.085 0-11.035-4.95-11.035-11.035S6.415 1.465 12.5 1.465 23.535 6.415 23.535 12.5 18.585 23.535 12.5 23.535z" transform="translate(-165 -3268) translate(0 2776) translate(0 489) translate(165 3) translate(4.5 6)"/>
                            <path fill="#B99515" stroke="#B99515" d="M12.5 10.377c-1.17 0-2.123.953-2.123 2.123 0 1.17.953 2.123 2.123 2.123 1.17 0 2.123-.953 2.123-2.123 0-1.17-.953-2.123-2.123-2.123zm0 2.83c-.39 0-.708-.317-.708-.707 0-.39.318-.708.708-.708.39 0 .708.318.708.708 0 .39-.318.708-.708.708z" transform="translate(-165 -3268) translate(0 2776) translate(0 489) translate(165 3) translate(4.5 6)"/>
                        </g>
                    </g>
                </g>
            </g>
        </g>
    </g>
</svg>
