<svg xmlns="http://www.w3.org/2000/svg" xmlns:xlink="http://www.w3.org/1999/xlink" width="248" height="47" viewBox="0 0 248 47">
    <defs>
        <linearGradient id="0yh68wi7ib" x1="17.462%" x2="86.451%" y1="12.787%" y2="90.834%">
            <stop offset="0%" stop-color="#DDC735"/>
            <stop offset="100%" stop-color="#A38414"/>
        </linearGradient>
        <path id="jbehs0gica" d="M0 0.453L45.855 0.453 45.855 46.308 0 46.308z"/>
    </defs>
    <g fill="none" fill-rule="evenodd">
        <g>
            <g>
                <g>
                    <g>
                        <g>
                            <g>
                                <g transform="translate(-100 -88) translate(100 88) translate(0 .239)">
                                    <mask id="co63k95bhc" fill="#fff">
                                        <use xlink:href="#jbehs0gica"/>
                                    </mask>
                                    <path fill="url(#0yh68wi7ib)" d="M23.312 28.714l-6.888-.003c.761-1.31 1.17-2.964 1.17-4.932l.002-6.905c1.309.767 2.97 1.174 4.94 1.174h6.898c-.768 1.314-1.175 2.974-1.175 4.944l-.002 6.897c-1.308-.767-2.972-1.175-4.945-1.175m19.86-11.533c-1.617-1.562-3.53-2.412-5.725-2.556l-1.263-.008v-.003h-.012l-10.852.003V8.863l-3.14-.002.004 5.756c-3.46-.003-4.89-1.721-4.89-4.9V8.86h.003c.145-1.295.683-2.42 1.619-3.368 1.11-1.122 2.465-1.682 4.063-1.682 1.609 0 2.961.555 4.062 1.67.94.954 1.473 2.08 1.61 3.38h3.125c-.137-2.233-.976-4.154-2.528-5.763C27.552 1.334 25.472.452 23.024.452c-2.481 0-4.575.895-6.298 2.681-1.56 1.621-2.413 3.53-2.56 5.728l-.008 1.264v.01-.003L14.163 21H8.407l-.003 3.138 5.76-.001c-.006 3.46-1.725 4.888-4.9 4.888h-.86v-.006c-1.295-.144-2.42-.679-3.369-1.617-1.117-1.111-1.68-2.466-1.68-4.064 0-1.61.557-2.961 1.67-4.062.956-.942 2.084-1.472 3.38-1.608V14.54c-2.232.135-4.152.977-5.762 2.527C.879 18.765 0 20.842 0 23.294c0 2.477.893 4.575 2.68 6.296 1.618 1.565 3.531 2.416 5.724 2.558l1.265.007v.006c.094 0 .18-.011.273-.013l10.59-.004V37.9l3.135.002v-5.758c3.461.004 4.887 1.723 4.887 4.901v.857h-.004c-.142 1.296-.68 2.42-1.619 3.368-1.108 1.12-2.464 1.683-4.06 1.683-1.61 0-2.963-.555-4.063-1.672-.942-.954-1.471-2.081-1.608-3.379h-3.125c.137 2.232.977 4.154 2.525 5.761 1.7 1.766 3.776 2.645 6.227 2.645 2.479 0 4.575-.894 6.299-2.678 1.56-1.623 2.413-3.532 2.555-5.728l.01-1.266v-.003l.003.003-.003-10.864h5.756v-3.134h-5.756c.003-3.46 1.72-4.89 4.9-4.89h.856v.007c1.296.143 2.422.68 3.37 1.615 1.12 1.112 1.68 2.467 1.68 4.064 0 1.61-.557 2.963-1.672 4.062-.953.943-2.082 1.475-3.378 1.61v3.124c2.235-.135 4.153-.974 5.764-2.525 1.762-1.7 2.644-3.777 2.644-6.227 0-2.478-.898-4.576-2.683-6.297" mask="url(#co63k95bhc)"/>
                                </g>
                                <path fill="#7D7C7D" d="M67.851 16.431h5.583v-4.883h-5.583v4.883zm-7.878 0h5.312v-4.883h-5.312v4.883zm5.312-8.645c0-1.17-.021-1.709-.134-2.451h2.836c-.09.698-.136 1.282-.136 2.363v1.464h6.166c.992 0 1.466-.024 2.05-.09-.066.63-.089 1.103-.089 1.98v6.866c0 1.012.023 1.597.113 2.25h-2.657v-1.35h-5.583v4.568c0 1.351.045 2.003.16 2.792h-2.882c.112-.832.156-1.53.156-2.792v-4.568h-5.312v1.35h-2.654c.088-.742.11-1.306.11-2.25v-6.89c0-.832-.022-1.237-.089-1.957.653.067 1.125.091 2.025.091h5.92V7.786zM100.47 23.164h4.726v-3.717h-4.727v3.717zm0-5.808h4.726v-3.47h-4.727v3.47zm0-5.562h4.726V8.283h-4.727v3.511zm4.682-5.671c1.215 0 1.823-.023 2.497-.09-.067.697-.089 1.372-.089 2.408v14.723h.203c.697 0 1.191-.047 1.62-.137v2.544c-.72-.09-1.555-.134-2.477-.134h-8.44c-.923 0-1.8.044-2.499.134v-2.522c.54.09.968.115 1.71.115h.405V8.418c0-1.013-.022-1.644-.09-2.385.766.067 1.374.09 2.365.09h4.795zM92.117 8.8c-.921.202-1.283.27-2.497.45-.158-.699-.384-1.262-.878-2.092 1.08-.114 2.16-.293 3.668-.61.562-.112.946-.247 2.16-.742.497-.18.699-.294 1.149-.585l1.397 1.98c-1.171.518-1.712.72-2.657 1.013v3.04h1.17c.743 0 1.126-.022 1.552-.09v2.34c-.47-.066-.855-.09-1.552-.09H94.57c.745 1.35 1.668 2.385 3.108 3.58-.54.788-.88 1.417-1.17 2.25-1.083-1.283-1.598-2.025-2.185-3.152.023.338.045.587.068.743.047.674.068 1.217.068 1.982v4.592c0 1.396.022 2.003.133 2.768h-2.61c.112-.789.135-1.419.135-2.768v-3.873c0-.833.046-1.777.136-2.88-.833 2.317-1.486 3.511-2.791 5.155-.337-.922-.743-1.711-1.17-2.25 1.484-1.577 2.677-3.604 3.556-6.147h-1.352c-.854 0-1.26.024-1.799.113v-2.386c.494.091.877.113 1.824.113h1.596V8.8zM134.873 19.402h2.925v-3.42h-2.925v3.42zm0-5.537h2.925v-3.107h-2.925v3.107zm-5.201 5.537h2.792v-3.42h-2.792v3.42zm0-5.537h2.792v-3.107h-2.792v3.107zm7.99-5.334c1.171 0 1.824-.023 2.61-.113-.088.72-.11 1.44-.11 2.565v8.125c0 1.127.022 1.87.11 2.568-.808-.09-1.483-.111-2.61-.111h-8.102c-1.057 0-1.643.021-2.34.09.09-.765.11-1.375.11-2.5v-8.193c0-1.149-.02-1.757-.11-2.521.494.067 1.146.09 2.34.09h2.904v-.745c0-.987-.045-1.686-.158-2.273h2.7c-.112.655-.133 1.33-.133 2.298v.72h2.79zm-15.26-2.386c1.711 1.126 2.272 1.553 3.848 3.039l-1.484 1.935c-1.216-1.373-1.937-1.98-3.805-3.218l1.44-1.756zm3.219 14.969c.584.899 1.373 1.463 2.407 1.8 1.058.316 2.387.45 4.75.45 1.24 0 3.107-.046 4.974-.113 1.688-.067 2.41-.112 3.737-.29-.429 1.17-.518 1.44-.698 2.631-2.115.114-3.939.136-7.9.136-3.6 0-4.952-.18-6.19-.811-.809-.404-1.419-.92-2.07-1.8-1.104 1.058-1.284 1.216-2.68 2.251-.336.247-.382.27-.765.586l-1.037-2.568c.136-.068.136-.068.497-.222.676-.294 1.732-1.037 2.7-1.87v-4.816h-1.283c-.697 0-1.057.02-1.507.112v-2.432c.473.09.879.114 1.8.114h1.69c.854 0 1.282-.024 1.664-.092-.067.608-.09 1.172-.09 2.207v4.727zM166.71 21.676h4.503V9.5h-4.503v12.177zm-.043 3.85h-2.476c.066-.699.111-1.622.111-2.634V9.43c0-.99-.022-1.733-.111-2.386.697.09 1.214.114 2.205.114h5.156c.944 0 1.552-.024 2.228-.114-.091.675-.112 1.327-.112 2.386v13.236c0 1.17.045 2.139.133 2.881h-2.588V24.04h-4.546v1.485zm-8.712-16.32c-.9.179-1.44.27-2.995.517-.202-.968-.359-1.44-.809-2.25 3.4-.338 6.889-1.24 8.261-2.162l1.462 2.161-.132.046c-.16.046-.16.046-.475.157-.022 0-.111.023-.247.09-.654.248-2.07.7-2.7.879v2.768h1.326c.901 0 1.398-.023 1.893-.113v2.453c-.565-.09-1.103-.112-1.914-.112h-1.148c.27.653.428.923.921 1.576.856 1.17 1.532 1.846 2.725 2.77-.674.651-.81.832-1.44 1.956-1.082-1.17-1.756-2.139-2.5-3.555.09.81.136 1.62.136 2.881v3.94c0 1.395.022 2.093.135 2.86h-2.656c.112-.814.136-1.465.136-2.86V19.47c0-.608.021-1.08.111-2.655-.428 1.215-.72 1.822-1.575 3.286-.384.652-.698 1.078-1.531 2.07-.406-.878-.699-1.35-1.396-2.138 1.058-.945 1.936-2.115 2.814-3.758.63-1.126.63-1.126 1.216-2.635h-1.397c-.831 0-1.44.047-2.07.136v-2.5c.652.113 1.193.136 2.118.136h1.731V9.205zM66.091 40.134h-.646c-.095-.44-.254-.83-.474-1.178-.349.403-.747.75-1.197 1.04-.448.29-1.054.435-1.82.435-.839 0-1.616-.227-2.334-.679-.716-.453-1.289-1.087-1.714-1.9-.425-.812-.64-1.726-.64-2.744 0-.722.117-1.414.347-2.07.232-.657.561-1.235.99-1.732.43-.5.94-.892 1.534-1.177.592-.286 1.242-.427 1.947-.427 1.164 0 2.127.421 2.887 1.268.1-.22.199-.54.296-.956h.618l.11 3.812h-.66c-.119-.648-.334-1.222-.646-1.727-.31-.504-.68-.89-1.11-1.157-.428-.269-.876-.4-1.343-.4-.523 0-.993.158-1.41.477-.416.317-.743.803-.979 1.453-.236.652-.354 1.464-.354 2.436 0 .95.1 1.736.297 2.363.196.63.44 1.107.731 1.426.29.322.583.54.876.653.293.115.568.173.825.173.563 0 1.071-.17 1.523-.504.451-.336.82-.762 1.11-1.273.289-.511.48-1.019.576-1.522h.66v3.91zM74.951 40.24h-3.533v-.703c.318 0 .535-.062.653-.187.119-.126.18-.306.18-.547V36.24c0-.255-.016-.484-.046-.688-.03-.203-.109-.389-.237-.555-.129-.165-.325-.248-.591-.248-.216 0-.434.065-.657.195-.222.129-.392.298-.51.506-.13.236-.21.46-.245.676-.035.217-.051.479-.051.785v1.314c0 .356.011.616.037.782.026.165.097.295.213.389.117.095.31.14.581.14v.705h-3.602v-.704c.307 0 .533-.034.677-.106.145-.072.234-.179.268-.317.035-.141.052-.37.052-.692v-6.408c0-.382-.055-.636-.165-.767-.109-.131-.386-.196-.832-.2v-.688l2.77-.657v5.153c.27-.314.552-.583.843-.797.29-.219.695-.325 1.212-.325.238 0 .477.038.715.114.238.076.452.19.642.337.19.146.329.315.416.503.188.372.28.856.28 1.45v2.285c0 .428.051.72.151.88.099.156.359.235.779.235v.704zM79.666 38.69v-1.895c-.872.305-1.425.604-1.66.898-.237.291-.353.579-.353.858 0 .234.062.423.192.564.128.144.307.216.542.216.251 0 .473-.058.668-.175.19-.117.395-.274.611-.466zm3.154-.062c0 .387-.072.717-.213.99-.141.27-.333.472-.572.602-.242.13-.513.194-.815.194-.386 0-.707-.1-.962-.3-.259-.202-.412-.443-.463-.723-.764.683-1.534 1.023-2.309 1.023-.493 0-.9-.134-1.215-.4-.317-.269-.474-.619-.474-1.057 0-.362.083-.688.254-.982.17-.292.417-.553.745-.782.326-.23.719-.433 1.171-.609.454-.174 1.02-.358 1.699-.553v-.435c0-.36-.077-.646-.23-.852-.154-.205-.438-.307-.85-.307-.351 0-.606.08-.763.243-.155.164-.258.41-.308.74-.037.233-.106.426-.204.577-.098.15-.304.227-.614.227-.193 0-.363-.06-.509-.184-.146-.123-.22-.302-.22-.544 0-.472.231-.886.694-1.235.463-.352 1.174-.528 2.132-.528 1.006 0 1.7.19 2.077.565.38.377.567.881.567 1.513v2.414c0 .306.008.528.022.671.013.143.051.25.113.325.062.073.16.11.292.11.118 0 .224-.07.314-.206.088-.136.134-.303.134-.497h.507zM86.113 30.748c0 .305-.097.565-.292.782-.197.215-.43.325-.705.325-.27 0-.505-.112-.704-.332-.201-.222-.299-.481-.299-.775 0-.306.098-.567.295-.787.198-.22.433-.329.708-.329.28 0 .516.107.708.32.192.215.29.479.29.796zm.777 9.493h-3.732v-.704h.199c.266 0 .46-.04.58-.122.121-.081.197-.197.223-.343.027-.148.041-.363.041-.65v-2.268c0-.315-.017-.54-.05-.67-.035-.136-.125-.23-.27-.292-.142-.061-.385-.094-.723-.098v-.704l2.816-.657v4.69c0 .427.05.719.145.878.096.158.353.236.77.236v.704zM91.363 40.24H87.41v-.703h.297c.263 0 .458-.04.58-.122.12-.081.195-.197.224-.343.027-.148.04-.363.04-.65v-6.506c0-.367-.076-.601-.23-.703-.153-.102-.457-.152-.91-.152v-.702l2.914-.657v8.72c0 .287.013.5.038.645.026.144.097.26.22.343.12.086.315.127.581.127h.198v.704zM96.614 36.177c0-1.16-.414-1.74-1.238-1.74-.397 0-.705.16-.915.48-.215.32-.332.741-.355 1.26h2.508zm1.706.703h-4.227c.003.097.016.301.036.618.022.315.084.639.194.97.107.331.292.608.556.835.264.227.618.34 1.062.34.243 0 .535-.07.88-.205.342-.136.64-.403.893-.794l.536.405c-.54.962-1.4 1.441-2.577 1.441-.527 0-1.006-.083-1.439-.25-.433-.168-.802-.402-1.105-.703-.302-.3-.532-.655-.693-1.062-.16-.408-.242-.845-.242-1.312 0-.618.135-1.187.403-1.713.268-.523.65-.942 1.152-1.251.498-.311 1.07-.466 1.711-.466.627 0 1.16.151 1.592.451.433.299.751.69.959 1.17.205.478.309.987.309 1.526zM103.282 38.69v-1.895c-.872.305-1.425.604-1.66.898-.235.291-.354.579-.354.858 0 .234.063.423.192.564.13.144.309.216.543.216.252 0 .474-.058.668-.175.192-.117.395-.274.61-.466zm3.154-.062c0 .387-.072.717-.213.99-.141.27-.333.472-.573.602-.242.13-.512.194-.814.194-.386 0-.705-.1-.962-.3-.26-.202-.412-.443-.463-.723-.764.683-1.534 1.023-2.31 1.023-.492 0-.898-.134-1.214-.4-.317-.269-.474-.619-.474-1.057 0-.362.084-.688.255-.982.168-.292.416-.553.745-.782.325-.23.72-.433 1.171-.609.453-.174 1.02-.358 1.698-.553v-.435c0-.36-.076-.646-.229-.852-.156-.205-.439-.307-.852-.307-.35 0-.605.08-.761.243-.156.164-.26.41-.308.74-.039.233-.107.426-.204.577-.1.15-.305.227-.616.227-.192 0-.362-.06-.508-.184-.146-.123-.22-.302-.22-.544 0-.472.23-.886.694-1.235.463-.352 1.174-.528 2.13-.528 1.01 0 1.702.19 2.08.565.379.377.566.881.566 1.513v2.414c0 .306.008.528.021.671.014.143.054.25.114.325.063.073.16.11.291.11.12 0 .225-.07.315-.206.088-.136.134-.303.134-.497h.507zM112.726 38.422c0 .44-.12.812-.356 1.122-.235.31-.558.546-.968.706-.41.162-.882.24-1.419.24-.362 0-.727-.038-1.093-.118-.366-.079-.687-.197-.961-.354l-.269.429h-.537l-.067-1.986h.577c.099.34.332.648.694.919.36.273.886.41 1.574.41.173 0 .362-.015.564-.045.2-.025.393-.103.58-.231.186-.127.279-.322.279-.588 0-.23-.096-.396-.285-.5-.19-.106-.546-.231-1.07-.38-.633-.178-1.15-.347-1.552-.506-.405-.163-.745-.391-1.025-.69-.28-.3-.419-.687-.419-1.161 0-.602.249-1.08.746-1.429.497-.351 1.149-.527 1.955-.527.504 0 .907.046 1.21.139.303.09.558.19.762.296l.165-.389h.55v1.773h-.563c-.051-.21-.165-.4-.344-.574-.18-.173-.415-.308-.712-.4-.295-.095-.637-.142-1.027-.142-.321 0-.64.038-.96.114-.317.076-.476.257-.476.544 0 .116.031.213.091.29.063.075.169.147.322.212.151.067.415.153.795.261l.682.19c.745.209 1.36.465 1.838.771.478.305.719.84.719 1.604M118.162 36.177c0-1.16-.414-1.74-1.238-1.74-.397 0-.704.16-.917.48-.213.32-.33.741-.354 1.26h2.509zm1.705.703h-4.228c.005.097.016.301.037.618.023.315.086.639.195.97.106.331.292.608.555.835.264.227.618.34 1.062.34.244 0 .535-.07.88-.205.342-.136.641-.403.893-.794l.535.405c-.54.962-1.398 1.441-2.576 1.441-.528 0-1.007-.083-1.44-.25-.432-.168-.8-.402-1.103-.703-.302-.3-.533-.655-.695-1.062-.159-.408-.24-.845-.24-1.312 0-.618.134-1.187.402-1.713.269-.523.652-.942 1.153-1.251.497-.311 1.069-.466 1.71-.466.627 0 1.16.151 1.592.451.433.299.752.69.959 1.17.205.478.31.987.31 1.526zM131.908 32.574h-.648c-.114-.577-.266-.998-.456-1.26-.19-.268-.403-.43-.639-.49-.237-.063-.565-.092-.986-.092h-1.663v3.658h.873c.413 0 .69-.078.839-.238.146-.157.231-.504.262-1.044h.63v3.443h-.646c-.023-.397-.065-.682-.126-.855-.062-.174-.169-.292-.316-.359-.15-.065-.373-.1-.672-.1h-.844v3.078c0 .42.074.724.223.924.15.199.503.298 1.063.298h.19v.704h-4.784v-.704c.57 0 .934-.093 1.097-.28.163-.185.245-.498.245-.942v-6.504c0-.297-.027-.528-.082-.695-.055-.164-.181-.294-.375-.39-.195-.094-.49-.138-.885-.138v-.704h7.63l.07 2.69zM135.53 30.748c0 .305-.098.565-.292.782-.194.215-.43.325-.706.325-.27 0-.504-.112-.704-.332-.199-.222-.298-.481-.298-.775 0-.306.097-.567.294-.787.197-.22.432-.329.708-.329.28 0 .516.107.71.32.191.215.287.479.287.796zm.776 9.493h-3.731v-.704h.199c.265 0 .458-.04.58-.122.12-.081.196-.197.222-.343.03-.148.043-.363.043-.65v-2.268c0-.315-.017-.54-.052-.67-.035-.136-.123-.23-.269-.292-.143-.061-.385-.094-.723-.098v-.704l2.818-.657v4.69c0 .427.047.719.143.878.095.158.354.236.77.236v.704zM144.754 40.24h-3.56v-.703c.269 0 .463-.04.58-.118.117-.082.187-.195.216-.347.028-.153.042-.405.042-.757v-2.161c0-.433-.058-.776-.172-1.027-.115-.253-.35-.378-.7-.378-.482 0-.84.204-1.077.613-.235.412-.355.885-.355 1.419v1.71c0 .403.053.676.16.824.103.148.33.222.68.222v.704h-3.63v-.704c.297 0 .518-.03.66-.088.142-.06.236-.162.283-.315.046-.148.067-.386.067-.712v-2.467c0-.357-.06-.588-.186-.699-.122-.11-.397-.162-.823-.162v-.704l2.673-.657c.042.296.062.572.062.826 0 .065-.003.12-.003.171-.004.047-.004.102-.004.165.29-.343.59-.623.9-.837.313-.219.702-.325 1.169-.325.393 0 .749.079 1.062.236.313.158.56.398.738.718.178.322.269.707.269 1.161v2.574c0 .428.05.72.155.88.103.156.368.235.794.235v.704zM149.481 38.69v-1.895c-.87.305-1.423.604-1.659.898-.236.291-.353.579-.353.858 0 .234.063.423.191.564.13.144.309.216.544.216.25 0 .473-.058.666-.175.193-.117.396-.274.611-.466zm3.154-.062c0 .387-.07.717-.21.99-.143.27-.336.472-.574.602-.242.13-.513.194-.815.194-.386 0-.705-.1-.962-.3-.258-.202-.411-.443-.462-.723-.765.683-1.534 1.023-2.31 1.023-.494 0-.899-.134-1.215-.4-.317-.269-.475-.619-.475-1.057 0-.362.086-.688.255-.982.169-.292.418-.553.745-.782.327-.23.72-.433 1.173-.609.452-.174 1.02-.358 1.696-.553v-.435c0-.36-.076-.646-.229-.852-.155-.205-.437-.307-.85-.307-.35 0-.606.08-.763.243-.155.164-.259.41-.307.74-.038.233-.106.426-.204.577-.1.15-.304.227-.615.227-.193 0-.363-.06-.508-.184-.148-.123-.222-.302-.222-.544 0-.472.233-.886.694-1.235.463-.352 1.175-.528 2.132-.528 1.01 0 1.7.19 2.079.565.379.377.565.881.565 1.513v2.414c0 .306.008.528.022.671.014.143.053.25.113.325.064.073.16.11.293.11.12 0 .223-.07.314-.206.088-.136.134-.303.134-.497h.506zM160.747 40.24h-3.561v-.703c.272 0 .465-.04.582-.118.116-.082.188-.195.216-.347.028-.153.04-.405.04-.757v-2.161c0-.433-.056-.776-.171-1.027-.114-.253-.348-.378-.7-.378-.482 0-.84.204-1.077.613-.235.412-.354.885-.354 1.419v1.71c0 .403.054.676.16.824.104.148.331.222.68.222v.704h-3.63v-.704c.298 0 .517-.03.659-.088.144-.06.236-.162.283-.315.046-.148.07-.386.07-.712v-2.467c0-.357-.064-.588-.188-.699-.123-.11-.398-.162-.825-.162v-.704l2.675-.657c.04.296.061.572.061.826 0 .065 0 .12-.003.171-.001.047-.004.102-.004.165.29-.343.59-.623.901-.837.312-.219.7-.325 1.168-.325.393 0 .75.079 1.062.236.315.158.56.398.738.718.18.322.27.707.27 1.161v2.574c0 .428.052.72.154.88.103.156.368.235.794.235v.704zM167.557 38.69c-.553 1.201-1.444 1.8-2.673 1.8-.573 0-1.115-.127-1.627-.388-.51-.26-.921-.637-1.23-1.13-.308-.493-.464-1.072-.464-1.733 0-.458.084-.897.253-1.315.167-.416.408-.793.724-1.13.316-.336.691-.598 1.124-.784.432-.184.898-.277 1.392-.277.632 0 1.19.139 1.67.417.482.275.723.66.723 1.147 0 .225-.077.417-.228.575-.152.157-.325.235-.522.235-.19 0-.334-.046-.433-.143-.1-.097-.169-.197-.199-.299-.033-.1-.079-.282-.138-.541-.061-.25-.16-.428-.297-.532-.136-.105-.329-.155-.576-.155-.417 0-.787.171-1.112.513-.32.345-.483.989-.483 1.93 0 .505.065.968.196 1.39.13.422.338.756.62 1.003.281.248.626.37 1.033.37.452 0 .798-.125 1.038-.374.237-.248.447-.542.632-.878l.577.299zM172.885 36.177c0-1.16-.414-1.74-1.239-1.74-.397 0-.703.16-.916.48-.213.32-.331.741-.354 1.26h2.509zm1.705.703h-4.227c.003.097.015.301.036.618.022.315.085.639.194.97.107.331.293.608.555.835.265.227.62.34 1.063.34.243 0 .535-.07.88-.205.342-.136.64-.403.893-.794l.535.405c-.539.962-1.399 1.441-2.575 1.441-.53 0-1.008-.083-1.44-.25-.433-.168-.801-.402-1.105-.703-.301-.3-.531-.655-.694-1.062-.16-.408-.241-.845-.241-1.312 0-.618.135-1.187.404-1.713.267-.523.65-.942 1.151-1.251.5-.311 1.07-.466 1.71-.466.628 0 1.16.151 1.593.451.433.299.752.69.958 1.17.205.478.31.987.31 1.526z" transform="translate(-100 -88) translate(100 88)"/>
                            </g>
                        </g>
                    </g>
                </g>
            </g>
        </g>
    </g>
</svg>
