<svg xmlns="http://www.w3.org/2000/svg" width="18" height="20" viewBox="0 0 18 20">
    <g fill="none" fill-rule="evenodd">
        <g>
            <g>
                <g>
                    <g>
                        <path fill="#666" d="M7 2.085c-2.757 0-5 2.339-5 5.213s2.243 5.213 5 5.213 5-2.339 5-5.213-2.243-5.213-5-5.213m0 12.51c-3.86 0-7-3.273-7-7.297C0 3.275 3.14 0 7 0c3.859 0 7 3.275 7 7.298 0 4.024-3.141 7.298-7 7.298" transform="translate(-929 -1661) translate(877 1607) translate(38.201 40) translate(13.8 14.69)"/>
                        <path fill="#B99515" d="M16.293 18.46l-3-3.127c-.391-.408-.391-1.067 0-1.474.391-.408 1.023-.408 1.414 0l3 3.127c.391.408.391 1.067 0 1.475-.391.407-1.023.407-1.414 0" transform="translate(-929 -1661) translate(877 1607) translate(38.201 40) translate(13.8 14.69)"/>
                    </g>
                </g>
            </g>
        </g>
    </g>
</svg>
