<svg xmlns="http://www.w3.org/2000/svg" xmlns:xlink="http://www.w3.org/1999/xlink" width="240" height="240" viewBox="0 0 240 240">
    <defs>
        <linearGradient id="erx07mmt3c" x1="-1.815%" x2="49.776%" y1="22.262%" y2="58.333%">
            <stop offset="0%" stop-color="#F5E6E9" stop-opacity="0"/>
            <stop offset="100%" stop-color="#FA6A7B"/>
        </linearGradient>
        <linearGradient id="ro2rcthvpd" x1="53.579%" x2="23.024%" y1="60.403%" y2="21.194%">
            <stop offset="0%" stop-color="#F5E6E9" stop-opacity="0"/>
            <stop offset="100%" stop-color="#E7B8C1"/>
        </linearGradient>
        <path id="f9rkm4xwta" d="M0 0H239.36V239.36H0z"/>
    </defs>
    <g fill="none" fill-rule="evenodd">
        <g>
            <g>
                <g transform="translate(-890 -933) translate(890 933)">
                    <mask id="holzk74lvb" fill="#fff">
                        <use xlink:href="#f9rkm4xwta"/>
                    </mask>
                    <use fill="#FFF" opacity=".008" xlink:href="#f9rkm4xwta"/>
                    <g fill-rule="nonzero" mask="url(#holzk74lvb)">
                        <path fill="url(#erx07mmt3c)" d="M95.673 23.919c52.842 0 95.676 42.84 95.676 95.673h47.838C239.187 53.543 185.64 0 119.592 0 53.543 0 0 53.543 0 119.592c0-52.84 42.84-95.673 95.673-95.673z"/>
                        <path fill="url(#ro2rcthvpd)" d="M119.592 191.349c-39.627 0-71.74-32.127-71.74-71.74 0-39.614 32.126-71.74 71.74-71.74 39.613 0 71.74 32.126 71.74 71.74 0-52.84-42.84-95.673-95.676-95.673S0 66.752 0 119.592c0 66.048 53.543 119.595 119.592 119.595h250.053v-47.838H119.592z"/>
                    </g>
                </g>
            </g>
        </g>
    </g>
</svg>
