<svg xmlns="http://www.w3.org/2000/svg" width="20" height="20" viewBox="0 0 20 20">
    <g fill="none" fill-rule="evenodd">
        <g>
            <g>
                <path fill="#FFF" d="M0 0H20V20H0z" opacity=".007" transform="translate(-767 -284) translate(767 284)"/>
                <path fill="#444" fill-rule="nonzero" d="M17 20H3c-.6 0-1-.4-1-1V7h2v11h12V7h2v12c0 .6-.4 1-1 1z" transform="translate(-767 -284) translate(767 284)"/>
                <path fill="#B99515" fill-rule="nonzero" d="M19 3h-6V1c0-.6-.4-1-1-1H8c-.6 0-1 .4-1 1v2H1c-.6 0-1 .4-1 1s.4 1 1 1h18c.6 0 1-.4 1-1s-.4-1-1-1z" transform="translate(-767 -284) translate(767 284)"/>
            </g>
        </g>
    </g>
</svg>
