<svg xmlns="http://www.w3.org/2000/svg" width="20" height="20" viewBox="0 0 20 20">
    <g fill="none" fill-rule="evenodd">
        <g>
            <g>
                <path fill="#FFF" d="M0 0H20V20H0z" opacity=".007" transform="translate(-517 -134) translate(517 134)"/>
                <path fill="#444" fill-rule="nonzero" d="M19 5H1c-.6 0-1-.4-1-1s.4-1 1-1h18c.6 0 1 .4 1 1s-.4 1-1 1z" transform="translate(-517 -134) translate(517 134)"/>
                <path fill="#B99515" fill-rule="nonzero" d="M10 11H1c-.6 0-1-.4-1-1s.4-1 1-1h9c.6 0 1 .4 1 1s-.4 1-1 1z" transform="translate(-517 -134) translate(517 134)"/>
                <path fill="#444" fill-rule="nonzero" d="M19 17H1c-.6 0-1-.4-1-1s.4-1 1-1h18c.6 0 1 .4 1 1s-.4 1-1 1z" transform="translate(-517 -134) translate(517 134)"/>
            </g>
        </g>
    </g>
</svg>
