<svg xmlns="http://www.w3.org/2000/svg" width="20" height="20" viewBox="0 0 20 20">
    <g fill="none" fill-rule="evenodd">
        <g>
            <g>
                <path fill="#FFF" d="M0 0H20V20H0z" opacity=".007" transform="translate(-317 -134) translate(317 134)"/>
                <path fill="#B99515" fill-rule="nonzero" d="M8 13H12V20H8z" transform="translate(-317 -134) translate(317 134)"/>
                <path fill="#444" fill-rule="nonzero" d="M19.7 9.3l-9-9c-.4-.4-1-.4-1.4 0l-9 9c-.4.4-.4 1 0 1.4.4.4 1 .4 1.4 0l.3-.3V19c0 .6.4 1 1 1h3v-2H4V8.4l6-6 6 6V18h-2v2h3c.6 0 1-.4 1-1v-8.6l.3.3c.4.4 1 .4 1.4 0 .4-.4.4-1 0-1.4z" transform="translate(-317 -134) translate(317 134)"/>
            </g>
        </g>
    </g>
</svg>
