<svg xmlns="http://www.w3.org/2000/svg" width="20" height="20" viewBox="0 0 20 20">
    <g fill="none" fill-rule="evenodd">
        <g>
            <g>
                <path fill="#FFF" d="M0 0H20V20H0z" opacity=".007" transform="translate(-367 -284) translate(367 284)"/>
                <path fill="#444" fill-rule="nonzero" d="M10 20C4.5 20 0 15.5 0 10S4.5 0 10 0s10 4.5 10 10-4.5 10-10 10zm0-18c-4.4 0-8 3.6-8 8s3.6 8 8 8 8-3.6 8-8-3.6-8-8-8z" transform="translate(-367 -284) translate(367 284)"/>
                <path fill="#B99515" fill-rule="nonzero" d="M14 9L11 9 11 6 9 6 9 9 6 9 6 11 9 11 9 14 11 14 11 11 14 11z" transform="translate(-367 -284) translate(367 284)"/>
            </g>
        </g>
    </g>
</svg>
