<svg xmlns="http://www.w3.org/2000/svg" width="20" height="20" viewBox="0 0 20 20">
    <g fill="none" fill-rule="evenodd">
        <g>
            <g>
                <path fill="#FFF" d="M0 0H20V20H0z" opacity=".007" transform="translate(-367 -334) translate(367 334)"/>
                <path fill="#B99515" fill-rule="nonzero" d="M18.3 3.085l-8-3.01c-.2-.1-.5-.1-.7 0l-8 3.01c-.4.1-.6.501-.6.902 0 .402.3.803.6.903l8 3.01c.1 0 .2.1.4.1s.2 0 .4-.1l8-3.01c.4-.1.6-.501.6-.903 0-.4-.4-.802-.7-.902z" transform="translate(-367 -334) translate(367 334)"/>
                <path fill="#444" fill-rule="nonzero" d="M10 20c-.1 0-.2 0-.4-.1l-8-3c-.4-.1-.6-.5-.6-.9V8c0-.6.4-1 1-1s1 .4 1 1v7.3l7 2.6 7-2.6V8c0-.6.4-1 1-1s1 .4 1 1v8c0 .4-.3.8-.6.9l-8 3c-.2.1-.3.1-.4.1z" transform="translate(-367 -334) translate(367 334)"/>
            </g>
        </g>
    </g>
</svg>
