<svg xmlns="http://www.w3.org/2000/svg" width="20" height="20" viewBox="0 0 20 20">
    <g fill="none" fill-rule="evenodd">
        <g>
            <g transform="translate(-567 -184) translate(567 184)">
                <path fill="#FFF" d="M0 0H20V20H0z" opacity=".007"/>
                <path fill="#444" fill-rule="nonzero" d="M10.99 20H9.01c-.396 0-.792-.297-.891-.693l-.891-2.574L4.85 17.92c-.396.198-.792.099-1.188-.198l-1.386-1.386c-.297-.297-.396-.792-.198-1.188l1.188-2.377-2.574-.89c-.396-.1-.693-.496-.693-.892V9.01c0-.396.297-.792.693-.891l2.574-.891L2.08 4.85c-.198-.396-.099-.89.198-1.188l1.386-1.386c.297-.297.792-.396 1.188-.198l2.377 1.188.89-2.574C8.219.297 8.615 0 9.01 0h1.98c.396 0 .792.297.891.693l.891 2.574L15.15 2.08c.396-.198.89-.099 1.188.198l1.386 1.386c.297.297.396.792.198 1.188l-1.188 2.377 2.574.89c.396.1.693.496.693.892v1.98c0 .396-.297.792-.693.891l-2.574.891 1.188 2.377c.198.396.099.89-.198 1.188l-1.386 1.386c-.297.297-.792.396-1.188.198l-2.377-1.188-.89 2.574c-.1.396-.496.693-.892.693zm-1.287-1.98h.594l.891-2.673c.198-.595 1.188-.99 1.683-.694l2.575 1.288.396-.396-1.288-2.575c-.297-.594.1-1.485.694-1.683l2.673-.891v-.594l-2.673-.891c-.595-.198-.99-1.188-.694-1.683l1.288-2.575-.396-.396-2.575 1.288c-.594.297-1.485-.1-1.683-.694l-.891-2.673h-.594l-.891 2.673c-.198.595-1.188.99-1.683.694L4.554 4.257l-.396.396 1.288 2.575c.297.594-.1 1.485-.694 1.683l-2.673.891v.594l2.673.891c.595.198.99 1.188.694 1.683l-1.288 2.575.396.396 2.575-1.288c.594-.297 1.485.1 1.683.694l.891 2.673z"/>
                <circle cx="10" cy="10" r="2" fill="#B99515" fill-rule="nonzero"/>
            </g>
        </g>
    </g>
</svg>
