<svg xmlns="http://www.w3.org/2000/svg" width="20" height="20" viewBox="0 0 20 20">
    <g fill="none" fill-rule="evenodd">
        <g>
            <g>
                <path fill="#FFF" d="M0 0H20V20H0z" opacity=".007" transform="translate(-667 -134) translate(667 134)"/>
                <path fill="#444" fill-rule="nonzero" d="M19 2h-3V0h-2v2H6V0H4v2H1c-.6 0-1 .4-1 1v16c0 .6.4 1 1 1h18c.6 0 1-.4 1-1V3c0-.6-.4-1-1-1zm-1 16H2V4h16v14z" transform="translate(-667 -134) translate(667 134)"/>
                <path fill="#B99515" fill-rule="nonzero" d="M7.3 14.7l-2-2c-.4-.4-.4-1 0-1.4.4-.4 1-.4 1.4 0L8 12.6l5.3-5.3c.4-.4 1-.4 1.4 0 .4.4.4 1 0 1.4l-6 6c-.4.4-1 .4-1.4 0z" transform="translate(-667 -134) translate(667 134)"/>
            </g>
        </g>
    </g>
</svg>
