<svg xmlns="http://www.w3.org/2000/svg" width="20" height="20" viewBox="0 0 20 20">
    <g fill="none" fill-rule="evenodd">
        <g>
            <g>
                <path fill="#FFF" d="M0 0H20V20H0z" opacity=".007" transform="translate(-467 -234) translate(467 234)"/>
                <path fill="#444" fill-rule="nonzero" d="M3 6H1c-.6 0-1-.4-1-1s.4-1 1-1h2v2zM19 6h-8V4h8c.6 0 1 .4 1 1s-.4 1-1 1z" transform="translate(-467 -234) translate(467 234)"/>
                <path fill="#B99515" fill-rule="nonzero" d="M8 1H6c-.6 0-1 .4-1 1v6c0 .6.4 1 1 1h2c.6 0 1-.4 1-1V2c0-.6-.4-1-1-1zM14 11h-2c-.6 0-1 .4-1 1v6c0 .6.4 1 1 1h2c.6 0 1-.4 1-1v-6c0-.6-.4-1-1-1z" transform="translate(-467 -234) translate(467 234)"/>
                <path fill="#444" fill-rule="nonzero" d="M19 16h-2v-2h2c.6 0 1 .4 1 1s-.4 1-1 1zM9 16H1c-.6 0-1-.4-1-1s.4-1 1-1h8v2z" transform="translate(-467 -234) translate(467 234)"/>
            </g>
        </g>
    </g>
</svg>
