<svg xmlns="http://www.w3.org/2000/svg" width="20" height="20" viewBox="0 0 20 20">
    <g fill="none" fill-rule="evenodd">
        <g>
            <g transform="translate(-317 -234) translate(317 234)">
                <path fill="#FFF" d="M0 0H20V20H0z" opacity=".007"/>
                <path fill="#444" fill-rule="nonzero" d="M9.3 19.7C8.6 18.9 2 12.2 2 8c0-4.4 3.6-8 8-8s8 3.6 8 8c0 4.2-6.5 10.9-7.3 11.7-.4.4-1 .4-1.4 0zM10 2C6.7 2 4 4.7 4 8c0 2.5 3.8 7.2 6 9.5 2.2-2.3 6-7 6-9.5 0-3.3-2.7-6-6-6z"/>
                <circle cx="10" cy="8" r="2" fill="#B99515" fill-rule="nonzero"/>
            </g>
        </g>
    </g>
</svg>
