<svg xmlns="http://www.w3.org/2000/svg" width="20" height="20" viewBox="0 0 20 20">
    <g fill="none" fill-rule="evenodd">
        <g>
            <g transform="translate(-467 -134) translate(467 134)">
                <path fill="#FFF" d="M0 0H20V20H0z" opacity=".007"/>
                <path fill="#444" fill-rule="nonzero" d="M15 20H5c-1.7 0-3-1.3-3-3V3c0-1.7 1.3-3 3-3h10c1.7 0 3 1.3 3 3v14c0 1.7-1.3 3-3 3zM5 2c-.6 0-1 .4-1 1v14c0 .6.4 1 1 1h10c.6 0 1-.4 1-1V3c0-.6-.4-1-1-1H5z"/>
                <circle cx="10" cy="14" r="2" fill="#B99515" fill-rule="nonzero"/>
            </g>
        </g>
    </g>
</svg>
