<svg xmlns="http://www.w3.org/2000/svg" width="20" height="20" viewBox="0 0 20 20">
    <g fill="none" fill-rule="evenodd">
        <g>
            <g>
                <path fill="#FFF" d="M0 0H20V20H0z" opacity=".007" transform="translate(-317 -184) translate(317 184)"/>
                <path fill="#444" fill-rule="nonzero" d="M19 7c-.6 0-1-.4-1-1 0-2.2-1.8-4-4-4-1.3 0-2.4.6-3.2 1.6-.4.5-1.2.5-1.6 0C8.4 2.6 7.3 2 6 2 3.8 2 2 3.8 2 6c0 .6-.4 1-1 1s-1-.4-1-1c0-3.3 2.7-6 6-6 1.5 0 2.9.6 4 1.5C11.1.5 12.5 0 14 0c3.3 0 6 2.7 6 6 0 .6-.4 1-1 1zM9.78 19.7c-.097-.1-3.132-2.798-5.58-6.096-.293-.4-.293-1.1.196-1.4.392-.3 1.077-.3 1.37.2 1.763 2.3 3.72 4.298 4.7 5.297.979-.999 3.035-2.998 4.797-5.297.294-.4.979-.5 1.37-.2.392.3.49 1 .196 1.4-2.545 3.298-5.482 5.996-5.678 6.096-.391.4-.979.4-1.37 0z" transform="translate(-317 -184) translate(317 184)"/>
                <path fill="#B99515" fill-rule="nonzero" d="M10.955 14c-.402 0-.704-.197-.905-.59L7.84 8.98l-1.006 1.574c-.2.296-.502.394-.804.394H1.005C.402 10.948 0 10.554 0 9.964c0-.591.402-.985 1.005-.985h4.523l1.708-2.56c.201-.295.503-.492.905-.393.402 0 .703.197.804.59l2.21 4.43 1.006-1.575c.2-.295.502-.393.804-.393h6.03c.603 0 1.005.393 1.005.984 0 .59-.402.985-1.005.985h-5.528l-1.708 2.56c-.201.196-.503.393-.804.393z" transform="translate(-317 -184) translate(317 184)"/>
            </g>
        </g>
    </g>
</svg>
