<svg xmlns="http://www.w3.org/2000/svg" width="20" height="20" viewBox="0 0 20 20">
    <g fill="none" fill-rule="evenodd">
        <g>
            <g>
                <path fill="#FFF" d="M0 0H20V20H0z" opacity=".007" transform="translate(-417 -384) translate(417 384)"/>
                <path fill="#444" fill-rule="nonzero" d="M19 20H1c-.6 0-1-.4-1-1V1c0-.6.4-1 1-1h18c.6 0 1 .4 1 1v18c0 .6-.4 1-1 1zM2 18h16V2H2v16z" transform="translate(-417 -384) translate(417 384)"/>
                <path fill="#B99515" fill-rule="nonzero" d="M5 5H15V7H5zM5 9H15V11H5zM5 13H15V15H5z" transform="translate(-417 -384) translate(417 384)"/>
            </g>
        </g>
    </g>
</svg>
