<svg xmlns="http://www.w3.org/2000/svg" width="20" height="20" viewBox="0 0 20 20">
    <g fill="none" fill-rule="evenodd">
        <g>
            <g>
                <path fill="#FFF" d="M0 0H20V20H0z" opacity=".007" transform="translate(-317 -334) translate(317 334)"/>
                <path fill="#444" fill-rule="nonzero" d="M10 20C4.5 20 0 15.5 0 10S4.5 0 10 0s10 4.5 10 10-4.5 10-10 10zm0-18c-4.4 0-8 3.6-8 8s3.6 8 8 8 8-3.6 8-8-3.6-8-8-8z" transform="translate(-317 -334) translate(317 334)"/>
                <path fill="#B99515" fill-rule="nonzero" d="M8.667 11.439C7.905 10.676 6 6 6 6s4.667 1.908 5.429 2.672c.761.763.761 1.908 0 2.671-.858.86-2 .86-2.762.096z" transform="translate(-317 -334) translate(317 334)"/>
            </g>
        </g>
    </g>
</svg>
