<svg xmlns="http://www.w3.org/2000/svg" width="20" height="20" viewBox="0 0 20 20">
    <g fill="none" fill-rule="evenodd">
        <g>
            <g>
                <path fill="#FFF" d="M0 0H20V20H0z" opacity=".007" transform="translate(-667 -184) translate(667 184)"/>
                <path fill="#B99515" fill-rule="nonzero" d="M18 20H2c-.6 0-1-.4-1-1s.4-1 1-1h16c.6 0 1 .4 1 1s-.4 1-1 1z" transform="translate(-667 -184) translate(667 184)"/>
                <path fill="#444" fill-rule="nonzero" d="M7 16H3c-.6 0-1-.4-1-1v-4c0-.3.1-.5.3-.7l10-10c.4-.4 1-.4 1.4 0l4 4c.4.4.4 1 0 1.4l-10 10c-.2.2-.4.3-.7.3zm-3-2h2.6l9-9L13 2.4l-9 9V14z" transform="translate(-667 -184) translate(667 184)"/>
            </g>
        </g>
    </g>
</svg>
