<svg xmlns="http://www.w3.org/2000/svg" width="20" height="20" viewBox="0 0 20 20">
    <g fill="none" fill-rule="evenodd">
        <g>
            <g>
                <path fill="#FFF" d="M0 0H20V20H0z" opacity=".007" transform="translate(-317 -384) translate(317 384)"/>
                <path fill="#444" fill-rule="nonzero" d="M10 20C4.5 20 0 15.5 0 10S4.5 0 10 0s10 4.5 10 10-4.5 10-10 10zm0-18c-4.4 0-8 3.6-8 8s3.6 8 8 8 8-3.6 8-8-3.6-8-8-8z" transform="translate(-317 -384) translate(317 384)"/>
                <path fill="#B99515" fill-rule="nonzero" d="M13.838 11.981l-4.032-.998c-.403-.1-.806-.498-.806-.997V4.998C9 4.399 9.403 4 10.008 4s1.008.4 1.008.998v4.19l3.225.798c.504.1.908.698.706 1.197-.1.599-.605.898-1.109.798z" transform="translate(-317 -384) translate(317 384)"/>
            </g>
        </g>
    </g>
</svg>
