<svg xmlns="http://www.w3.org/2000/svg" width="20" height="20" viewBox="0 0 20 20">
    <g fill="none" fill-rule="evenodd">
        <g>
            <g>
                <path fill="#FFF" d="M0 0H20V20H0z" opacity=".007" transform="translate(-667 -384) translate(667 384)"/>
                <path fill="#4D4D4D" fill-rule="nonzero" d="M19 20H1c-.6 0-1-.4-1-1V1c0-.6.4-1 1-1s1 .4 1 1v17h17c.6 0 1 .4 1 1s-.4 1-1 1z" transform="translate(-667 -384) translate(667 384)"/>
                <path fill="#B99515" fill-rule="nonzero" d="M4 12H7V16H4zM9 5H12V16H9zM14 9H17V16H14z" transform="translate(-667 -384) translate(667 384)"/>
            </g>
        </g>
    </g>
</svg>
