<svg xmlns="http://www.w3.org/2000/svg" width="20" height="20" viewBox="0 0 20 20">
    <g fill="none" fill-rule="evenodd">
        <g>
            <g>
                <path fill="#FFF" d="M0 0H20V20H0z" opacity=".007" transform="translate(-717 -184) translate(717 184)"/>
                <path fill="#444" fill-rule="nonzero" d="M8 9H1c-.6 0-1-.4-1-1V1c0-.6.4-1 1-1h7c.6 0 1 .4 1 1v7c0 .6-.4 1-1 1zM2 7h5V2H2v5z" transform="translate(-717 -184) translate(717 184)"/>
                <path fill="#B99515" fill-rule="nonzero" d="M19 0h-7c-.6 0-1 .4-1 1v7c0 .6.4 1 1 1h7c.6 0 1-.4 1-1V1c0-.6-.4-1-1-1zM8 11H1c-.6 0-1 .4-1 1v7c0 .6.4 1 1 1h7c.6 0 1-.4 1-1v-7c0-.6-.4-1-1-1z" transform="translate(-717 -184) translate(717 184)"/>
                <path fill="#444" fill-rule="nonzero" d="M19 20h-7c-.6 0-1-.4-1-1v-7c0-.6.4-1 1-1h7c.6 0 1 .4 1 1v7c0 .6-.4 1-1 1zm-6-2h5v-5h-5v5z" transform="translate(-717 -184) translate(717 184)"/>
            </g>
        </g>
    </g>
</svg>
