<svg xmlns="http://www.w3.org/2000/svg" width="90" height="90" viewBox="0 0 90 90">
    <g fill="none" fill-rule="evenodd">
        <g>
            <g>
                <g fill-rule="nonzero">
                    <g fill="#DF3219">
                        <g>
                            <path d="M10.77 11.99c-.55 0-1-.45-1-1V7.55c0-1.5 1.22-2.72 2.72-2.72h6.91l-1.1-3.4c-.17-.53.12-1.09.64-1.26.53-.17 1.09.12 1.26.64l1.52 4.71c.1.3.04.64-.14.9-.19.26-.49.41-.81.41h-8.28c-.4 0-.72.32-.72.72v3.44c0 .55-.45 1-1 1z" transform="translate(-315 -831) translate(315 831) translate(14 11) translate(14) translate(7 28)"/>
                            <path d="M10.77 11.99c-.55 0-1-.45-1-1V7.55c0-.4-.32-.72-.72-.72H1.04c-.31 0-.61-.15-.8-.4-.19-.25-.25-.58-.16-.88L1.41.88c.15-.53.71-.83 1.24-.69.53.15.84.71.69 1.24l-.97 3.39h6.69c1.5 0 2.72 1.22 2.72 2.72v3.44c-.01.56-.46 1.01-1.01 1.01z" transform="translate(-315 -831) translate(315 831) translate(14 11) translate(14) translate(7 28)"/>
                        </g>
                        <path d="M18.79 20h-2c-.55 0-1-.45-1-1s.45-1 1-1h2c.55 0 1 .45 1 1s-.45 1-1 1zM17.79 16c-4.19 0-7-3.21-7-8s2.81-8 7-8c4.19 0 7 3.21 7 8s-2.82 8-7 8zm0-14c-3.69 0-5 3.23-5 6s1.31 6 5 6 5-3.23 5-6-1.31-6-5-6z" transform="translate(-315 -831) translate(315 831) translate(14 11) translate(14)"/>
                        <path d="M17.79 28c-.55 0-1-.45-1-1v-8c0-.55.45-1 1-1s1 .45 1 1v8c0 .56-.45 1-1 1z" transform="translate(-315 -831) translate(315 831) translate(14 11) translate(14)"/>
                        <path d="M31.79 40H21.54c-.55 0-1-.45-1-1s.45-1 1-1h10.24c.67 0 1.13-.19 1.42-.59.43-.59.48-1.66.12-2.8l-3.09-9.57C29.01 21.61 27.18 20 24.49 20h-.15l-4.83 7.89c-.32.6-1 1-1.73 1-.74 0-1.41-.4-1.76-1.05L11.22 20h-.15c-2.69 0-4.52 1.61-5.75 5.07l-3.08 9.55c-.36 1.12-.31 2.2.13 2.79.29.4.76.59 1.42.59h10.24c.55 0 1 .45 1 1s-.45 1-1 1H3.79c-1.65 0-2.56-.77-3.03-1.41-.83-1.13-.98-2.8-.42-4.58l3.1-9.58C4.96 20.16 7.53 18 11.08 18h.71c.35 0 .67.18.85.48l5.12 8.37 5.17-8.37c.18-.3.5-.48.85-.48h.71c3.56 0 6.13 2.15 7.63 6.4l3.1 9.61c.56 1.79.41 3.46-.42 4.59-.45.64-1.36 1.4-3.01 1.4z" transform="translate(-315 -831) translate(315 831) translate(14 11) translate(14)"/>
                    </g>
                    <g fill="#20201D">
                        <path d="M38.26 29.43c-1.04 0-2.05-.42-2.8-1.17-.76-.76-1.17-1.76-1.17-2.83s.42-2.07 1.18-2.83l1.36-1.32c.4-.38 1.03-.37 1.41.02.38.4.37 1.03-.02 1.41l-1.35 1.31c-.37.37-.58.87-.58 1.4 0 .53.21 1.04.58 1.41.38.38.91.61 1.43.58.5-.01.95-.22 1.27-.58l8.07-7.57c.19-.17.43-.27.68-.27h6.25c.55 0 1 .45 1 1s-.45 1-1 1h-5.85L41 28.23c-.63.71-1.6 1.16-2.65 1.18-.02.02-.06.02-.09.02zM1.58 2.01c-.55 0-1-.45-1-1s.45-1 1-1h60c.55 0 1 .45 1 1s-.45 1-1 1h-60zM18.55 23.98c-1.02 0-2.05-.39-2.83-1.17-.76-.76-1.17-1.76-1.17-2.83s.42-2.07 1.18-2.83L26.5 6.42c.39-.39 1.02-.39 1.41 0 .39.39.39 1.03 0 1.42L17.14 18.57c-.38.38-.59.88-.59 1.41 0 .53.21 1.04.58 1.41.75.75 2.07.75 2.82 0l8.38-8.38c.39-.39 1.02-.39 1.41 0 .39.39.39 1.02 0 1.41l-8.38 8.38c-.77.79-1.79 1.18-2.81 1.18z" transform="translate(-315 -831) translate(315 831) translate(14 11) translate(0 38)"/>
                        <path d="M26.11 25.01c-.98 0-1.95-.46-2.82-1.33-.76-.76-1.17-1.76-1.17-2.83s.42-2.07 1.18-2.83l5.29-5.26c.39-.39 1.02-.39 1.41 0 .39.39.39 1.02 0 1.41l-5.29 5.26c-.38.38-.59.88-.59 1.41 0 .53.21 1.04.58 1.42.35.35.87.74 1.43.74.41-.01.84-.26 1.27-.74l5.25-5.25c.39-.39 1.02-.39 1.41 0 .39.39.39 1.02 0 1.41l-5.21 5.21c-.78.87-1.69 1.34-2.67 1.37-.01.01-.04.01-.07.01z" transform="translate(-315 -831) translate(315 831) translate(14 11) translate(0 38)"/>
                        <path d="M31.93 27.35c-1.04 0-2.05-.42-2.8-1.17-.76-.76-1.17-1.76-1.17-2.83s.42-2.07 1.18-2.83l3.54-3.5c.39-.39 1.03-.38 1.41.01.39.39.38 1.03-.01 1.41l-3.54 3.49c-.38.37-.58.88-.58 1.41 0 .53.21 1.04.58 1.41.38.38.89.62 1.43.58.5-.01.95-.22 1.27-.58l3.52-3.52c.39-.39 1.02-.39 1.41 0 .39.39.39 1.02 0 1.41l-3.48 3.48c-.66.74-1.62 1.18-2.67 1.21-.02.02-.06.02-.09.02zM39.05 14.48c-1.02 0-2.05-.39-2.83-1.17L30.91 8h-3.58c-.55 0-1-.45-1-1s.45-1 1-1h3.99c.27 0 .52.11.71.29l5.6 5.6c.78.78 2.05.78 2.83 0 .78-.78.78-2.05 0-2.83L33.1 1.7c-.39-.39-.39-1.02 0-1.41.39-.39 1.02-.39 1.41 0l7.36 7.36c1.56 1.56 1.56 4.1 0 5.66-.77.78-1.79 1.17-2.82 1.17zM15.58 21H8.96c-.55 0-1-.45-1-1s.45-1 1-1h6.62c.55 0 1 .45 1 1s-.44 1-1 1z" transform="translate(-315 -831) translate(315 831) translate(14 11) translate(0 38)"/>
                    </g>
                </g>
                <path fill="#FFF" d="M0 0H90V90H0z" opacity=".01" transform="translate(-315 -831) translate(315 831)"/>
            </g>
        </g>
    </g>
</svg>
