<svg xmlns="http://www.w3.org/2000/svg" width="90" height="90" viewBox="0 0 90 90">
    <g fill="none" fill-rule="evenodd">
        <g>
            <g>
                <g stroke-width=".5">
                    <path fill="#4D4D4D" stroke="#4D4D4D" d="M4.644 31.343c1.055 1.066 1.268 3.393 1.473 6.82.034.555-.388 1.03-.94 1.063-.55.04-1.029-.388-1.062-.942-.11-1.84-.295-4.92-.896-5.526-.164-.165-.374-.212-.592-.13-.217.083-.345.256-.359.488-.212 3.527-.333 5.926-.216 9.491.017.536.096 1.424.159 1.656.482 1.779 1.077 3.67 1.93 6.132.214.616.502 1.075.964 1.536 1.127 1.123 2.22 2.26 3.277 3.36 1.302 1.354 2.647 2.755 4.055 4.126.023.021.044.044.064.068.734.859 1.401 1.641 1.52 3.588.045.732.071 1.369.095 2.013l.018.485.043 1.174h8.156v-7.319c0-2.7-1.334-4.825-4.325-6.89-2.438-1.684-4.183-3.62-5.871-5.49-1.186-1.314-2.412-2.673-3.864-3.92-.173-.15-.339-.234-.43-.221-.095.01-.233.113-.344.257 0 .007-.083.203.051.968.16.883.75 2.096 1.621 3.323.854 1.201 1.944 2.375 3.072 3.305.428.352.489.985.137 1.413-.352.428-.984.49-1.412.138-1.28-1.055-2.466-2.331-3.432-3.692-.744-1.048-1.688-2.617-1.961-4.135-.15-.851-.225-1.815.333-2.543.265-.346.843-.94 1.727-1.032.463-.047 1.175.033 1.944.694 1.55 1.33 2.819 2.738 4.047 4.099 1.685 1.867 3.276 3.631 5.52 5.181 2.23 1.54 5.194 4.1 5.194 8.545v8.323c0 .554-.45 1.005-1.003 1.005H13.219c-.534 0-.975-.42-1.002-.954-.041-.82-.066-1.504-.088-2.158-.028-.8-.056-1.55-.11-2.447-.079-1.275-.392-1.643-1.016-2.375-1.397-1.358-2.755-2.77-4.067-4.137-1.05-1.092-2.135-2.222-3.246-3.328-.673-.672-1.132-1.402-1.445-2.302-.869-2.508-1.477-4.44-1.97-6.264-.17-.628-.229-2.102-.229-2.116-.119-3.652.004-6.093.22-9.677.06-1.025.695-1.886 1.654-2.247.96-.362 2.003-.134 2.724.594zm45.02-.594c.96.362 1.593 1.223 1.654 2.248.216 3.575.338 6.012.22 9.676 0 .015-.057 1.486-.23 2.117-.494 1.825-1.101 3.757-1.97 6.263-.312.898-.77 1.63-1.445 2.301-1.113 1.109-2.2 2.239-3.25 3.333-1.301 1.354-2.646 2.754-4.065 4.137-.63.739-.937 1.115-1.013 2.371-.055.894-.082 1.644-.11 2.442-.023.655-.048 1.342-.09 2.163-.025.535-.467.954-1 .954H28.247c-.555 0-1.004-.45-1.004-1.005v-8.323c0-4.445 2.963-7.005 5.192-8.545 2.245-1.55 3.837-3.313 5.521-5.181 1.229-1.361 2.498-2.768 4.047-4.099.77-.66 1.48-.74 1.944-.694.884.091 1.461.685 1.727 1.032.56.728.482 1.692.333 2.538-.273 1.523-1.217 3.09-1.96 4.14-.965 1.36-2.152 2.635-3.432 3.692-.427.353-1.06.29-1.412-.137-.353-.429-.291-1.061.136-1.414 1.129-.93 2.22-2.105 3.072-3.305.871-1.227 1.462-2.44 1.621-3.327.134-.76.052-.957.042-.978-.102-.13-.24-.234-.334-.243-.104-.014-.258.073-.43.22-1.453 1.248-2.68 2.607-3.865 3.921-1.687 1.871-3.432 3.806-5.87 5.49-2.992 2.064-4.326 4.19-4.326 6.89v7.319h8.156c.017-.417.03-.803.043-1.179.03-.815.057-1.58.112-2.493.12-1.948.788-2.73 1.496-3.56.02-.023.067-.075.089-.096 1.407-1.37 2.751-2.77 4.052-4.123 1.057-1.1 2.152-2.24 3.28-3.363.462-.46.75-.92.964-1.536.853-2.46 1.448-4.352 1.93-6.132.063-.23.142-1.12.16-1.657.116-3.575-.005-5.97-.217-9.49-.014-.233-.142-.406-.359-.488-.217-.082-.428-.035-.592.13-.602.607-.785 3.686-.895 5.526-.033.554-.51.977-1.06.942-.554-.033-.975-.508-.943-1.062.204-3.427.418-5.754 1.473-6.82.722-.73 1.766-.956 2.725-.595zM39.86 18.94c2.671 0 4.845 2.176 4.845 4.85v4.802c0 1.4-.61 2.725-1.653 3.642v5.517c0 1.763-1.432 3.198-3.192 3.198-1.76 0-3.192-1.435-3.192-3.197v-5.518c-1.043-.918-1.652-2.243-1.652-3.642V23.79c0-2.675 2.173-4.851 4.844-4.851zM13.593 10.73c1.559 0 3.026.612 4.135 1.722 1.109 1.11 1.72 2.581 1.72 4.141v6.063c0 .197-.01.391-.03.583v.434c-.008 2.254-.012 3.386 1.5 4.897.286.287.372.72.217 1.095-.156.374-.521.62-.928.62h-2.846v6.888c0 2.08-1.69 3.774-3.769 3.774-2.076 0-3.768-1.694-3.768-3.774l.001-6.889H6.98c-.406 0-.772-.245-.927-.62-.156-.375-.07-.807.217-1.094 1.51-1.512 1.507-2.644 1.5-4.9l-.002-.43c-.018-.192-.029-.387-.029-.584v-6.063c0-3.233 2.627-5.863 5.854-5.863h.001zM39.86 20.947c-1.565 0-2.839 1.275-2.839 2.843v4.8c0 .926.458 1.798 1.225 2.333.269.188.429.495.429.823v6.005c0 .654.531 1.188 1.185 1.188s1.186-.534 1.186-1.189v-6.004c0-.328.16-.636.43-.824.765-.534 1.223-1.406 1.223-2.331V23.79c0-1.568-1.274-2.843-2.84-2.843zM13.592 12.74c-2.121 0-3.847 1.729-3.847 3.854v6.063c0 .142.008.282.023.419.004.037.006.075.006.11l.001.479v.646c-.006 1.471-.087 2.71-.77 3.966h1.824c.266 0 .521.106.71.294.187.188.293.444.293.71v7.893c0 .974.79 1.765 1.76 1.765.972 0 1.762-.792 1.762-1.765v-7.893c0-.554.45-1.004 1.003-1.004h1.824c-.78-1.436-.776-2.847-.77-4.61l.002-.48c0-.036.002-.072.005-.108.015-.138.023-.28.023-.422v-6.063c0-2.125-1.726-3.854-3.849-3.854zm26.268-.853c1.76 0 3.192 1.434 3.192 3.196 0 1.701-1.335 3.096-3.011 3.19l-.181.005c-1.76 0-3.192-1.434-3.192-3.195 0-1.762 1.433-3.196 3.192-3.196zm0 2.009c-.653 0-1.185.532-1.186 1.187 0 .654.532 1.186 1.186 1.186.654 0 1.186-.532 1.186-1.186 0-.655-.532-1.187-1.186-1.187zM13.592 2.537c2.078 0 3.769 1.692 3.769 3.772 0 2.014-1.587 3.665-3.575 3.767l-.194.005c-2.076-.001-3.768-1.694-3.768-3.772.002-2.08 1.692-3.772 3.768-3.772zm0 2.009c-.97 0-1.76.791-1.76 1.763 0 .972.79 1.763 1.76 1.763.972 0 1.762-.791 1.762-1.763 0-.973-.79-1.763-1.762-1.763z" transform="translate(-555 -951) translate(555 951) translate(19 11)"/>
                    <path fill="#B99515" stroke="#B99515" d="M27.823 40.948c-2.35 0-4.26-1.914-4.26-4.266v-8.434c-1.548-1.276-2.459-3.18-2.459-5.192v-7.141c0-3.709 3.014-6.726 6.72-6.726 1.787 0 3.473.701 4.744 1.975 1.272 1.273 1.972 2.961 1.972 4.751v7.141c0 2.014-.91 3.918-2.458 5.192v8.433c0 2.353-1.91 4.267-4.259 4.267zm0-29.751c-2.598 0-4.712 2.117-4.712 4.718v7.141c0 1.536.76 2.983 2.029 3.87.27.188.43.495.43.824l-.001 8.932c0 1.244 1.012 2.257 2.254 2.257s2.252-1.013 2.252-2.258v-8.93c0-.33.16-.637.43-.825 1.27-.886 2.03-2.333 2.03-3.87v-7.141c0-2.602-2.114-4.718-4.712-4.718zm0-2.67c-2.35 0-4.26-1.913-4.26-4.263C23.564 1.912 25.474 0 27.823 0c2.348 0 4.259 1.913 4.259 4.264 0 2.35-1.91 4.264-4.259 4.264zM25.57 4.265c0 1.243 1.012 2.255 2.254 2.255s2.252-1.011 2.252-2.255c0-1.243-1.01-2.255-2.252-2.255-1.242 0-2.253 1.012-2.254 2.255z" transform="translate(-555 -951) translate(555 951) translate(19 11)"/>
                </g>
                <path fill="#FFF" d="M0 0H90V90H0z" opacity=".01" transform="translate(-555 -951) translate(555 951)"/>
            </g>
        </g>
    </g>
</svg>
