<svg xmlns="http://www.w3.org/2000/svg" width="90" height="90" viewBox="0 0 90 90">
    <g fill="none" fill-rule="evenodd">
        <g>
            <g>
                <g fill-rule="nonzero">
                    <path fill="#B99515" d="M55.673 14.742c-.235 0-.48-.088-.665-.264-.392-.371-.421-.988-.05-1.38l8.502-9.097c1.477-1.673 3.63-2.631 5.88-2.631h17.236c1.722 0 3.12 1.398 3.12 3.12V5c0 1.722-1.398 3.12-3.12 3.12H77.44c-.538 0-.978-.44-.978-.978s.44-.978.978-.978h9.137c.646 0 1.164-.528 1.164-1.164V4.49c0-.645-.518-1.164-1.164-1.164H69.34c-1.692 0-3.316.724-4.431 1.996l-8.511 9.117c-.206.206-.47.303-.724.303z" transform="translate(-315 -711) translate(315 711) translate(0 18)"/>
                    <path fill="#B99515" d="M80.814 12.913h-7.22c-.537 0-.978-.44-.978-.978s.44-.978.979-.978h7.22c.645 0 1.163-.529 1.163-1.165v-.508c0-.646-.518-1.164-1.164-1.164h-4.343c-.538 0-.979-.44-.979-.979 0-.538.44-.978.979-.978h4.343c1.722 0 3.12 1.399 3.12 3.12v.51c0 1.721-1.398 3.12-3.12 3.12z" transform="translate(-315 -711) translate(315 711) translate(0 18)"/>
                    <path fill="#B99515" d="M76.02 17.707H64.967c-.538 0-.978-.44-.978-.979 0-.538.44-.978.978-.978h11.055c.645 0 1.164-.528 1.164-1.164v-.509c0-.645-.519-1.164-1.164-1.164H69.76c-.538 0-.978-.44-.978-.978s.44-.978.978-.978h6.26c1.722 0 3.121 1.398 3.121 3.12v.509c0 1.722-1.399 3.12-3.12 3.12z" transform="translate(-315 -711) translate(315 711) translate(0 18)"/>
                    <path fill="#B99515" d="M71.227 22.5H63.05c-.538 0-.978-.44-.978-.978s.44-.979.978-.979h8.178c.646 0 1.164-.528 1.164-1.164v-.508c0-.646-.518-1.164-1.164-1.164H69.76c-.538 0-.978-.44-.978-.979 0-.538.44-.978.978-.978h1.467c1.722 0 3.12 1.399 3.12 3.12v.51c0 1.721-1.398 3.12-3.12 3.12z" transform="translate(-315 -711) translate(315 711) translate(0 18)"/>
                    <g fill="#DF3219">
                        <path d="M34.914 13.764c-.264 0-.518-.107-.714-.313l-8.501-9.098c-1.145-1.291-2.759-2.015-4.451-2.015H4.01c-.646 0-1.164.519-1.164 1.164v.509c0 .646.518 1.164 1.164 1.164h9.137c.538 0 .978.44.978.978s-.44.979-.978.979H4.01c-1.722 0-3.12-1.4-3.12-3.121v-.509C.89 1.78 2.288.382 4.01.382h17.237c2.25 0 4.402.968 5.899 2.65l8.481 9.079c.372.391.352 1.017-.049 1.38-.186.185-.43.273-.665.273z" transform="translate(-315 -711) translate(315 711) translate(0 18) translate(0 .978)"/>
                        <path d="M16.983 11.935h-7.22c-1.722 0-3.12-1.4-3.12-3.12v-.51c0-1.721 1.398-3.12 3.12-3.12h4.344c.538 0 .978.44.978.978s-.44.978-.978.978H9.763c-.646 0-1.164.519-1.164 1.164v.51c0 .645.518 1.163 1.164 1.163h7.22c.538 0 .978.44.978.979 0 .538-.44.978-.978.978z" transform="translate(-315 -711) translate(315 711) translate(0 18) translate(0 .978)"/>
                        <path d="M25.61 16.728H14.558c-1.722 0-3.121-1.399-3.121-3.12v-.51c0-1.72 1.399-3.12 3.12-3.12h6.261c.538 0 .979.44.979.979 0 .538-.44.978-.979.978h-6.26c-.646 0-1.165.518-1.165 1.164v.509c0 .645.519 1.164 1.165 1.164H25.61c.538 0 .978.44.978.978 0 .548-.43.978-.978.978z" transform="translate(-315 -711) translate(315 711) translate(0 18) translate(0 .978)"/>
                        <path d="M27.538 21.522H19.36c-1.722 0-3.12-1.4-3.12-3.12v-.51c0-1.721 1.398-3.12 3.12-3.12h1.467c.538 0 .978.44.978.978s-.44.978-.978.978H19.36c-.646 0-1.164.529-1.164 1.164v.51c0 .645.518 1.163 1.164 1.163h8.178c.538 0 .978.44.978.978 0 .539-.44.979-.978.979z" transform="translate(-315 -711) translate(315 711) translate(0 18) translate(0 .978)"/>
                    </g>
                    <g fill="#20201D">
                        <path d="M19.585 52.895h-.206C5.997 52.895.01 44.94.01 37.057c0-11.055 11.378-21.464 13.403-22.148.509-.176 1.066.098 1.242.616.176.509-.097 1.066-.616 1.242-1.624.568-12.081 10.33-12.081 20.3 0 9.586 8.745 13.88 17.413 13.88h.205c8.667 0 17.413-4.294 17.413-13.88 0-9.97-10.448-19.722-12.072-20.3-.508-.176-.782-.733-.606-1.242.176-.509.724-.783 1.232-.607 2.025.685 13.403 11.104 13.403 22.148.01 7.875-5.978 15.829-19.36 15.829z" transform="translate(-315 -711) translate(315 711) translate(0 18) translate(25.435)"/>
                        <path d="M25.249 16.816H13.93c-.303 0-.587-.137-.772-.381-.186-.245-.245-.558-.167-.851l.519-1.967c.137-.518.675-.831 1.193-.694.519.137.832.675.695 1.193l-.196.734H25.25c.538 0 .978.44.978.978 0 .548-.44.988-.978.988zM24.916 12.815c-.45 0-.85-.303-.949-.763l-.205-.9h-9.127c-.43 0-.812-.284-.94-.694l-2.122-7.073c-.225-.773-.088-1.526.372-2.143C12.512.49 13.568 0 14.625 0h9.9c1.027 0 2.064.49 2.641 1.242.47.617.626 1.37.421 2.113l-2.054 6.858.322 1.409c.118.528-.205 1.056-.733 1.174-.059.01-.127.02-.206.02zm-9.557-3.61h8.452l1.917-6.378c.04-.127.01-.254-.098-.391-.215-.274-.675-.48-1.095-.48h-9.9c-.45 0-.92.196-1.125.46-.069.088-.118.206-.059.411l1.908 6.378z" transform="translate(-315 -711) translate(315 711) translate(0 18) translate(25.435)"/>
                        <path d="M25.454 6.701h-5.87c-.537 0-.977-.44-.977-.978s.44-.978.978-.978h5.87c.537 0 .978.44.978.978s-.44.978-.979.978z" transform="translate(-315 -711) translate(315 711) translate(0 18) translate(25.435)"/>
                    </g>
                </g>
                <path fill="#FFF" d="M0 0H90V90H0z" opacity=".01" transform="translate(-315 -711) translate(315 711)"/>
            </g>
        </g>
    </g>
</svg>
