<svg xmlns="http://www.w3.org/2000/svg" width="90" height="90" viewBox="0 0 90 90">
    <g fill="none" fill-rule="evenodd">
        <g>
            <g>
                <g fill-rule="nonzero">
                    <g fill="#20201D">
                        <path d="M24 55.12H1.67c-.55 0-1-.45-1-1v-4.23c0-.55.45-1 1-1H27c.55 0 1 .45 1 1s-.45 1-1 1H2.67v2.23H24c.55 0 1 .45 1 1s-.45 1-1 1zM40.18 46.86c-.55 0-1-.45-1-1V24.58c0-.55.45-1 1-1h7.86c.55 0 1 .45 1 1V40c0 .55-.45 1-1 1s-1-.45-1-1V25.58h-5.86v20.28c0 .56-.45 1-1 1z" transform="translate(-675 -591) translate(675 591) translate(11 14)"/>
                        <path d="M44 46.88h-6.24c-.55 0-1-.45-1-1s.45-1 1-1H44c.55 0 1 .45 1 1s-.45 1-1 1zM50.46 25.53h-12.7c-.55 0-1-.45-1-1s.45-1 1-1h12.7c.55 0 1 .45 1 1s-.44 1-1 1zM31.91 46.86h-7.86c-.55 0-1-.45-1-1V24.58c0-.55.45-1 1-1h7.86c.55 0 1 .45 1 1v21.28c0 .56-.44 1-1 1zm-6.86-2h5.86V25.58h-5.86v19.28z" transform="translate(-675 -591) translate(675 591) translate(11 14)"/>
                        <path d="M34.33 46.88h-12.7c-.55 0-1-.45-1-1s.45-1 1-1h12.7c.55 0 1 .45 1 1s-.44 1-1 1zM34.33 25.53h-12.7c-.55 0-1-.45-1-1s.45-1 1-1h12.7c.55 0 1 .45 1 1s-.44 1-1 1zM18.21 46.88H5.51c-.55 0-1-.45-1-1s.45-1 1-1h12.7c.55 0 1 .45 1 1s-.45 1-1 1z" transform="translate(-675 -591) translate(675 591) translate(11 14)"/>
                        <path d="M15.79 46.86H7.92c-.55 0-1-.45-1-1V24.53c0-.55.45-1 1-1h7.87c.55 0 1 .45 1 1v21.33c0 .55-.45 1-1 1zm-6.87-2h5.87V25.53H8.92v19.33z" transform="translate(-675 -591) translate(675 591) translate(11 14)"/>
                        <path d="M18.21 25.53H5.51c-.55 0-1-.45-1-1s.45-1 1-1h12.7c.55 0 1 .45 1 1s-.45 1-1 1zM53.38 21.5H2.59c-.55 0-1-.45-1-1v-3.48c0-.35.19-.68.49-.86l25.39-15.1c.31-.19.71-.19 1.02 0l25.39 15.1c.3.18.49.51.49.86v3.48c.01.56-.44 1-.99 1zm-49.79-2h48.79v-1.91L27.99 3.09 3.6 17.59v1.91h-.01z" transform="translate(-675 -591) translate(675 591) translate(11 14)"/>
                        <path d="M40.83 17.02H15.14c-.55 0-1-.45-1-1s.45-1 1-1h25.69c.55 0 1 .45 1 1s-.45 1-1 1z" transform="translate(-675 -591) translate(675 591) translate(11 14)"/>
                    </g>
                    <g fill="#DF3219">
                        <g>
                            <g>
                                <path d="M10.69 9.49C5.62 9.49.16 8.16.16 5.23c0-.55.45-1 1-1s1 .45 1 1c0 .66 2.99 2.26 8.53 2.26 5.54 0 8.53-1.6 8.53-2.26 0-.55.45-1 1-1s1 .45 1 1c-.01 2.93-5.46 4.26-10.53 4.26z" transform="translate(-675 -591) translate(675 591) translate(11 14) translate(28 40) translate(19) translate(0 12)"/>
                                <path d="M10.69 5.52C5.62 5.52.16 4.19.16 1.26c0-.55.45-1 1-1s1 .45 1 1c0 .66 2.99 2.26 8.53 2.26 5.54 0 8.53-1.6 8.53-2.26 0-.55.45-1 1-1s1 .45 1 1c-.01 2.93-5.46 4.26-10.53 4.26z" transform="translate(-675 -591) translate(675 591) translate(11 14) translate(28 40) translate(19) translate(0 12)"/>
                                <path d="M10.69 9.59C5.62 9.59.16 8.26.16 5.33V1.26c0-.55.45-1 1-1s1 .45 1 1v4.07c0 .66 2.99 2.26 8.53 2.26 5.54 0 8.53-1.6 8.53-2.26V1.26c0-.55.45-1 1-1s1 .45 1 1v4.07c-.01 2.93-5.46 4.26-10.53 4.26z" transform="translate(-675 -591) translate(675 591) translate(11 14) translate(28 40) translate(19) translate(0 12)"/>
                            </g>
                            <g>
                                <path d="M10.69 5.49C5.62 5.49.16 4.16.16 1.23c0-.55.45-1 1-1s1 .45 1 1c0 .66 2.99 2.26 8.53 2.26 5.54 0 8.53-1.6 8.53-2.26 0-.55.45-1 1-1s1 .45 1 1c-.01 2.92-5.46 4.26-10.53 4.26z" transform="translate(-675 -591) translate(675 591) translate(11 14) translate(28 40) translate(19) translate(0 8)"/>
                                <path d="M10.69 9.56C5.62 9.56.16 8.23.16 5.3V1.23c0-.55.45-1 1-1s1 .45 1 1V5.3c0 .66 2.99 2.26 8.53 2.26 5.54 0 8.53-1.6 8.53-2.26V1.23c0-.55.45-1 1-1s1 .45 1 1V5.3c-.01 2.93-5.46 4.26-10.53 4.26z" transform="translate(-675 -591) translate(675 591) translate(11 14) translate(28 40) translate(19) translate(0 8)"/>
                            </g>
                            <path d="M10.69 9.51C5.62 9.51.16 8.18.16 5.25.16 2.32 5.62.99 10.69.99c5.07 0 10.53 1.33 10.53 4.26-.01 2.93-5.46 4.26-10.53 4.26zm0-6.52c-5.54 0-8.53 1.6-8.53 2.26 0 .66 2.99 2.26 8.53 2.26 5.54 0 8.53-1.6 8.53-2.26-.01-.65-2.99-2.26-8.53-2.26z" transform="translate(-675 -591) translate(675 591) translate(11 14) translate(28 40) translate(19)"/>
                            <path d="M10.69 13.59C5.62 13.59.16 12.26.16 9.33V5.25c0-.55.45-1 1-1s1 .45 1 1v4.08c0 .66 2.99 2.26 8.53 2.26 5.54 0 8.53-1.6 8.53-2.26V5.25c0-.55.45-1 1-1s1 .45 1 1v4.08c-.01 2.92-5.46 4.26-10.53 4.26z" transform="translate(-675 -591) translate(675 591) translate(11 14) translate(28 40) translate(19)"/>
                        </g>
                        <g>
                            <path d="M10.63 12.54C5.56 12.54.1 11.21.1 8.28c0-.55.45-1 1-1s1 .45 1 1c0 .66 2.99 2.26 8.53 2.26 5.54 0 8.53-1.6 8.53-2.26 0-.55.45-1 1-1s1 .45 1 1c0 2.93-5.46 4.26-10.53 4.26z" transform="translate(-675 -591) translate(675 591) translate(11 14) translate(28 40) translate(0 9)"/>
                            <path d="M10.63 8.57C5.56 8.57.1 7.24.1 4.31.1 1.38 5.56.05 10.63.05c5.07 0 10.53 1.33 10.53 4.26 0 2.93-5.46 4.26-10.53 4.26zm0-6.52c-5.54 0-8.53 1.6-8.53 2.26 0 .66 2.99 2.26 8.53 2.26 5.54 0 8.53-1.6 8.53-2.26 0-.66-2.99-2.26-8.53-2.26z" transform="translate(-675 -591) translate(675 591) translate(11 14) translate(28 40) translate(0 9)"/>
                            <path d="M10.63 12.65C5.56 12.65.1 11.32.1 8.39V4.31c0-.55.45-1 1-1s1 .45 1 1v4.08c0 .66 2.99 2.26 8.53 2.26 5.54 0 8.53-1.6 8.53-2.26V4.31c0-.55.45-1 1-1s1 .45 1 1v4.08c0 2.92-5.46 4.26-10.53 4.26z" transform="translate(-675 -591) translate(675 591) translate(11 14) translate(28 40) translate(0 9)"/>
                        </g>
                    </g>
                </g>
                <path fill="#FFF" d="M0 0H90V90H0z" opacity=".01" transform="translate(-675 -591) translate(675 591)"/>
            </g>
        </g>
    </g>
</svg>
