<svg xmlns="http://www.w3.org/2000/svg" width="90" height="90" viewBox="0 0 90 90">
    <g fill="none" fill-rule="evenodd">
        <g>
            <g>
                <g stroke-width="1.07">
                    <path fill="#B99515" stroke="#4D4D4D" d="M21.51 50.736c-5.49 0-9.955-4.475-9.955-9.976v-1.848h1.184v1.848c0 4.847 3.934 8.79 8.771 8.79 4.836 0 8.77-3.943 8.77-8.79V6.97c0-3.618 2.94-6.563 6.55-6.563 3.611 0 6.55 2.945 6.55 6.563v18.026h-1.183V6.97c0-2.965-2.409-5.377-5.368-5.377-2.959 0-5.365 2.412-5.365 5.377v33.79c0 5.5-4.464 9.976-9.954 9.976" transform="translate(-435 -951) translate(435 951) translate(19 20)"/>
                    <path fill="#B99515" stroke="#B99515" d="M42.789 24.812c3.643 0 6.607 2.971 6.607 6.622v5.436h1.58v1.187h-4.928v4.26h-1.184v-4.26H40.71v4.26h-1.183v-4.26h-4.926V36.87h1.578v-5.437c0-3.65 2.964-6.622 6.609-6.622zm0 1.186c-2.993 0-5.425 2.439-5.425 5.436v5.437h10.849v-5.437c0-2.997-2.434-5.436-5.424-5.436zm2.667 5.237v1.186H40.12v-1.186h5.336z" transform="translate(-435 -951) translate(435 951) translate(19 20)"/>
                    <path fill="#4D4D4D" stroke="#4D4D4D" d="M12.147 0l.476.649c.478.649 11.672 15.957 11.672 22.472 0 6.513-5.132 11.849-11.557 12.16v3.972h-1.183V35.28C5.132 34.97 0 29.634 0 23.12S11.193 1.299 11.671.65L12.147 0zm0 2.013C9.981 5.05 1.184 17.72 1.184 23.12c0 5.86 4.6 10.663 10.372 10.972l-.001-5.004-4.359-4.37.837-.838 3.522 3.531v-8.01l-4.359-4.369.837-.838 3.522 3.531V9.724h1.184l-.001 8.001 3.523-3.53.838.838-4.361 4.368v8.01l3.523-3.53.838.839-4.361 4.368v5.005c5.772-.31 10.374-5.113 10.374-10.972 0-5.401-8.8-18.07-10.965-21.108z" transform="translate(-435 -951) translate(435 951) translate(19 20)"/>
                </g>
                <path fill="#FFF" d="M0 0H90V90H0z" opacity=".01" transform="translate(-435 -951) translate(435 951)"/>
            </g>
        </g>
    </g>
</svg>
