<svg xmlns="http://www.w3.org/2000/svg" width="90" height="90" viewBox="0 0 90 90">
    <g fill="none" fill-rule="evenodd">
        <g>
            <g>
                <g fill-rule="nonzero">
                    <g fill="#20201D">
                        <path d="M31.62 57.95c-.16 0-.33-.04-.48-.12-8.95-4.93-14.52-14.33-14.52-24.55 0-10.21 5.56-19.62 14.52-24.55.48-.26 1.09-.09 1.36.39s.09 1.09-.39 1.36c-8.32 4.58-13.48 13.31-13.48 22.79 0 9.48 5.17 18.22 13.48 22.79.48.27.66.87.39 1.36-.18.35-.53.53-.88.53z" transform="translate(-435 -831) translate(435 831) translate(0 12)"/>
                        <g>
                            <path d="M5.62 10.28c-2.76 0-5-2.24-5-5s2.24-5 5-5 5 2.24 5 5-2.24 5-5 5zm0-8c-1.65 0-3 1.35-3 3s1.35 3 3 3 3-1.35 3-3-1.34-3-3-3z" transform="translate(-435 -831) translate(435 831) translate(0 12) translate(11)"/>
                            <path d="M14.38 15.04c-.26 0-.51-.1-.71-.29L7.88 8.96c-.39-.39-.39-1.02 0-1.41.39-.39 1.02-.39 1.41 0l5.79 5.79c.39.39.39 1.02 0 1.41-.19.19-.45.29-.7.29z" transform="translate(-435 -831) translate(435 831) translate(0 12) translate(11)"/>
                        </g>
                        <g>
                            <path d="M5.25 10.28c-1.34 0-2.59-.52-3.54-1.46C.77 7.88.25 6.62.25 5.28c0-1.34.52-2.59 1.46-3.54C2.65.8 3.91.28 5.25.28c1.34 0 2.59.52 3.54 1.46.94.94 1.46 2.2 1.46 3.54 0 1.34-.52 2.59-1.46 3.54-.95.94-2.21 1.46-3.54 1.46zm0-8c-.8 0-1.55.31-2.12.88-.57.57-.88 1.32-.88 2.12s.31 1.55.88 2.12c1.13 1.13 3.11 1.13 4.24 0 .57-.57.88-1.32.88-2.12s-.31-1.55-.88-2.12c-.57-.56-1.32-.88-2.12-.88z" transform="translate(-435 -831) translate(435 831) translate(0 12) translate(0 28)"/>
                            <path d="M17.62 6.28H9.44c-.55 0-1-.45-1-1s.45-1 1-1h8.18c.55 0 1 .45 1 1 0 .56-.44 1-1 1z" transform="translate(-435 -831) translate(435 831) translate(0 12) translate(0 28)"/>
                        </g>
                        <g>
                            <path d="M5.68 15.23c-2.76 0-5-2.24-5-5s2.24-5 5-5 5 2.24 5 5-2.24 5-5 5zm0-8c-1.65 0-3 1.35-3 3s1.35 3 3 3 3-1.35 3-3-1.35-3-3-3z" transform="translate(-435 -831) translate(435 831) translate(0 12) translate(11 51)"/>
                            <path d="M8.64 8.26c-.26 0-.51-.1-.71-.29-.39-.39-.39-1.02 0-1.41L13.72.77c.39-.39 1.02-.39 1.41 0 .39.39.39 1.02 0 1.41L9.34 7.97c-.18.2-.44.29-.7.29z" transform="translate(-435 -831) translate(435 831) translate(0 12) translate(11 51)"/>
                        </g>
                    </g>
                    <g fill="#20201D">
                        <path d="M1.62 58.01c-.35 0-.69-.19-.88-.52-.27-.48-.09-1.09.39-1.36 8.32-4.58 13.48-13.31 13.48-22.79 0-9.48-5.17-18.22-13.48-22.79-.48-.27-.66-.87-.39-1.36.27-.48.87-.66 1.36-.39 8.96 4.93 14.52 14.33 14.52 24.55 0 10.21-5.56 19.62-14.52 24.55-.15.07-.31.11-.48.11z" transform="translate(-435 -831) translate(435 831) translate(0 12) translate(56)"/>
                        <g>
                            <path d="M10.62 10.34c-2.76 0-5-2.24-5-5s2.24-5 5-5 5 2.24 5 5-2.24 5-5 5zm0-8c-1.65 0-3 1.35-3 3s1.35 3 3 3 3-1.35 3-3-1.34-3-3-3z" transform="translate(-435 -831) translate(435 831) translate(0 12) translate(56) translate(6)"/>
                            <path d="M1.87 15.09c-.26 0-.51-.1-.71-.29-.39-.39-.39-1.02 0-1.41L6.95 7.6c.39-.39 1.02-.39 1.41 0 .39.39.39 1.02 0 1.41L2.57 14.8c-.19.19-.44.29-.7.29z" transform="translate(-435 -831) translate(435 831) translate(0 12) translate(56) translate(6)"/>
                        </g>
                        <g>
                            <path d="M14 10.34c-1.28 0-2.56-.49-3.54-1.46-1.95-1.95-1.95-5.12 0-7.07 1.95-1.95 5.12-1.95 7.07 0 1.95 1.95 1.95 5.12 0 7.07-.97.97-2.25 1.46-3.53 1.46zm-2.12-7.12c-1.17 1.17-1.17 3.07 0 4.24 1.17 1.17 3.07 1.17 4.24 0 1.17-1.17 1.17-3.07 0-4.24-1.17-1.17-3.07-1.17-4.24 0z" transform="translate(-435 -831) translate(435 831) translate(0 12) translate(56) translate(14 28)"/>
                            <path d="M9.81 6.34H1.63c-.55 0-1-.45-1-1s.45-1 1-1h8.18c.55 0 1 .45 1 1s-.45 1-1 1z" transform="translate(-435 -831) translate(435 831) translate(0 12) translate(56) translate(14 28)"/>
                        </g>
                        <g>
                            <path d="M10.57 15.28c-2.76 0-5-2.24-5-5s2.24-5 5-5 5 2.24 5 5-2.24 5-5 5zm0-8c-1.65 0-3 1.35-3 3s1.35 3 3 3 3-1.35 3-3-1.35-3-3-3z" transform="translate(-435 -831) translate(435 831) translate(0 12) translate(56) translate(6 51)"/>
                            <path d="M7.6 8.32c-.26 0-.51-.1-.71-.29L1.1 2.24C.71 1.85.71 1.22 1.1.83c.39-.39 1.02-.39 1.41 0L8.3 6.62c.39.39.39 1.02 0 1.41-.18.19-.44.29-.7.29z" transform="translate(-435 -831) translate(435 831) translate(0 12) translate(56) translate(6 51)"/>
                        </g>
                    </g>
                    <g fill="#DF3219">
                        <path d="M25.81 25.77c-.94 0-1.85-.38-2.52-1.05-.68-.68-1.05-1.58-1.05-2.55 0-.96.38-1.87 1.06-2.55l1.18-1.14c.4-.38 1.03-.37 1.41.03.38.4.37 1.03-.02 1.41l-1.17 1.13c-.29.29-.46.69-.46 1.12 0 .43.17.83.47 1.13.31.31.73.47 1.14.46.39-.01.75-.17 1.01-.46l7-6.57c.19-.17.43-.27.68-.27h3.58c.55 0 1 .45 1 1s-.45 1-1 1h-3.19l-6.65 6.24c-.57.64-1.43 1.04-2.38 1.06-.03 0-.06.01-.09.01zM1.31 2c-.55 0-1-.45-1-1s.45-1 1-1h37.43c.55 0 1 .45 1 1s-.45 1-1 1H1.31zM8.72 21.04c-.92 0-1.84-.35-2.54-1.05-.68-.68-1.05-1.59-1.05-2.55 0-.96.38-1.87 1.06-2.55l9.34-9.3c.39-.39 1.02-.39 1.41 0 .39.39.39 1.03 0 1.42l-9.34 9.3c-.3.3-.47.7-.47 1.13 0 .43.17.83.47 1.13.62.62 1.64.62 2.26 0l7.27-7.27c.39-.39 1.02-.39 1.41 0 .39.39.39 1.02 0 1.41l-7.27 7.27c-.71.71-1.63 1.06-2.55 1.06z" transform="translate(-435 -831) translate(435 831) translate(0 12) translate(25 21)"/>
                        <path d="M15.28 21.93c-.88 0-1.76-.41-2.54-1.19-.68-.68-1.06-1.59-1.05-2.55 0-.96.38-1.87 1.06-2.54l4.59-4.56c.39-.39 1.02-.39 1.41 0 .39.39.39 1.02 0 1.41l-4.59 4.56c-.3.3-.47.7-.47 1.13 0 .43.17.83.47 1.13.23.23.68.57 1.15.6.32-.01.66-.21 1-.6l4.55-4.55c.39-.39 1.02-.39 1.41 0 .39.39.39 1.02 0 1.41l-4.51 4.51c-.69.78-1.51 1.2-2.4 1.22-.03.02-.05.02-.08.02z" transform="translate(-435 -831) translate(435 831) translate(0 12) translate(25 21)"/>
                        <path d="M20.32 23.96c-.94 0-1.85-.38-2.52-1.05-.68-.68-1.05-1.59-1.05-2.55 0-.96.38-1.87 1.06-2.54l3.07-3.03c.39-.39 1.03-.38 1.41.01.39.39.38 1.03-.01 1.41l-3.07 3.03c-.3.3-.47.7-.47 1.13 0 .43.17.83.47 1.13.31.31.72.5 1.14.46.39-.01.75-.17 1.01-.46l3.05-3.05c.39-.39 1.02-.39 1.41 0 .39.39.39 1.02 0 1.41l-3.02 3.02c-.59.66-1.46 1.06-2.4 1.08h-.08zM26.5 12.81c-.92 0-1.84-.35-2.55-1.05L19.38 7.2h-3.05c-.55 0-1-.45-1-1s.45-1 1-1h3.46c.27 0 .52.11.71.29l4.86 4.86c.62.62 1.64.62 2.26 0 .3-.3.47-.7.47-1.13 0-.43-.17-.83-.47-1.13l-6.38-6.38c-.39-.39-.39-1.02 0-1.41.39-.39 1.02-.39 1.41 0l6.38 6.38c.68.68 1.05 1.58 1.05 2.55 0 .96-.37 1.87-1.06 2.54-.68.69-1.6 1.04-2.52 1.04zM6.15 18.46H2.12c-.55 0-1-.45-1-1s.45-1 1-1h4.03c.55 0 1 .45 1 1s-.44 1-1 1z" transform="translate(-435 -831) translate(435 831) translate(0 12) translate(25 21)"/>
                    </g>
                </g>
                <path fill="#FFF" d="M0 0H90V90H0z" opacity=".01" transform="translate(-435 -831) translate(435 831)"/>
            </g>
        </g>
    </g>
</svg>
