<svg xmlns="http://www.w3.org/2000/svg" width="90" height="90" viewBox="0 0 90 90">
    <g fill="none" fill-rule="evenodd">
        <g>
            <g>
                <g fill-rule="nonzero">
                    <g fill="#20201D">
                        <path d="M31.35 23.76c-.11 0-.22-.02-.32-.05l-11.94-4.04c-.3-.1-.53-.33-.63-.63-.1-.3-.05-.62.12-.88L30.52.67c.18-.27.49-.43.82-.44.31.04.63.15.83.42l12.48 17.49c.18.26.24.59.13.89-.1.3-.34.54-.64.64l-12.48 4.04c-.11.04-.21.05-.31.05zM20.98 18.2l10.37 3.51 10.86-3.51L31.36 2.99 20.98 18.2z" transform="translate(-555 -831) translate(555 831) translate(9 12) translate(2)"/>
                        <path d="M31.35 44.75c-.1 0-.2-.02-.3-.05l-20.62-6.46c-.3-.09-.54-.33-.65-.63-.1-.3-.06-.63.12-.89l8.59-12.56c.25-.37.71-.52 1.13-.39l11.8 3.76 12.62-4.29c.43-.14.9.01 1.15.39l8.23 12.2c.17.26.22.58.12.88-.1.29-.33.53-.62.63l-21.25 7.35c-.1.04-.21.06-.32.06zm-19.03-8.01l19.01 5.96 19.71-6.82-7.07-10.48-12.21 4.15c-.2.07-.42.07-.62.01l-11.41-3.63-7.41 10.81z" transform="translate(-555 -831) translate(555 831) translate(9 12) translate(2)"/>
                        <path d="M31.35 65.73c-.1 0-.21-.02-.31-.05l-29.57-9.6c-.3-.1-.53-.33-.64-.62-.1-.3-.06-.62.12-.89L9.36 42.1c.25-.36.7-.52 1.13-.4l20.86 6.5 20.95-6.59c.41-.13.86.02 1.11.37l9.4 13.18c.19.26.24.6.13.91-.11.31-.35.54-.66.63l-30.65 8.97c-.09.05-.19.06-.28.06zm-28-11.13l28.01 9.09 29.01-8.49-8.17-11.45-20.56 6.46c-.19.06-.4.06-.6 0l-20.45-6.37L3.35 54.6z" transform="translate(-555 -831) translate(555 831) translate(9 12) translate(2)"/>
                        <path d="M30.35 49.26H32.35V65H30.35zM30.35 28.75H32.35V43.41H30.35zM31.35 23.76c-.55 0-1-.45-1-1V1.77c0-.55.45-1 1-1s1 .45 1 1v20.99c0 .56-.45 1-1 1zM19.32 25.74c-.39 0-.75-.23-.92-.6-.22-.51.01-1.1.52-1.32l4.06-1.76c.51-.22 1.1.01 1.32.52.22.51-.01 1.1-.52 1.32l-4.06 1.76c-.13.05-.27.08-.4.08zM44.37 25.2c-.12 0-.23-.02-.35-.06l-4.35-1.61c-.52-.19-.78-.77-.59-1.29.19-.52.76-.79 1.29-.59l4.35 1.61c.52.19.78.77.59 1.29-.15.4-.54.65-.94.65zM10.44 43.6c-.38 0-.75-.22-.92-.59-.22-.5 0-1.1.51-1.32l3.7-1.65c.51-.22 1.1 0 1.32.51.22.5 0 1.1-.51 1.32l-3.7 1.65c-.13.05-.27.08-.4.08zM52.6 43.58c-.13 0-.26-.02-.39-.08l-4.43-1.85c-.51-.21-.75-.8-.54-1.31.21-.51.8-.75 1.31-.54l4.43 1.85c.51.21.75.8.54 1.31-.16.39-.53.62-.92.62z" transform="translate(-555 -831) translate(555 831) translate(9 12) translate(2)"/>
                    </g>
                    <path fill="#B99515" d="M4 32c-2.21 0-4-1.79-4-4s1.79-4 4-4 4 1.79 4 4-1.79 4-4 4zm0-6c-1.1 0-2 .9-2 2s.9 2 2 2 2-.9 2-2-.9-2-2-2zM68 40c-2.21 0-4-1.79-4-4s1.79-4 4-4 4 1.79 4 4-1.79 4-4 4zm0-6c-1.1 0-2 .9-2 2s.9 2 2 2 2-.9 2-2-.9-2-2-2z" transform="translate(-555 -831) translate(555 831) translate(9 12)"/>
                    <path fill="#B99515" d="M13 29H7c-.55 0-1-.45-1-1s.45-1 1-1h6c.55 0 1 .45 1 1s-.45 1-1 1zM68 46h-6c-.55 0-1-.45-1-1s.45-1 1-1h5v-5c0-.55.45-1 1-1s1 .45 1 1v6c0 .56-.45 1-1 1z" transform="translate(-555 -831) translate(555 831) translate(9 12)"/>
                    <g fill="#DF3219">
                        <path d="M12 8C9.79 8 8 6.21 8 4s1.79-4 4-4 4 1.79 4 4-1.79 4-4 4zm0-6c-1.1 0-2 .9-2 2s.9 2 2 2 2-.9 2-2-.9-2-2-2z" transform="translate(-555 -831) translate(555 831) translate(9 12) translate(42)"/>
                        <path d="M1 9c-.21 0-.42-.07-.6-.2-.44-.33-.53-.96-.2-1.4l3-4c.19-.25.49-.4.8-.4h5c.55 0 1 .45 1 1s-.45 1-1 1H4.5L1.8 8.6c-.2.27-.5.4-.8.4z" transform="translate(-555 -831) translate(555 831) translate(9 12) translate(42)"/>
                    </g>
                </g>
                <path fill="#FFF" d="M0 0H90V90H0z" opacity=".01" transform="translate(-555 -831) translate(555 831)"/>
            </g>
        </g>
    </g>
</svg>
