<svg xmlns="http://www.w3.org/2000/svg" width="90" height="90" viewBox="0 0 90 90">
    <g fill="none" fill-rule="evenodd">
        <g>
            <g>
                <path fill="#FFF" d="M0 0H90V90H0z" opacity=".01" transform="translate(-315 -471) translate(315 471)"/>
                <g fill="#20201D" fill-rule="nonzero">
                    <g>
                        <path d="M18.7 47.59h-2c-.55 0-1-.45-1-1s.45-1 1-1h1v-18.3c0-4.8-3.98-8.7-8.87-8.7H3.7c-.55 0-1-.45-1-1s.45-1 1-1h5.13c5.99 0 10.87 4.8 10.87 10.7v19.3c0 .55-.45 1-1 1z" transform="translate(-315 -471) translate(315 471) translate(0 8) translate(56 7)"/>
                        <path d="M13.7 67.59c-.55 0-1-.45-1-1v-36c0-.55.45-1 1-1h.94c.55 0 1 .45 1 1 0 .53-.41.97-.94 1v35c0 .55-.45 1-1 1zM6.67 67.59c-.55 0-1-.45-1-1v-19c0-.55.45-1 1-1s1 .45 1 1v19c0 .55-.44 1-1 1zM6.67 14.59c-3.59 0-6-2.81-6-7 0-4.19 2.41-7 6-7s6 2.81 6 7c0 4.18-2.41 7-6 7zm0-12c-2.95 0-4 2.58-4 5s1.05 5 4 5 4-2.58 4-5-1.05-5-4-5zM32.7 48.59h-2c-.55 0-1-.45-1-1s.45-1 1-1h1v-18c0-4.19-3.21-7-8-7h-3c-.55 0-1-.45-1-1s.45-1 1-1h3c5.89 0 10 3.7 10 9v19c0 .55-.45 1-1 1z" transform="translate(-315 -471) translate(315 471) translate(0 8) translate(56 7)"/>
                        <path d="M27.7 67.59c-.55 0-1-.45-1-1v-32c0-.55.45-1 1-1h1c.55 0 1 .45 1 1s-.45 1-1 1v31c0 .55-.45 1-1 1zM20.7 67.59c-.55 0-1-.45-1-1v-16c0-.55.45-1 1-1s1 .45 1 1v16c0 .55-.45 1-1 1zM21.7 17.59c-2.99 0-5-2.41-5-6s2.01-6 5-6 5 2.41 5 6c0 3.58-2.01 6-5 6zm0-10c-2.21 0-3 2.07-3 4 0 1.93.79 4 3 4s3-2.07 3-4c0-1.94-.79-4-3-4z" transform="translate(-315 -471) translate(315 471) translate(0 8) translate(56 7)"/>
                    </g>
                    <g>
                        <g>
                            <path d="M3.7 47.59h-2c-.55 0-1-.45-1-1v-19.3c0-5.9 4.88-10.7 10.87-10.7h5.13c.55 0 1 .45 1 1s-.45 1-1 1h-5.13c-4.89 0-8.87 3.9-8.87 8.7v18.3h1c.55 0 1 .45 1 1s-.45 1-1 1z" transform="translate(-315 -471) translate(315 471) translate(0 8) translate(0 7) translate(14)"/>
                            <path d="M6.7 67.59c-.55 0-1-.45-1-1v-35c-.55 0-1-.45-1-1s.45-1 1-1h1c.55 0 1 .45 1 1v36c0 .55-.45 1-1 1zM13.72 67.59c-.55 0-1-.45-1-1v-19c0-.55.45-1 1-1s1 .45 1 1v19c0 .55-.45 1-1 1zM13.72 14.59c-3.59 0-6-2.81-6-7 0-4.19 2.41-7 6-7s6 2.81 6 7c0 4.18-2.41 7-6 7zm0-12c-2.95 0-4 2.58-4 5s1.05 5 4 5 4-2.58 4-5-1.05-5-4-5z" transform="translate(-315 -471) translate(315 471) translate(0 8) translate(0 7) translate(14)"/>
                        </g>
                        <path d="M3.7 48.59h-2c-.55 0-1-.45-1-1v-19c0-5.3 4.11-9 10-9h3c.55 0 1 .45 1 1s-.45 1-1 1h-3c-4.79 0-8 2.81-8 7v18h1c.55 0 1 .45 1 1s-.45 1-1 1z" transform="translate(-315 -471) translate(315 471) translate(0 8) translate(0 7)"/>
                        <path d="M6.7 67.59c-.55 0-1-.45-1-1v-31c-.55 0-1-.45-1-1s.45-1 1-1h1c.55 0 1 .45 1 1v32c0 .55-.45 1-1 1zM13.7 67.59c-.55 0-1-.45-1-1v-16c0-.55.45-1 1-1s1 .45 1 1v16c0 .55-.45 1-1 1zM12.7 17.59c-2.99 0-5-2.41-5-6s2.01-6 5-6 5 2.41 5 6c0 3.58-2.01 6-5 6zm0-10c-2.21 0-3 2.07-3 4 0 1.93.79 4 3 4s3-2.07 3-4c0-1.94-.79-4-3-4z" transform="translate(-315 -471) translate(315 471) translate(0 8) translate(0 7)"/>
                    </g>
                    <g>
                        <path d="M18.7 16.59c-4.19 0-7-3.21-7-8s2.81-8 7-8c4.19 0 7 3.21 7 8 0 4.78-2.82 8-7 8zm0-14c-3.69 0-5 3.23-5 6s1.31 6 5 6 5-3.23 5-6-1.31-6-5-6zM27.7 74.59c-.55 0-1-.45-1-1v-33c0-.55.45-1 1-1s1 .45 1 1v33c0 .55-.45 1-1 1zM21.7 74.59c-.51 0-.95-.39-1-.91l-1.92-22.09h-.17l-1.92 22.09c-.05.55-.53.96-1.08.91-.55-.05-.96-.53-.91-1.08l2-23c.04-.52.48-.91 1-.91h2c.52 0 .95.4 1 .91l2 23c.05.55-.36 1.03-.91 1.08-.04-.01-.07 0-.09 0zM9.7 74.59c-.55 0-1-.45-1-1v-33c0-.55.45-1 1-1s1 .45 1 1v33c0 .55-.45 1-1 1zM19.7 20.59h-2c-.55 0-1-.45-1-1s.45-1 1-1h2c.55 0 1 .45 1 1s-.45 1-1 1z" transform="translate(-315 -471) translate(315 471) translate(0 8) translate(27)"/>
                        <path d="M18.7 31.59c-.55 0-1-.45-1-1v-11c0-.55.45-1 1-1s1 .45 1 1v11c0 .55-.45 1-1 1z" transform="translate(-315 -471) translate(315 471) translate(0 8) translate(27)"/>
                        <path d="M30.56 40.67h-7.43c-.72 0-1.79-.22-2.69-.49-.04.01-.09.02-.13.02l-5.75.47H4.83c-1.31 0-2.59-.55-3.36-1.44-.6-.7-.86-1.58-.73-2.49l2.08-11.6c.73-3.57 4.69-6.56 8.66-6.56h1.23c.39 0 .75.23.91.59l5.12 11.36 5.06-11.36c.16-.36.52-.59.91-.59h.71c3.67 0 6.9 2.75 7.67 6.53l1.57 11.63c.16.79-.07 1.65-.65 2.36-.79.96-2.14 1.57-3.45 1.57zm-10.41-2.72c.73.34 2.29.72 2.98.72h7.43c.72 0 1.5-.34 1.89-.82.3-.37.25-.67.23-.76l-1.57-11.63c-.57-2.79-2.97-4.87-5.7-4.87h-.07l-4.85 10.78c-.38.71-1.06 1.12-1.79 1.12-.74 0-1.41-.4-1.76-1.05L12.05 20.6h-.58c-3.03 0-6.16 2.31-6.7 4.93L2.7 37.07c-.04.3.04.6.27.86.39.45 1.13.75 1.85.75h9.65l2.83-.23c-2.23-1.41-6.2-3.56-9.31-3.25-.32.03-.63-.09-.85-.33-.21-.24-.3-.57-.23-.88l1.1-5.03c.12-.54.65-.88 1.19-.76.54.12.88.65.76 1.19l-.83 3.8c4.82.27 10.25 4.19 11.02 4.76z" transform="translate(-315 -471) translate(315 471) translate(0 8) translate(27)"/>
                        <path d="M8.08 34.9c-.2 0-.41-.06-.58-.19-.45-.32-.55-.95-.23-1.4l1.21-1.68c.54-.75 1.56-1.44 2.71-1.01l3.93.74c1.07-.12 6.98-.71 11.1.59l-.29-2.97c-.05-.55.35-1.04.9-1.09.55-.05 1.04.35 1.09.9l.46 4.62c.04.37-.13.73-.44.93-.31.21-.7.22-1.03.05-3.69-1.99-11.62-1.03-11.7-1.02-.1.01-.21.01-.31-.01l-4.18-.78c-.07-.01-.15-.04-.21-.07-.07-.03-.28.12-.41.3l-1.21 1.68c-.19.26-.5.41-.81.41z" transform="translate(-315 -471) translate(315 471) translate(0 8) translate(27)"/>
                    </g>
                </g>
            </g>
        </g>
    </g>
</svg>
