<svg xmlns="http://www.w3.org/2000/svg" width="55" height="55" viewBox="0 0 55 55">
    <g fill="none" fill-rule="evenodd">
        <g fill="#BC9E5C">
            <path d="M420 1667.5c0-15.185-12.314-27.5-27.5-27.5-15.185 0-27.5 12.315-27.5 27.5s12.315 27.5 27.5 27.5c.162 0 .322-.003.483-.006v-21.408h-5.908v-6.885h5.908v-5.067c0-5.877 3.588-9.075 8.83-9.075 2.51 0 4.667.188 5.297.271v6.141h-3.615c-2.852 0-3.404 1.355-3.404 3.344v4.386h6.819l-.888 6.885h-5.93v20.352c11.494-3.295 19.908-13.886 19.908-26.438" transform="translate(-365 -1640)"/>
        </g>
    </g>
</svg>
