<svg xmlns="http://www.w3.org/2000/svg" width="56" height="56" viewBox="0 0 56 56">
    <g fill="none" fill-rule="evenodd">
        <g>
            <g>
                <path fill="#C9B17D" d="M55.04 27.52c0 15.199-12.321 27.52-27.52 27.52S0 42.719 0 27.52 12.321 0 27.52 0s27.52 12.321 27.52 27.52" transform="translate(-432 -1759) translate(432 1759)"/>
                <path fill="#FFF" d="M15.233 35.284v-1.636c0-3.201 1.246-6.211 3.51-8.476 2.264-2.263 5.274-3.51 8.476-3.51h3.091v-5.73l8.811 9.66-8.81 9.662v-5.73h-1.458c-5.127 0-10.058 2.092-13.62 5.76zm26.087-9.692L28.686 11.74v8.298h-1.467c-3.636 0-7.053 1.416-9.624 3.986-2.571 2.571-3.987 5.989-3.987 9.624v5.812l2.425-2.656c3.243-3.554 7.847-5.61 12.653-5.656v8.298L41.32 25.592z" transform="translate(-432 -1759) translate(432 1759)"/>
            </g>
        </g>
    </g>
</svg>
