<svg xmlns="http://www.w3.org/2000/svg" xmlns:xlink="http://www.w3.org/1999/xlink" width="44" height="44" viewBox="0 0 44 44">
    <defs>
        <path id="lw0hno35pa" d="M22.112 0c5.826.032 11.298 2.317 15.422 6.44 4.154 4.153 6.44 9.674 6.44 15.547 0 5.873-2.286 11.394-6.44 15.548-4.153 4.152-9.675 6.438-15.548 6.438-5.873 0-11.392-2.286-15.548-6.438C2.287 33.38 0 27.86 0 21.987c0-5.873 2.287-11.394 6.438-15.548C10.445 2.436 15.721.165 21.358.008l.503-.006.25-.002zm-.126 31.605c-2.715 0-5.362.433-7.87 1.275 1.756 5.003 4.66 8.346 7.87 8.346 3.212 0 6.116-3.343 7.873-8.346-2.51-.842-5.157-1.275-7.873-1.275zm10.437 2.3c-.419 1.173-.905 2.28-1.45 3.304-.504.944-1.047 1.795-1.626 2.552 2.325-.966 4.42-2.376 6.18-4.122-.997-.656-2.036-1.233-3.104-1.733zm-20.872 0c-1.07.5-2.108 1.078-3.106 1.734 1.762 1.746 3.856 3.156 6.183 4.122-.58-.757-1.123-1.608-1.627-2.552-.547-1.024-1.03-2.131-1.45-3.303zM9.643 23.363H2.8c.269 3.806 1.65 7.312 3.824 10.19 1.315-.89 2.691-1.658 4.119-2.3-.632-2.46-1.005-5.127-1.099-7.89zm31.533 0H34.33c-.095 2.763-.468 5.43-1.098 7.89 1.427.642 2.803 1.41 4.118 2.3 2.172-2.878 3.554-6.384 3.825-10.19zm-9.594 0h-19.19c.092 2.434.421 4.759.94 6.88 2.762-.914 5.671-1.384 8.654-1.384 2.985 0 5.895.47 8.654 1.383.52-2.12.85-4.445.942-6.88zm5.77-12.94c-1.316.89-2.692 1.658-4.12 2.3.552 2.152.907 4.463 1.05 6.859l.049 1.031h6.845c-.271-3.806-1.653-7.312-3.825-10.19zm-6.712 3.31c-2.76.914-5.669 1.384-8.654 1.384-2.983 0-5.892-.47-8.654-1.383-.454 1.855-.763 3.867-.894 5.972l-.045.907h19.189c-.092-2.434-.423-4.759-.942-6.88zm-24.017-3.31c-2.046 2.708-3.39 5.973-3.765 9.522l-.06.668h6.845c.094-2.763.467-5.43 1.099-7.89-1.428-.642-2.804-1.41-4.119-2.3zm15.363-7.674c-3.21 0-6.114 3.343-7.87 8.346 2.506.842 5.155 1.273 7.87 1.273 2.716 0 5.365-.431 7.873-1.273-1.757-5.003-4.66-8.346-7.873-8.346zm-7.358 1.465c-2.327.966-4.421 2.374-6.183 4.122.998.656 2.036 1.233 3.106 1.733.42-1.172.903-2.279 1.45-3.303.504-.944 1.048-1.795 1.627-2.552zm14.719 0c.579.757 1.122 1.608 1.626 2.552.545 1.024 1.031 2.131 1.45 3.303 1.068-.5 2.107-1.077 3.106-1.733-1.761-1.746-3.857-3.156-6.182-4.122z"/>
    </defs>
    <g fill="none" fill-rule="evenodd">
        <g>
            <g transform="translate(-513 -2145) translate(513 2145)">
                <mask id="s68ybkj4lb" fill="#fff">
                    <use xlink:href="#lw0hno35pa"/>
                </mask>
                <path fill="#BF9A0E" d="M-8.8 52.773L52.774 52.773 52.774 -8.801 -8.8 -8.801z" mask="url(#s68ybkj4lb)"/>
            </g>
        </g>
    </g>
</svg>
