<svg xmlns="http://www.w3.org/2000/svg" width="55" height="55" viewBox="0 0 55 55">
    <g fill="none" fill-rule="evenodd">
        <g fill="#C9B17D">
            <path d="M335.057 1848.441c.012.271.018.543.018.816 0 8.34-6.35 17.958-17.96 17.959-3.564 0-6.881-1.044-9.675-2.835.495.059.997.087 1.506.087 2.958 0 5.68-1.009 7.84-2.702-2.764-.05-5.093-1.876-5.897-4.384.385.074.78.114 1.186.114.576 0 1.134-.077 1.665-.222-2.89-.578-5.064-3.13-5.064-6.187v-.08c.851.472 1.824.756 2.86.788-1.696-1.13-2.81-3.064-2.81-5.254 0-1.156.313-2.24.855-3.173 3.113 3.82 7.765 6.332 13.011 6.596-.108-.463-.164-.945-.164-1.44 0-3.484 2.827-6.31 6.313-6.31 1.815 0 3.455.767 4.607 1.993 1.438-.283 2.788-.809 4.008-1.532-.472 1.473-1.472 2.71-2.776 3.491 1.277-.152 2.494-.49 3.625-.993-.845 1.266-1.916 2.377-3.148 3.268M322.5 1827c-15.185 0-27.5 12.314-27.5 27.5 0 15.185 12.315 27.5 27.5 27.5 15.186 0 27.5-12.315 27.5-27.5 0-15.186-12.314-27.5-27.5-27.5" transform="translate(-295 -1827)"/>
        </g>
    </g>
</svg>
