<svg xmlns="http://www.w3.org/2000/svg" xmlns:xlink="http://www.w3.org/1999/xlink" width="56" height="56" viewBox="0 0 56 56">
    <defs>
        <path id="nnoon414va" d="M0.186 0L55.226 0 55.226 55.04 0.186 55.04z"/>
    </defs>
    <g fill="none" fill-rule="evenodd">
        <g>
            <g transform="translate(-434 -2018) translate(434 2018)">
                <mask id="xcyrw8neeb" fill="#fff">
                    <use xlink:href="#nnoon414va"/>
                </mask>
                <path fill="#D7C59E" d="M43.413 34.035c-.076 1.683-.344 2.83-.734 3.836-.822 2.123-2.5 3.801-4.622 4.622-1.005.39-2.154.658-3.836.734-1.685.076-2.223.096-6.515.096s-4.83-.02-6.516-.096c-1.682-.076-2.83-.344-3.835-.734-1.054-.397-2.01-1.02-2.799-1.823-.804-.79-1.425-1.744-1.823-2.799-.39-1.005-.657-2.153-.734-3.835-.078-1.686-.096-2.224-.096-6.516s.018-4.83.096-6.515c.076-1.682.343-2.83.734-3.837.397-1.054 1.019-2.009 1.823-2.798.79-.803 1.745-1.426 2.799-1.822 1.005-.391 2.153-.659 3.835-.735 1.686-.077 2.224-.095 6.516-.095 4.291 0 4.83.018 6.515.095 1.682.076 2.831.344 3.836.734 1.054.397 2.01 1.02 2.8 1.823.803.79 1.425 1.744 1.822 2.798.39 1.007.658 2.155.734 3.837.077 1.685.095 2.223.095 6.515s-.018 4.83-.095 6.515M27.706 0C12.509 0 .186 12.324.186 27.52s12.323 27.52 27.52 27.52c15.196 0 27.52-12.324 27.52-27.52S42.902 0 27.706 0" mask="url(#xcyrw8neeb)"/>
                <path fill="#D7C59E" d="M36.465 20.438c-1.052 0-1.903-.852-1.903-1.903 0-1.051.851-1.903 1.903-1.903 1.051 0 1.903.852 1.903 1.903-.001 1.051-.852 1.903-1.903 1.903M28 35.142c-4.498 0-8.143-3.645-8.143-8.142 0-4.498 3.645-8.143 8.143-8.143 4.497 0 8.143 3.645 8.143 8.143 0 4.497-3.646 8.142-8.143 8.142M40.36 17.647c-.254-.688-.659-1.311-1.186-1.823-.511-.527-1.134-.932-1.823-1.186-.558-.217-1.398-.475-2.944-.546C32.735 14.016 32.234 14 28 14s-4.736.016-6.408.092c-1.545.071-2.386.33-2.944.546-.689.254-1.312.66-1.823 1.186-.526.512-.932 1.135-1.187 1.823-.217.559-.475 1.399-.546 2.945C15.017 22.264 15 22.766 15 27s.017 4.735.092 6.408c.071 1.546.329 2.385.546 2.944.255.69.66 1.312 1.187 1.823.51.526 1.134.932 1.823 1.187.558.217 1.399.475 2.944.546 1.672.076 2.174.092 6.408.092s4.736-.016 6.408-.092c1.545-.071 2.386-.33 2.944-.546 1.383-.534 2.476-1.627 3.009-3.01.217-.56.476-1.398.547-2.944.076-1.673.092-2.174.092-6.408s-.016-4.736-.092-6.408c-.07-1.546-.33-2.386-.547-2.945" mask="url(#xcyrw8neeb)"/>
                <path fill="#D7C59E" d="M33 27c0 2.762-2.239 5-5 5-2.76 0-5-2.238-5-5s2.24-5 5-5c2.761 0 5 2.238 5 5" mask="url(#xcyrw8neeb)"/>
            </g>
        </g>
    </g>
</svg>
