<svg xmlns="http://www.w3.org/2000/svg" width="56" height="56" viewBox="0 0 56 56">
    <g fill="none" fill-rule="evenodd">
        <g fill="#666">
            <g>
                <path d="M24.241 32.93l8.652-4.983c.328-.19.328-.664 0-.854l-8.652-4.982c-.328-.189-.738.048-.738.427v9.965c0 .378.41.615.738.426" transform="translate(-809 -2018) translate(809 2018)"/>
                <path d="M44.716 27.548s0 5.582-.708 8.273c-.397 1.473-1.559 2.634-3.032 3.03-2.691.71-13.456.71-13.456.71s-10.737 0-13.457-.737c-1.472-.397-2.634-1.559-3.03-3.032-.71-2.662-.71-8.272-.71-8.272s0-5.58.71-8.272c.395-1.473 1.586-2.663 3.03-3.06 2.692-.708 13.457-.708 13.457-.708s10.765 0 13.456.736c1.473.397 2.635 1.559 3.032 3.032.736 2.691.708 8.3.708 8.3M27.52 0C12.324 0 0 12.324 0 27.52s12.324 27.52 27.52 27.52c15.197 0 27.52-12.324 27.52-27.52S42.717 0 27.52 0" transform="translate(-809 -2018) translate(809 2018)"/>
            </g>
        </g>
    </g>
</svg>
