<svg xmlns="http://www.w3.org/2000/svg" width="56" height="56" viewBox="0 0 56 56">
    <g fill="none" fill-rule="evenodd">
        <g fill="#323232">
            <g>
                <g>
                    <path d="M32.788 27.52c0 2.91-2.359 5.267-5.268 5.267-2.908 0-5.268-2.357-5.268-5.267s2.36-5.267 5.268-5.267c2.91 0 5.268 2.358 5.268 5.267" transform="translate(-739 -1827) translate(739 1827)"/>
                    <path d="M35.956 20.981c-1.048 0-1.897-.849-1.897-1.897 0-1.047.849-1.896 1.897-1.896 1.047 0 1.896.85 1.896 1.896 0 1.048-.849 1.897-1.896 1.897M27.52 35.635c-4.482 0-8.115-3.633-8.115-8.115s3.633-8.114 8.115-8.114 8.115 3.632 8.115 8.114c0 4.482-3.633 8.115-8.115 8.115M39.839 18.2c-.253-.685-.657-1.307-1.182-1.817-.51-.525-1.13-.929-1.817-1.181-.557-.217-1.393-.474-2.934-.544-1.667-.077-2.167-.093-6.386-.093-4.22 0-4.72.016-6.385.092-1.541.071-2.378.328-2.934.545-.687.252-1.308.656-1.817 1.181-.525.51-.93 1.13-1.183 1.817-.217.557-.474 1.394-.544 2.934-.075 1.667-.092 2.167-.092 6.387s.017 4.719.092 6.385c.07 1.541.327 2.377.544 2.934.254.687.657 1.308 1.182 1.817.51.525 1.131.93 1.817 1.183.557.216 1.394.473 2.935.544 1.665.076 2.165.092 6.385.092s4.72-.016 6.386-.092c1.54-.07 2.377-.328 2.934-.544 1.378-.532 2.467-1.621 2.999-3 .216-.557.474-1.393.544-2.934.076-1.666.092-2.166.092-6.385 0-4.22-.016-4.72-.092-6.387-.07-1.54-.328-2.377-.544-2.934" transform="translate(-739 -1827) translate(739 1827)"/>
                    <path d="M43.228 34.035c-.077 1.683-.344 2.83-.735 3.836-.821 2.123-2.5 3.801-4.622 4.622-1.004.39-2.153.658-3.835.734-1.685.077-2.224.096-6.515.096-4.292 0-4.83-.02-6.516-.096-1.682-.076-2.83-.344-3.836-.734-1.054-.397-2.009-1.02-2.798-1.823-.804-.789-1.426-1.744-1.823-2.799-.39-1.004-.658-2.153-.735-3.835-.077-1.686-.095-2.224-.095-6.516s.018-4.83.095-6.515c.076-1.682.343-2.83.734-3.836.397-1.054 1.02-2.01 1.824-2.8.789-.802 1.744-1.424 2.798-1.821 1.005-.391 2.154-.659 3.836-.735 1.685-.077 2.224-.095 6.515-.095 4.292 0 4.83.018 6.515.095 1.683.076 2.832.344 3.836.734 1.054.397 2.01 1.02 2.8 1.823.804.79 1.425 1.745 1.822 2.799.39 1.006.658 2.154.735 3.836.076 1.685.094 2.223.094 6.515s-.018 4.83-.094 6.515M27.52 0C12.324 0 0 12.324 0 27.52s12.324 27.52 27.52 27.52c15.197 0 27.52-12.324 27.52-27.52S42.717 0 27.52 0" transform="translate(-739 -1827) translate(739 1827)"/>
                </g>
            </g>
        </g>
    </g>
</svg>
