<svg xmlns="http://www.w3.org/2000/svg" width="56" height="56" viewBox="0 0 56 56">
    <g fill="none" fill-rule="evenodd">
        <g>
            <g>
                <path fill="#C9B17D" d="M56 27.608C56 42.8 43.464 55.117 28 55.117S0 42.8 0 27.607C0 12.416 12.536.1 28 .1s28 12.316 28 27.509" transform="translate(-504 -1758) translate(504 1758)"/>
                <path stroke="#FFF" stroke-width="2.545" d="M38.2 35.961c-5.634 5.534-14.767 5.534-20.4 0-5.632-5.534-5.632-14.507 0-20.041 5.633-5.534 14.766-5.534 20.4 0 5.633 5.534 5.633 14.507 0 20.041zM38.182 35.944L50.061 47.614" transform="translate(-504 -1758) translate(504 1758)"/>
            </g>
        </g>
    </g>
</svg>
