<svg xmlns="http://www.w3.org/2000/svg" xmlns:xlink="http://www.w3.org/1999/xlink" width="56" height="56" viewBox="0 0 56 56">
    <defs>
        <path id="5cs08vkkna" d="M0.011 0L55.051 0 55.051 55.04 0.011 55.04z"/>
    </defs>
    <g fill="none" fill-rule="evenodd">
        <g>
            <g>
                <path fill="#BC9E5C" d="M24.252 32.93l8.652-4.983c.328-.19.328-.664 0-.854l-8.652-4.982c-.328-.189-.737.048-.737.427v9.964c0 .38.41.616.737.427" transform="translate(-504 -1639) translate(504 1639)"/>
                <g transform="translate(-504 -1639) translate(504 1639)">
                    <mask id="prw3qj36ab" fill="#fff">
                        <use xlink:href="#5cs08vkkna"/>
                    </mask>
                    <path fill="#BC9E5C" d="M44.728 27.548s0 5.582-.708 8.273c-.398 1.473-1.56 2.634-3.033 3.03-2.69.71-13.456.71-13.456.71s-10.737 0-13.456-.737c-1.473-.397-2.635-1.559-3.031-3.032-.709-2.662-.709-8.272-.709-8.272s0-5.58.709-8.272c.396-1.473 1.586-2.663 3.03-3.06 2.693-.708 13.457-.708 13.457-.708s10.765 0 13.456.736c1.474.397 2.635 1.559 3.033 3.032.736 2.691.708 8.3.708 8.3M27.53 0C12.335 0 .011 12.324.011 27.52s12.324 27.52 27.52 27.52c15.197 0 27.52-12.324 27.52-27.52S42.728 0 27.531 0" mask="url(#prw3qj36ab)"/>
                </g>
            </g>
        </g>
    </g>
</svg>
