<svg xmlns="http://www.w3.org/2000/svg" xmlns:xlink="http://www.w3.org/1999/xlink" width="56" height="56" viewBox="0 0 56 56">
    <defs>
        <path id="h411cx5y9a" d="M0 0L55.04 0 55.04 55.04 0 55.04z"/>
    </defs>
    <g fill="none" fill-rule="evenodd">
        <g>
            <g>
                <path fill="#BC9E5C" d="M33 28c0 2.762-2.239 5-5 5-2.76 0-5-2.238-5-5s2.24-5 5-5c2.761 0 5 2.238 5 5" transform="translate(-434 -1639) translate(434 1639)"/>
                <path fill="#BC9E5C" d="M36.465 21.438c-1.052 0-1.903-.852-1.903-1.903 0-1.051.851-1.903 1.903-1.903 1.051 0 1.903.852 1.903 1.903-.001 1.051-.852 1.903-1.903 1.903M28 36.142c-4.498 0-8.143-3.645-8.143-8.142 0-4.498 3.645-8.143 8.143-8.143 4.497 0 8.143 3.645 8.143 8.143 0 4.497-3.646 8.142-8.143 8.142M40.36 18.647c-.254-.688-.659-1.311-1.186-1.823-.511-.527-1.134-.932-1.823-1.186-.558-.217-1.398-.475-2.944-.546C32.735 15.016 32.234 15 28 15s-4.736.016-6.408.092c-1.545.071-2.386.33-2.944.546-.689.254-1.312.66-1.823 1.186-.526.512-.932 1.135-1.187 1.823-.217.559-.475 1.399-.546 2.945C15.017 23.264 15 23.766 15 28s.017 4.735.092 6.408c.071 1.546.329 2.385.546 2.944.255.69.66 1.312 1.187 1.823.51.526 1.134.932 1.823 1.187.558.217 1.399.475 2.944.546 1.672.076 2.174.092 6.408.092s4.736-.016 6.408-.092c1.545-.071 2.386-.33 2.944-.546 1.383-.534 2.476-1.627 3.009-3.01.217-.56.476-1.398.547-2.944.076-1.673.092-2.174.092-6.408s-.016-4.736-.092-6.408c-.07-1.546-.33-2.386-.547-2.945" transform="translate(-434 -1639) translate(434 1639)"/>
                <g transform="translate(-434 -1639) translate(434 1639)">
                    <mask id="eoicsjrodb" fill="#fff">
                        <use xlink:href="#h411cx5y9a"/>
                    </mask>
                    <path fill="#BC9E5C" d="M43.228 34.035c-.077 1.683-.344 2.83-.735 3.836-.821 2.123-2.5 3.801-4.622 4.622-1.004.39-2.153.658-3.835.734-1.685.077-2.224.096-6.515.096-4.292 0-4.83-.02-6.516-.096-1.682-.076-2.83-.344-3.836-.734-1.054-.397-2.009-1.02-2.798-1.823-.804-.789-1.426-1.744-1.823-2.799-.39-1.004-.658-2.153-.735-3.835-.077-1.686-.095-2.224-.095-6.516s.018-4.83.095-6.515c.076-1.682.343-2.83.734-3.836.397-1.054 1.02-2.01 1.824-2.8.789-.802 1.744-1.424 2.798-1.821 1.005-.391 2.154-.659 3.836-.735 1.685-.077 2.224-.095 6.515-.095 4.292 0 4.83.018 6.515.095 1.683.076 2.832.344 3.836.734 1.054.397 2.01 1.02 2.8 1.823.804.79 1.425 1.745 1.822 2.799.39 1.006.658 2.154.735 3.836.076 1.685.094 2.223.094 6.515s-.018 4.83-.094 6.515M27.52 0C12.324 0 0 12.324 0 27.52s12.324 27.52 27.52 27.52c15.197 0 27.52-12.324 27.52-27.52S42.717 0 27.52 0" mask="url(#eoicsjrodb)"/>
                </g>
            </g>
        </g>
    </g>
</svg>
