<svg xmlns="http://www.w3.org/2000/svg" width="56" height="56" viewBox="0 0 56 56">
    <g fill="none" fill-rule="evenodd">
        <g>
            <g>
                <path fill="#BFBFC5" d="M55.04 27.52c0 15.199-12.32 27.52-27.52 27.52C12.321 55.04 0 42.719 0 27.52S12.321 0 27.52 0c15.2 0 27.52 12.321 27.52 27.52" transform="translate(-879 -1758) translate(879 1758)"/>
                <path stroke="#FFF" stroke-width="1.92" d="M12.907 15.68L42.347 15.68M38.507 20.16v21.153c0 1.749-1.418 3.167-3.167 3.167H19.914c-1.749 0-3.167-1.418-3.167-3.167V20.16M21.227 12.48L21.227 9.28 34.027 9.28 34.027 12.48M24.214 20.48L24.214 35.2M31.467 20.48L31.467 35.2" transform="translate(-879 -1758) translate(879 1758)"/>
            </g>
        </g>
    </g>
</svg>
