<svg xmlns="http://www.w3.org/2000/svg" xmlns:xlink="http://www.w3.org/1999/xlink" width="25" height="25" viewBox="0 0 25 25">
    <defs>
        <path id="yq5s0ef23a" d="M0 0L40 0 40 40 0 40z"/>
    </defs>
    <g fill="none" fill-rule="evenodd">
        <g>
            <g>
                <g transform="translate(-1315 -34) translate(1307 27)">
                    <mask id="q7j757dcjb" fill="#fff">
                        <use xlink:href="#yq5s0ef23a"/>
                    </mask>
                    <path fill="#BF9A0E" d="M27.506 18.712c-.054-1.57-.266-3.086-.624-4.483.811-.365 1.593-.801 2.34-1.307 1.234 1.635 2.02 3.627 2.173 5.79h-3.889zm-1.908 9.43c.31-.582.586-1.211.824-1.877.607.284 1.197.612 1.764.985-1 .992-2.19 1.793-3.512 2.342.33-.43.638-.914.924-1.45zm-9.578-2.46c1.425-.478 2.93-.724 4.472-.724 1.543 0 3.047.246 4.473.724-.998 2.843-2.648 4.742-4.473 4.742-1.824 0-3.474-1.9-4.472-4.742zm-1.457.583c.238.666.513 1.295.824 1.877.286.536.595 1.02.924 1.45-1.322-.55-2.512-1.35-3.513-2.342.567-.373 1.157-.701 1.765-.985zm.824-15.421c-.31.582-.586 1.21-.824 1.877-.608-.284-1.198-.612-1.765-.985 1.001-.993 2.191-1.793 3.513-2.342-.329.43-.638.914-.924 1.45zm10.557 9.43c-.052 1.383-.24 2.704-.535 3.909-1.568-.52-3.22-.786-4.917-.786-1.695 0-3.348.267-4.917.786-.295-1.205-.482-2.526-.534-3.91h10.903zm-10.903-1.562c.052-1.383.24-2.704.534-3.91 1.57.52 3.222.787 4.917.787 1.696 0 3.35-.267 4.917-.786.295 1.205.483 2.526.535 3.909H15.041zm9.924-5.408c-1.425.478-2.93.723-4.473.723-1.543 0-3.048-.245-4.472-.723.998-2.843 2.648-4.742 4.472-4.742 1.825 0 3.475 1.899 4.473 4.742zm.633-2.46c-.286-.536-.595-1.02-.924-1.45 1.321.549 2.512 1.35 3.513 2.342-.568.373-1.158.7-1.765.985-.238-.666-.514-1.295-.824-1.877zm-13.835 2.078c.747.506 1.53.942 2.34 1.307-.359 1.397-.57 2.913-.624 4.483H9.59c.153-2.163.938-4.155 2.173-5.79zM9.59 20.274h3.89c.052 1.57.264 3.086.623 4.483-.81.365-1.593.8-2.34 1.307-1.235-1.635-2.02-3.627-2.173-5.79zm19.632 5.79c-.747-.506-1.529-.942-2.34-1.307.358-1.397.57-2.913.624-4.483h3.89c-.155 2.163-.94 4.155-2.174 5.79zm.104-15.405c-2.36-2.36-5.497-3.66-8.834-3.66-3.337 0-6.473 1.3-8.834 3.66C9.3 13.019 8 16.156 8 19.493c0 3.337 1.3 6.474 3.658 8.834 2.361 2.359 5.497 3.658 8.834 3.658 3.337 0 6.474-1.3 8.834-3.658 2.36-2.36 3.66-5.497 3.66-8.834 0-3.337-1.3-6.474-3.66-8.834z" mask="url(#q7j757dcjb)"/>
                </g>
            </g>
        </g>
    </g>
</svg>
