<svg xmlns="http://www.w3.org/2000/svg" width="248" height="47" viewBox="0 0 248 47">
    <defs>
        <filter id="wpvex5whqa" width="187.5%" height="427.7%" x="-43.8%" y="-163.8%" filterUnits="objectBoundingBox">
            <feOffset in="SourceAlpha" result="shadowOffsetOuter1"/>
            <feGaussianBlur in="shadowOffsetOuter1" result="shadowBlurOuter1" stdDeviation="20"/>
            <feColorMatrix in="shadowBlurOuter1" result="shadowMatrixOuter1" values="0 0 0 0 0 0 0 0 0 0 0 0 0 0 0 0 0 0 0.05 0"/>
            <feMerge>
                <feMergeNode in="shadowMatrixOuter1"/>
                <feMergeNode in="SourceGraphic"/>
            </feMerge>
        </filter>
    </defs>
    <g fill="none" fill-rule="evenodd">
        <g>
            <g>
                <g>
                    <g filter="url(#wpvex5whqa)" transform="translate(-101 -4222) translate(0 3833) translate(101 389)">
                        <path fill="#B99516" d="M23.485 28.471l-6.938-.003c.766-1.32 1.177-2.986 1.177-4.969l.002-6.956c1.319.773 2.991 1.183 4.978 1.183h6.949c-.774 1.323-1.185 2.995-1.185 4.981l-.002 6.947c-1.318-.772-2.993-1.183-4.981-1.183m20.007-11.618c-1.629-1.574-3.555-2.431-5.767-2.576l-1.273-.008v-.003h-.012l-10.933.004V8.472l-3.162-.001.003 5.799c-3.486-.004-4.925-1.735-4.925-4.938v-.861h.002c.147-1.305.688-2.437 1.631-3.393 1.118-1.131 2.483-1.695 4.093-1.695 1.621 0 2.983.56 4.092 1.682.948.961 1.484 2.097 1.624 3.406h3.146c-.137-2.25-.982-4.186-2.547-5.806C27.756.888 25.661 0 23.194 0c-2.498 0-4.607.901-6.344 2.701-1.571 1.632-2.43 3.555-2.578 5.77l-.009 1.273v.011-.003l.006 10.947H8.47l-.004 3.161 5.803-.002c-.006 3.487-1.738 4.925-4.937 4.925h-.866v-.005c-1.304-.145-2.438-.685-3.393-1.63-1.126-1.119-1.693-2.484-1.693-4.094 0-1.622.561-2.983 1.682-4.092.963-.949 2.1-1.483 3.404-1.62v-3.148c-2.248.135-4.182.983-5.803 2.545C.885 18.449 0 20.541 0 23.011c0 2.495.9 4.609 2.7 6.342 1.631 1.577 3.557 2.434 5.766 2.577l1.274.007v.006c.096 0 .182-.012.276-.013l10.668-.004v5.799l3.158.003v-5.802c3.488.004 4.924 1.736 4.924 4.938v.864h-.005c-.142 1.305-.683 2.438-1.63 3.392-1.117 1.129-2.483 1.695-4.091 1.695-1.621 0-2.984-.559-4.092-1.684-.949-.961-1.484-2.097-1.62-3.403h-3.149c.139 2.248.984 4.184 2.543 5.803 1.713 1.778 3.806 2.665 6.274 2.665 2.498 0 4.61-.901 6.346-2.698 1.571-1.635 2.431-3.56 2.574-5.77l.01-1.277v-.002l.003.002-.003-10.943h5.799v-3.159h-5.799c.003-3.485 1.733-4.926 4.937-4.926h.862v.007c1.305.145 2.44.686 3.394 1.628 1.129 1.12 1.693 2.485 1.693 4.094 0 1.622-.561 2.985-1.684 4.092-.96.949-2.098 1.486-3.403 1.622v3.147c2.251-.136 4.183-.981 5.806-2.544 1.775-1.713 2.664-3.805 2.664-6.273 0-2.496-.904-4.61-2.703-6.343"/>
                        <path fill="#FFF" d="M68.354 15.857h5.624v-4.92h-5.624v4.92zm-7.937 0h5.352v-4.92h-5.352v4.92zm5.352-8.71c0-1.177-.022-1.721-.136-2.47h2.857c-.09.704-.136 1.293-.136 2.382v1.475h6.212c1 0 1.476-.025 2.065-.091-.067.635-.09 1.11-.09 1.994v6.917c0 1.02.023 1.61.114 2.267h-2.677v-1.36h-5.624v4.602c0 1.362.046 2.018.16 2.813h-2.902c.112-.84.157-1.542.157-2.813v-4.601h-5.352v1.359h-2.674c.09-.747.112-1.315.112-2.267v-6.94c0-.838-.023-1.247-.09-1.971.657.066 1.134.09 2.04.09h5.964V7.149zM101.213 22.639h4.762v-3.744h-4.762v3.744zm0-5.851h4.762v-3.494h-4.762v3.494zm0-5.602h4.762V7.648h-4.762v3.538zm4.718-5.714c1.224 0 1.836-.023 2.516-.091-.068.704-.089 1.383-.089 2.426v14.832h.203c.703 0 1.201-.047 1.633-.136v2.56c-.725-.09-1.567-.134-2.496-.134h-8.502c-.93 0-1.815.045-2.518.135v-2.54c.545.09.976.115 1.724.115h.407V7.784c0-1.02-.022-1.655-.09-2.403.77.068 1.383.09 2.381.09h4.831zM92.801 8.17c-.93.203-1.293.272-2.517.452-.16-.704-.386-1.27-.884-2.107 1.088-.115 2.176-.295 3.695-.615.565-.112.952-.25 2.176-.748.501-.18.704-.294 1.157-.59l1.407 1.997c-1.179.52-1.723.725-2.677 1.02v3.062h1.18c.748 0 1.134-.022 1.564-.09v2.358c-.475-.067-.862-.092-1.565-.092h-1.066c.75 1.36 1.68 2.404 3.131 3.606-.544.795-.886 1.428-1.179 2.267-1.09-1.292-1.61-2.04-2.2-3.174.022.34.045.59.068.748.046.679.067 1.226.067 1.997v4.626c0 1.405.023 2.017.135 2.788h-2.63c.114-.795.137-1.43.137-2.788v-3.902c0-.84.046-1.791.136-2.902-.839 2.335-1.496 3.537-2.812 5.193-.339-.93-.748-1.723-1.178-2.267 1.496-1.588 2.697-3.63 3.583-6.192h-1.362c-.86 0-1.269.025-1.812.114v-2.404c.497.092.883.114 1.837.114H92.8V8.17zM135.871 18.85h2.948v-3.445h-2.948v3.445zm0-5.578h2.948v-3.13h-2.948v3.13zm-5.239 5.578h2.813v-3.445h-2.813v3.445zm0-5.578h2.813v-3.13h-2.813v3.13zm8.051-5.373c1.18 0 1.837-.024 2.63-.115-.09.725-.113 1.45-.113 2.585v8.185c0 1.135.023 1.884.113 2.587-.817-.091-1.496-.113-2.63-.113h-8.163c-1.065 0-1.656.022-2.358.09.09-.77.112-1.383.112-2.517v-8.254c0-1.157-.022-1.77-.112-2.54.497.068 1.156.092 2.358.092h2.926v-.751c0-.996-.045-1.7-.16-2.29h2.721c-.113.659-.136 1.339-.136 2.314v.727h2.812zM123.31 5.494c1.723 1.135 2.29 1.565 3.877 3.062l-1.496 1.95c-1.225-1.384-1.95-1.997-3.832-3.243l1.451-1.77zm3.242 15.079c.59.907 1.384 1.475 2.426 1.815 1.066.318 2.404.453 4.784.453 1.25 0 3.131-.046 5.012-.113 1.701-.068 2.427-.114 3.764-.294-.43 1.179-.52 1.452-.704 2.652-2.13.115-3.967.137-7.957.137-3.628 0-4.99-.182-6.236-.818-.816-.407-1.43-.927-2.086-1.813-1.11 1.067-1.294 1.226-2.699 2.268-.339.25-.385.272-.77.59l-1.045-2.587c.136-.068.136-.068.5-.224.681-.295 1.744-1.044 2.72-1.883v-4.852h-1.293c-.702 0-1.063.02-1.518.113v-2.45c.477.09.885.115 1.814.115h1.701c.861 0 1.292-.024 1.678-.093-.068.613-.09 1.18-.09 2.223v4.76zM167.947 21.14h4.535V8.874h-4.535V21.14zm-.044 3.878h-2.496c.068-.703.113-1.633.113-2.652V8.805c0-.998-.024-1.746-.113-2.404.704.09 1.224.115 2.222.115h5.194c.951 0 1.565-.024 2.246-.115-.093.68-.115 1.337-.115 2.404v13.334c0 1.179.046 2.154.135 2.902h-2.607v-1.52h-4.579v1.497zm-8.777-16.44c-.908.18-1.452.273-3.018.52-.202-.974-.362-1.45-.815-2.266 3.424-.34 6.941-1.248 8.322-2.178l1.474 2.178-.134.046c-.16.046-.16.046-.478.158-.023 0-.113.023-.249.092-.659.248-2.086.703-2.72.884V10.8h1.336c.908 0 1.408-.024 1.906-.115v2.473c-.568-.091-1.11-.113-1.928-.113h-1.156c.272.657.432.929.928 1.588.863 1.178 1.544 1.859 2.745 2.788-.68.657-.816.84-1.45 1.972-1.09-1.18-1.77-2.155-2.519-3.582.091.816.137 1.632.137 2.902v3.969c0 1.406.023 2.11.136 2.882h-2.676c.112-.82.137-1.476.137-2.882v-3.765c0-.612.022-1.088.112-2.674-.432 1.223-.725 1.835-1.587 3.31-.387.657-.703 1.087-1.542 2.086-.408-.884-.704-1.361-1.406-2.155 1.065-.951 1.95-2.131 2.835-3.785.634-1.134.634-1.134 1.224-2.654h-1.406c-.838 0-1.45.046-2.086.136v-2.518c.658.113 1.201.137 2.133.137h1.745V8.578zM66.58 39.735h-.65c-.096-.443-.255-.837-.477-1.187-.351.406-.753.756-1.205 1.047-.452.294-1.063.438-1.835.438-.844 0-1.627-.228-2.35-.683-.722-.456-1.298-1.095-1.727-1.913-.43-.819-.645-1.74-.645-2.765 0-.728.118-1.425.35-2.084.234-.663.565-1.246.997-1.747.433-.503.947-.898 1.545-1.184.597-.289 1.252-.43 1.962-.43 1.173 0 2.142.423 2.908 1.276.102-.22.2-.543.299-.963h.622l.11 3.84h-.664c-.12-.653-.337-1.23-.651-1.739-.313-.509-.686-.898-1.118-1.166-.432-.27-.883-.403-1.354-.403-.526 0-1 .16-1.42.48-.42.32-.748.81-.985 1.464-.238.657-.357 1.476-.357 2.455 0 .956.1 1.748.298 2.38.199.634.445 1.114.737 1.436.293.324.588.544.882.658.296.116.573.175.832.175.567 0 1.079-.17 1.534-.509.454-.337.827-.767 1.119-1.282.29-.515.483-1.026.58-1.534h.664v3.94zM75.507 39.843h-3.56v-.71c.32 0 .538-.062.659-.187.12-.126.18-.31.18-.551v-2.583c0-.257-.016-.487-.046-.692-.03-.206-.11-.392-.239-.56-.13-.165-.328-.25-.596-.25-.216 0-.436.066-.66.197-.224.13-.395.3-.514.51-.13.238-.212.464-.246.68-.037.22-.052.483-.052.79v1.325c0 .359.011.62.036.788.027.166.1.296.216.392.117.096.311.142.584.142v.709H67.64v-.71c.31 0 .538-.034.683-.106.146-.072.237-.18.27-.32.034-.142.052-.372.052-.697v-6.455c0-.384-.055-.641-.165-.772-.112-.132-.39-.198-.84-.202v-.693l2.793-.662v5.192c.27-.317.553-.588.846-.804.293-.22.702-.327 1.222-.327.24 0 .481.037.72.115.24.076.456.19.647.34.193.147.332.317.42.506.19.375.282.863.282 1.462v2.3c0 .432.052.726.153.886.097.159.36.238.784.238v.709zM80.257 38.28v-1.908c-.879.307-1.436.608-1.674.904-.236.294-.355.583-.355.865 0 .236.064.427.194.569.13.144.31.217.547.217.253 0 .476-.06.672-.177.192-.117.397-.276.615-.47zm3.177-.062c0 .389-.072.723-.215.998-.141.273-.335.476-.576.606-.243.13-.517.196-.822.196-.386 0-.71-.1-.968-.303-.26-.203-.414-.446-.465-.728-.772.688-1.547 1.03-2.328 1.03-.496 0-.906-.134-1.224-.403-.319-.27-.477-.622-.477-1.065 0-.364.084-.692.256-.988.17-.294.42-.558.75-.788.329-.231.725-.436 1.18-.614.457-.174 1.028-.361 1.712-.557v-.438c0-.363-.078-.651-.23-.858-.157-.208-.444-.31-.86-.31-.353 0-.609.08-.766.245-.157.165-.261.413-.311.746-.038.235-.106.429-.206.58-.099.152-.306.229-.618.229-.196 0-.367-.061-.514-.184-.145-.124-.221-.306-.221-.548 0-.476.233-.893.7-1.245.466-.354 1.181-.532 2.147-.532 1.013 0 1.712.19 2.094.569.382.38.57.888.57 1.525v2.43c0 .309.007.533.022.678.013.144.052.25.114.326.063.074.16.112.294.112.12 0 .225-.07.317-.208.087-.137.135-.305.135-.501h.51zM86.752 30.28c0 .308-.098.569-.295.788-.197.217-.433.326-.71.326-.271 0-.508-.112-.71-.333-.201-.224-.3-.485-.3-.781 0-.308.099-.571.297-.793.199-.221.436-.331.713-.331.282 0 .52.107.714.322.193.217.29.483.29.802zm.782 9.563h-3.76v-.71h.202c.267 0 .462-.04.584-.123.122-.081.198-.198.224-.344.029-.15.042-.366.042-.656v-2.284c0-.317-.017-.544-.051-.676-.035-.136-.126-.231-.27-.294-.145-.06-.39-.093-.731-.098v-.71l2.838-.661v4.723c0 .432.05.726.146.886.097.159.355.238.776.238v.709zM92.04 39.843h-3.98v-.71h.298c.266 0 .46-.04.585-.123.12-.081.196-.198.225-.344.027-.15.04-.366.04-.656v-6.553c0-.37-.076-.606-.231-.71-.154-.101-.46-.153-.917-.153v-.706l2.936-.662v8.784c0 .29.013.504.038.65.027.145.098.262.222.346.12.086.317.128.585.128h.199v.709zM97.33 35.749c0-1.168-.416-1.753-1.246-1.753-.401 0-.71.16-.923.482-.216.324-.334.749-.357 1.27h2.526zm1.718.708H94.79c.005.099.017.304.037.623.023.317.085.644.195.977.109.333.295.613.56.84.267.23.623.344 1.07.344.245 0 .539-.07.887-.207.345-.138.645-.406.899-.8l.54.408c-.544.97-1.41 1.453-2.595 1.453-.532 0-1.015-.085-1.45-.252-.437-.171-.808-.406-1.113-.71-.304-.302-.536-.66-.7-1.07-.16-.41-.241-.85-.241-1.321 0-.622.135-1.196.405-1.725.27-.527.655-.95 1.16-1.261.502-.313 1.078-.47 1.724-.47.632 0 1.168.152 1.603.456.437.3.757.695.966 1.177.207.482.31.996.31 1.538zM104.047 38.28v-1.908c-.877.307-1.434.608-1.672.904-.237.294-.356.583-.356.865 0 .236.063.427.194.569.13.144.31.217.547.217.252 0 .475-.06.672-.177.194-.117.398-.276.615-.47zm3.178-.062c0 .389-.072.723-.215.998-.142.273-.336.476-.577.606-.243.13-.517.196-.82.196-.388 0-.712-.1-.969-.303-.26-.203-.415-.446-.466-.728-.77.688-1.546 1.03-2.326 1.03-.496 0-.907-.134-1.225-.403-.319-.27-.477-.622-.477-1.065 0-.364.084-.692.255-.988.17-.294.42-.558.751-.788.328-.231.725-.436 1.181-.614.456-.174 1.026-.361 1.71-.557v-.438c0-.363-.076-.651-.23-.858-.156-.208-.442-.31-.858-.31-.353 0-.61.08-.767.245-.156.165-.261.413-.31.746-.038.235-.108.429-.206.58-.1.152-.308.229-.62.229-.194 0-.365-.061-.513-.184-.147-.124-.222-.306-.222-.548 0-.476.234-.893.7-1.245.466-.354 1.183-.532 2.147-.532 1.016 0 1.714.19 2.094.569.382.38.57.888.57 1.525v2.43c0 .309.009.533.023.678.013.144.052.25.114.326.062.074.16.112.294.112.12 0 .224-.07.316-.208.089-.137.136-.305.136-.501h.51zM113.561 38.01c0 .443-.12.818-.357 1.131-.239.312-.564.55-.976.711-.413.163-.89.242-1.43.242-.364 0-.73-.04-1.1-.119-.37-.079-.694-.198-.97-.357l-.27.432h-.54l-.068-2h.58c.101.342.336.652.7.925.363.275.892.413 1.584.413.176 0 .367-.014.57-.045.201-.025.396-.104.585-.233.186-.128.28-.324.28-.592 0-.23-.096-.398-.287-.503-.192-.108-.55-.234-1.077-.382-.639-.18-1.159-.35-1.565-.51-.408-.164-.75-.395-1.032-.696-.282-.303-.422-.692-.422-1.17 0-.606.25-1.087.752-1.439.5-.354 1.157-.53 1.97-.53.507 0 .912.045 1.218.14.305.09.561.19.766.297l.167-.392h.554v1.786h-.567c-.05-.212-.167-.403-.346-.578-.18-.175-.418-.31-.717-.403-.298-.096-.642-.143-1.035-.143-.323 0-.646.038-.966.115-.32.077-.48.258-.48.547 0 .117.031.215.092.292.063.077.17.15.324.214.151.068.417.154.8.264l.687.191c.751.21 1.371.47 1.852.776.482.308.724.846.724 1.616M119.038 35.749c0-1.168-.416-1.753-1.247-1.753-.4 0-.71.16-.924.482-.214.324-.333.749-.356 1.27h2.527zm1.718.708h-4.26l.038.623c.023.317.086.644.196.977.107.333.295.613.56.84.266.23.622.344 1.069.344.245 0 .539-.07.886-.207.346-.138.647-.406.9-.8l.54.408c-.544.97-1.41 1.453-2.596 1.453-.531 0-1.014-.085-1.45-.252-.436-.171-.807-.406-1.112-.71-.304-.302-.536-.66-.7-1.07-.16-.41-.242-.85-.242-1.321 0-.622.136-1.196.406-1.725.27-.527.656-.95 1.16-1.261.502-.313 1.077-.47 1.724-.47.632 0 1.168.152 1.603.456.437.3.758.695.965 1.177.208.482.313.996.313 1.538zM132.885 32.119h-.652c-.115-.581-.269-1.005-.459-1.271-.192-.268-.407-.431-.644-.492-.239-.063-.569-.093-.995-.093h-1.675v3.686h.88c.417 0 .696-.08.846-.24.146-.159.233-.508.263-1.051h.635v3.468h-.65c-.024-.401-.067-.687-.127-.862-.064-.175-.17-.294-.319-.361-.15-.066-.375-.101-.676-.101h-.852v3.101c0 .422.075.73.226.93.15.201.507.301 1.071.301h.191v.709h-4.819v-.709c.573 0 .941-.094 1.105-.282.163-.187.246-.502.246-.949v-6.554c0-.298-.027-.531-.083-.699-.056-.165-.182-.296-.377-.391-.197-.096-.494-.14-.89-.14v-.709h7.686l.07 2.709zM136.534 30.28c0 .308-.098.569-.294.788-.195.217-.434.326-.711.326-.271 0-.508-.112-.708-.333-.201-.224-.301-.485-.301-.781 0-.308.098-.571.296-.793.198-.221.436-.331.713-.331.282 0 .52.107.716.322.192.217.289.483.289.802zm.782 9.563h-3.76v-.71h.202c.268 0 .462-.04.585-.123.12-.081.197-.198.223-.344.03-.15.044-.366.044-.656v-2.284c0-.317-.017-.544-.053-.676-.035-.136-.124-.231-.27-.294-.145-.06-.39-.093-.73-.098v-.71l2.839-.661v4.723c0 .432.048.726.145.886.096.159.357.238.775.238v.709zM145.827 39.843h-3.587v-.71c.272 0 .466-.04.584-.118.119-.081.19-.195.22-.35.027-.153.04-.407.04-.762v-2.177c0-.436-.057-.781-.172-1.035-.116-.254-.353-.38-.706-.38-.485 0-.846.205-1.084.617-.237.415-.357.89-.357 1.43v1.722c0 .406.052.68.16.83.104.15.334.224.684.224v.709h-3.655v-.71c.299 0 .52-.03.664-.087.143-.061.238-.163.285-.317.047-.15.068-.39.068-.72v-2.484c0-.36-.061-.592-.187-.703-.124-.11-.401-.164-.83-.164v-.71l2.692-.661c.042.299.064.576.064.832 0 .066-.003.122-.004.173-.003.047-.003.103-.003.166.29-.345.593-.628.906-.844.316-.22.707-.327 1.178-.327.396 0 .754.079 1.07.238.315.159.564.4.743.723.18.324.27.713.27 1.17v2.592c0 .432.053.726.157.886.104.159.37.238.8.238v.709zM150.59 38.28v-1.908c-.877.307-1.435.608-1.673.904-.237.294-.356.583-.356.865 0 .236.064.427.194.569.13.144.311.217.548.217.251 0 .476-.06.672-.177.192-.117.398-.276.614-.47zm3.178-.062c0 .389-.072.723-.214.998-.143.273-.338.476-.577.606-.244.13-.518.196-.822.196-.387 0-.71-.1-.969-.303-.26-.203-.413-.446-.465-.728-.77.688-1.546 1.03-2.327 1.03-.496 0-.906-.134-1.225-.403-.319-.27-.477-.622-.477-1.065 0-.364.085-.692.255-.988.17-.294.422-.558.751-.788.33-.231.725-.436 1.183-.614.456-.174 1.026-.361 1.708-.557v-.438c0-.363-.077-.651-.23-.858-.157-.208-.442-.31-.858-.31-.352 0-.608.08-.767.245-.157.165-.262.413-.31.746-.037.235-.106.429-.206.58-.1.152-.306.229-.618.229-.195 0-.365-.061-.513-.184-.147-.124-.224-.306-.224-.548 0-.476.236-.893.7-1.245.467-.354 1.184-.532 2.148-.532 1.016 0 1.713.19 2.094.569.381.38.57.888.57 1.525v2.43c0 .309.007.533.022.678.013.144.053.25.114.326.064.074.16.112.294.112.12 0 .225-.07.316-.208.088-.137.135-.305.135-.501h.512zM161.938 39.843h-3.588v-.71c.275 0 .47-.04.588-.118.116-.081.188-.195.217-.35.027-.153.041-.407.041-.762v-2.177c0-.436-.057-.781-.173-1.035-.114-.254-.35-.38-.705-.38-.485 0-.847.205-1.084.617-.238.415-.358.89-.358 1.43v1.722c0 .406.054.68.161.83.106.15.335.224.685.224v.709h-3.657v-.71c.301 0 .521-.03.665-.087.145-.061.237-.163.284-.317.047-.15.07-.39.07-.72v-2.484c0-.36-.063-.592-.189-.703-.123-.11-.4-.164-.83-.164v-.71l2.694-.661c.041.299.062.576.062.832 0 .066 0 .122-.003.173-.002.047-.004.103-.004.166.291-.345.593-.628.908-.844.314-.22.705-.327 1.176-.327.396 0 .754.079 1.07.238.318.159.565.4.743.723.183.324.271.713.271 1.17v2.592c0 .432.054.726.156.886.105.159.371.238.8.238v.709zM168.8 38.28c-.559 1.21-1.456 1.815-2.693 1.815-.578 0-1.124-.128-1.64-.392-.514-.261-.928-.641-1.238-1.138-.312-.496-.468-1.08-.468-1.746 0-.461.084-.904.255-1.324.168-.42.41-.8.728-1.138.32-.34.697-.603 1.132-.79.438-.186.905-.28 1.403-.28.637 0 1.198.14 1.683.42.484.277.728.664.728 1.156 0 .227-.077.42-.23.578-.153.159-.328.238-.525.238-.192 0-.337-.046-.436-.145-.101-.097-.17-.197-.201-.3-.032-.102-.08-.285-.14-.546-.06-.251-.16-.431-.297-.536-.138-.105-.332-.156-.582-.156-.418 0-.792.173-1.12.517-.322.348-.486.996-.486 1.945 0 .508.065.974.196 1.399.132.426.341.762.625 1.01.285.25.631.374 1.042.374.454 0 .803-.126 1.046-.377.239-.25.45-.546.636-.884l.582.3zM174.166 35.749c0-1.168-.416-1.753-1.247-1.753-.4 0-.71.16-.923.482-.215.324-.334.749-.356 1.27h2.526zm1.719.708h-4.26c.005.099.017.304.037.623.023.317.087.644.196.977.108.333.295.613.56.84.266.23.622.344 1.07.344.244 0 .538-.07.886-.207.345-.138.646-.406.899-.8l.54.408c-.543.97-1.41 1.453-2.594 1.453-.533 0-1.016-.085-1.451-.252-.437-.171-.807-.406-1.113-.71-.303-.302-.536-.66-.7-1.07-.16-.41-.241-.85-.241-1.321 0-.622.135-1.196.405-1.725.27-.527.656-.95 1.16-1.261.503-.313 1.078-.47 1.724-.47.632 0 1.168.152 1.603.456.437.3.758.695.966 1.177.207.482.313.996.313 1.538z"/>
                    </g>
                </g>
            </g>
        </g>
    </g>
</svg>
